<svg width="30" height="30" viewBox="0 0 30 30" fill="none" xmlns="http://www.w3.org/2000/svg">
<path d="M24.375 6.875L23.6 19.4062C23.4025 22.6075 23.3038 24.2088 22.5 25.36C22.1032 25.929 21.5924 26.4091 21 26.77C19.8037 27.5 18.2 27.5 14.9925 27.5C11.78 27.5 10.1737 27.5 8.975 26.7688C8.38236 26.4072 7.87152 25.9261 7.475 25.3562C6.6725 24.2037 6.575 22.6 6.3825 19.3938L5.625 6.875M3.75 6.875H26.25M20.07 6.875L19.2163 5.115C18.65 3.945 18.3663 3.36125 17.8775 2.99625C17.7689 2.91539 17.654 2.84349 17.5338 2.78125C16.9925 2.5 16.3425 2.5 15.0437 2.5C13.7112 2.5 13.045 2.5 12.4937 2.7925C12.3719 2.85776 12.2557 2.93302 12.1463 3.0175C11.6525 3.39625 11.3763 4.0025 10.8238 5.21375L10.0663 6.875M11.875 20.625V13.125M18.125 20.625V13.125" stroke="#EA0404" stroke-width="1.875" stroke-linecap="round" stroke-linejoin="round"/>
</svg>
