<svg width="22" height="22" viewBox="0 0 22 22" fill="none" xmlns="http://www.w3.org/2000/svg">
<g clip-path="url(#clip0_1_2796)">
<path d="M12.1 2.42917C11.7827 2.19116 11.3967 2.0625 11 2.0625C10.6033 2.0625 10.2173 2.19116 9.9 2.42917L3.48333 7.24167C3.25564 7.41244 3.07083 7.63387 2.94355 7.88844C2.81627 8.14301 2.75 8.42372 2.75 8.70833V17.4167C2.75 17.9029 2.94315 18.3692 3.28697 18.713C3.63079 19.0568 4.0971 19.25 4.58333 19.25H8.15833C8.42576 19.25 8.68223 19.1438 8.87133 18.9547C9.06043 18.7656 9.16667 18.5091 9.16667 18.2417V13.75C9.16667 13.2638 9.35982 12.7975 9.70364 12.4536C10.0475 12.1098 10.5138 11.9167 11 11.9167C11.4862 11.9167 11.9525 12.1098 12.2964 12.4536C12.6402 12.7975 12.8333 13.2638 12.8333 13.75V18.2417C12.8333 18.5091 12.9396 18.7656 13.1287 18.9547C13.3178 19.1438 13.5742 19.25 13.8417 19.25H17.4167C17.9029 19.25 18.3692 19.0568 18.713 18.713C19.0568 18.3692 19.25 17.9029 19.25 17.4167V8.70833C19.25 8.42372 19.1837 8.14301 19.0564 7.88844C18.9292 7.63387 18.7444 7.41244 18.5167 7.24167L12.1 2.42917Z" fill="white"/>
</g>
<defs>
<clipPath id="clip0_1_2796">
<rect width="22" height="22" fill="white"/>
</clipPath>
</defs>
</svg>
