<svg width="234" height="144" viewBox="0 0 234 144" fill="none" xmlns="http://www.w3.org/2000/svg">
<path opacity="0.3" d="M158.966 7.84805C158.982 7.84441 158.997 7.84076 159.013 7.83675C176.466 3.63788 189.841 9.10334 196.61 24.3797C199.959 31.9398 200.593 44.1942 209.465 48.4062C218.363 52.6306 224.83 55.209 229.256 64.4108C233.28 72.7779 235.031 83.0892 233.384 92.1263C229.517 113.352 210.055 129.312 186.555 129.312C155.52 129.312 124.485 129.312 93.4496 129.312C64.7256 129.312 19.9165 136.983 4.38027 108.287C-2.52965 95.5233 -1.09539 79.3955 7.4908 67.5304C14.3296 58.0804 25.3965 51.5076 37.3673 49.086C42.3571 48.0763 48.7608 49.1206 52.8948 46.0192C56.575 43.2586 57.6641 37.9936 58.7543 33.9875C60.822 26.3887 63.5279 18.7218 68.9219 12.5302C78.6621 1.35 96.4636 -2.81826 111.126 1.94047C119.714 4.72769 127.354 10.2165 136.391 11.2319C144.011 12.0881 151.539 9.63768 158.966 7.84805Z" fill="#BAF1FF"/>
<path d="M210.54 137.048C210.54 135.404 170.135 134.071 120.292 134.071C70.4501 134.071 30.0447 135.404 30.0447 137.048C30.0447 137.864 40.0163 138.604 56.1586 139.142C48.6488 139.602 44.2968 140.149 44.2968 140.734C44.2968 142.378 78.5606 143.711 120.827 143.711C163.094 143.711 197.357 142.378 197.357 140.734C197.357 140.139 192.858 139.584 185.113 139.119C200.85 138.583 210.54 137.853 210.54 137.048Z" fill="#BAF1FF"/>
<path opacity="0.7" d="M154.763 25.0012C154.777 24.9979 154.79 24.9947 154.803 24.9917C169.861 21.3691 181.4 26.0845 187.239 39.2639C190.129 45.7864 190.676 56.3587 198.33 59.9926C206.007 63.6371 211.586 65.8615 215.404 73.8004C218.876 81.0187 220.387 89.915 218.966 97.7114C215.629 116.023 198.839 129.793 178.565 129.793C151.79 129.793 125.015 129.793 98.2398 129.793C73.4584 129.793 34.8 136.41 21.3967 111.653C15.4352 100.642 16.6726 86.7276 24.0804 76.4914C29.9804 68.3386 39.5281 62.6683 49.8561 60.5787C54.1611 59.7079 59.6856 60.6086 63.2524 57.9329C66.4275 55.551 67.3671 51.0087 68.3075 47.5527C70.0917 40.997 72.4258 34.3824 77.0796 29.0408C85.4828 19.3951 100.841 15.7991 113.491 19.9046C120.9 22.3091 127.492 27.0445 135.288 27.9208C141.861 28.6592 148.355 26.5448 154.763 25.0012Z" fill="#BAF1FF"/>
<path d="M13.1113 55.5275C16.1836 54.4235 20.537 54.6396 23.8443 54.4366C27.7509 54.1971 31.6724 54.1228 35.579 54.402C43.2313 54.9487 50.9351 56.9169 57.2797 61.2306C68.3112 68.7306 74.7236 83.3727 74.4783 96.5638C74.4565 97.7371 54.9663 94.573 53.7282 94.1725C44.5387 91.1997 37.0081 86.7592 30.7102 79.261C27.2982 75.1991 24.3973 70.7488 21.5612 66.2758C20.1266 64.0134 18.8494 61.4212 17.156 59.3437C16.0024 57.9302 14.6823 56.4741 13.1113 55.5275Z" fill="#007577"/>
<path d="M13.1113 55.5275C16.1836 54.4235 20.537 54.6396 23.8443 54.4366C27.7509 54.1971 31.6724 54.1228 35.579 54.402C43.2313 54.9487 50.9351 56.9169 57.2797 61.2306C68.3112 68.7306 74.7236 83.3727 74.4783 96.5638C74.4565 97.7371 54.9663 94.573 53.7282 94.1725C44.5387 91.1997 37.0081 86.7592 30.7102 79.261C27.2982 75.1991 24.3973 70.7488 21.5612 66.2758C20.1266 64.0134 18.8494 61.4212 17.156 59.3437C16.0024 57.9302 14.6823 56.4741 13.1113 55.5275Z" fill="#007577"/>
<path opacity="0.2" d="M17.1553 59.3439C18.8491 61.4215 20.1262 64.0137 21.5605 66.2761C24.3965 70.749 27.2978 75.1994 30.7098 79.2612C37.0077 86.7594 44.538 91.2 53.7274 94.1727C54.9652 94.5733 74.4557 97.7374 74.4776 96.5641C74.478 96.5524 74.4776 96.5411 74.4776 96.5298C70.5685 87.4523 59.9634 77.4804 47.1113 67.4242C31.481 55.1942 13.1106 55.5277 13.1106 55.5277C14.6823 56.474 16.0024 57.9301 17.1553 59.3439Z" fill="#007577"/>
<g opacity="0.31">
<path d="M23.6753 56.7681C24.9576 56.9219 26.2256 57.1898 27.4791 57.5072C28.7347 57.8189 29.978 58.1837 31.2099 58.5839C33.6673 59.404 36.0798 60.3699 38.4202 61.49C40.77 62.5918 43.0411 63.8569 45.255 65.2125C47.462 66.58 49.5982 68.0595 51.6707 69.6231C52.1846 70.0193 52.6869 70.4305 53.1957 70.8332C53.7075 71.2323 54.2039 71.6504 54.6959 72.0732C55.188 72.496 55.6906 72.9064 56.1732 73.3398L57.6136 74.6475C59.4999 76.4277 61.3434 78.2541 63.0543 80.2009L64.3435 81.6537L65.5817 83.1499C66.4152 84.1398 67.1865 85.1801 67.9738 86.205C68.3685 86.7168 68.7359 87.2493 69.1066 87.7789L70.2187 89.3655C70.9469 90.4316 71.6332 91.5269 72.3247 92.6145L71.1299 91.0924C70.7337 90.5843 70.3553 90.0638 69.9478 89.5652L68.7257 88.0705C68.319 87.5722 67.9158 87.0718 67.4865 86.5925C66.6445 85.6208 65.8303 84.6283 64.95 83.6923L63.6597 82.2642L62.3283 80.8752C61.4531 79.9381 60.5175 79.0604 59.6169 78.1499C59.1638 77.6976 58.6841 77.2718 58.2194 76.8315C57.7489 76.3974 57.2903 75.9502 56.8027 75.5354C54.9062 73.8151 52.9256 72.192 50.8995 70.6309C48.8718 69.0706 46.7698 67.6101 44.6175 66.2276C42.4718 64.8338 40.2474 63.5643 37.981 62.3735C35.7095 61.1922 33.3812 60.1155 30.9982 59.1649C28.6228 58.1932 26.1822 57.3713 23.6753 56.7681Z" fill="#007577"/>
<path d="M37.8147 57.584C39.1104 57.8322 40.3351 58.36 41.488 58.9986C42.6383 59.647 43.7062 60.4485 44.6663 61.3659C45.1562 61.8149 45.5877 62.3238 46.0204 62.8271C46.2234 63.0906 46.4188 63.3604 46.6108 63.6312C46.706 63.7675 46.8058 63.8994 46.8962 64.0387L47.1481 64.4695C47.8468 65.5976 48.3086 66.8642 48.5823 68.1417C47.8151 67.0661 47.1514 65.9967 46.3269 65.0384L46.0364 64.6696L45.7251 64.3171L45.107 63.6133C44.6667 63.1694 44.2526 62.7036 43.7886 62.284C42.8872 61.4209 41.9381 60.6016 40.9383 59.8289C39.9397 59.0503 38.9012 58.3188 37.8147 57.584Z" fill="#007577"/>
<path d="M43.0232 64.8315C41.8929 65.512 40.6285 65.9367 39.3441 66.2308C38.0549 66.5162 36.7245 66.6328 35.3974 66.5909C34.7329 66.584 34.0718 66.4929 33.4139 66.4072C33.0869 66.3463 32.7611 66.2764 32.4374 66.2027C32.2756 66.1648 32.113 66.1331 31.953 66.0901L31.4777 65.9374C30.2042 65.5642 29.0149 64.9296 27.9583 64.1616C29.2478 64.4499 30.4557 64.8028 31.7092 64.966L32.1717 65.047L32.6386 65.1013L33.5688 65.2124C34.1931 65.2489 34.812 65.3192 35.4379 65.3218C36.6851 65.3626 37.9386 65.3385 39.199 65.2463C40.4623 65.1589 41.7234 65.0098 43.0232 64.8315Z" fill="#007577"/>
<path d="M51.7883 71.191C50.658 71.8715 49.3936 72.2965 48.1092 72.5907C46.82 72.8761 45.4896 72.9927 44.1625 72.9508C43.4981 72.9439 42.8369 72.8527 42.179 72.7671C41.8521 72.7062 41.5266 72.6362 41.2026 72.5626C41.0407 72.5247 40.8782 72.493 40.7181 72.45L40.2429 72.2973C38.9693 71.924 37.78 71.2895 36.7234 70.5215C38.0129 70.8098 39.2208 71.1626 40.4743 71.3255L40.9368 71.4065L41.4037 71.4608L42.3339 71.5719C42.9583 71.6084 43.5772 71.6787 44.203 71.6813C45.4503 71.7221 46.7037 71.6984 47.9641 71.6058C49.2274 71.5184 50.4889 71.3693 51.7883 71.191Z" fill="#007577"/>
<path d="M60.5537 77.5513C59.4234 78.2318 58.159 78.6568 56.8746 78.9509C55.5854 79.2363 54.255 79.3529 52.9279 79.3106C52.2635 79.3037 51.6023 79.213 50.9444 79.1269C50.6174 79.0661 50.292 78.9961 49.9679 78.9225C49.8061 78.8846 49.6435 78.8529 49.4835 78.8098L49.0082 78.6571C47.7347 78.2839 46.5454 77.6493 45.4888 76.8813C46.7783 77.1697 47.9862 77.5225 49.2397 77.6858L49.7022 77.7667L50.1691 77.821L51.0993 77.9322C51.7237 77.9686 52.3426 78.039 52.9684 78.0415C54.2157 78.0823 55.4691 78.0583 56.7295 77.9661C57.9928 77.8786 59.2543 77.7299 60.5537 77.5513Z" fill="#007577"/>
<path d="M67.3558 86.1065C66.2255 86.7869 64.9611 87.2119 63.6767 87.5061C62.3875 87.7915 61.0571 87.9081 59.73 87.8658C59.0656 87.8589 58.4044 87.7681 57.7461 87.6821C57.4192 87.6213 57.0937 87.5513 56.7697 87.4776C56.6079 87.4397 56.4453 87.408 56.2853 87.365L55.81 87.2123C54.5365 86.8391 53.3472 86.2045 52.2905 85.4365C53.5801 85.7248 54.788 86.0777 56.0414 86.2406L56.504 86.3215L56.9709 86.3758L57.9011 86.487C58.5254 86.5234 59.1443 86.5938 59.7701 86.5963C61.0174 86.6371 62.2709 86.6134 63.5313 86.5209C64.7946 86.4338 66.0561 86.2847 67.3558 86.1065Z" fill="#007577"/>
<path d="M49.5625 62.2065C50.7573 62.7664 51.8143 63.5796 52.774 64.4828C53.7289 65.3947 54.5669 66.4346 55.2711 67.5601C55.6352 68.116 55.9279 68.7155 56.2235 69.31C56.3551 69.6154 56.4783 69.9249 56.5974 70.2347C56.6561 70.39 56.7203 70.5431 56.7738 70.7002L56.9116 71.1798C57.3107 72.4453 57.4463 73.7866 57.3968 75.0918C56.9182 73.8602 56.5384 72.6604 55.9756 71.5286L55.785 71.0993L55.57 70.6812L55.1442 69.8465C54.8268 69.3075 54.5403 68.7542 54.194 68.2333C53.5332 67.1748 52.8152 66.147 52.0366 65.1516C51.261 64.1514 50.4347 63.1866 49.5625 62.2065Z" fill="#007577"/>
<path d="M60.6118 68.2046C61.644 69.0265 62.4827 70.0635 63.2066 71.1646C63.9235 72.2733 64.4969 73.4794 64.9204 74.738C65.1457 75.3635 65.2911 76.0144 65.4402 76.661C65.4974 76.9887 65.5451 77.3182 65.5892 77.6473C65.61 77.8121 65.637 77.9757 65.6527 78.1408L65.6753 78.6394C65.7697 79.9629 65.5896 81.2991 65.2382 82.5573C65.0589 81.2484 64.9681 79.9932 64.6838 78.7616L64.5982 78.2997L64.4863 77.843L64.2662 76.9326C64.0824 76.3348 63.9326 75.7301 63.7165 75.1429C63.3196 73.9598 62.8603 72.7931 62.334 71.6442C61.8117 70.4906 61.2322 69.3604 60.6118 68.2046Z" fill="#007577"/>
</g>
<path d="M47.363 25.8359C49.7752 25.9785 52.675 27.3919 54.9848 28.2164C57.713 29.1899 60.4036 30.2805 62.9809 31.6068C68.0297 34.2053 72.6999 37.7863 75.763 42.568C81.0885 50.8819 81.1924 62.7124 77.1874 71.6186C76.8313 72.4107 64.4873 64.5866 63.7612 63.9539C58.372 59.2571 54.539 54.0438 52.4345 47.1088C51.2944 43.3517 50.6146 39.4786 49.9859 35.6096C49.6677 33.6527 49.5529 31.5168 49.0047 29.6102C48.6314 28.3126 48.1569 26.9374 47.363 25.8359Z" fill="#007577"/>
<path d="M47.363 25.8359C49.7752 25.9785 52.675 27.3919 54.9848 28.2164C57.713 29.1899 60.4036 30.2805 62.9809 31.6068C68.0297 34.2053 72.6999 37.7863 75.763 42.568C81.0885 50.8819 81.1924 62.7124 77.1874 71.6186C76.8313 72.4107 64.4873 64.5866 63.7612 63.9539C58.372 59.2571 54.539 54.0438 52.4345 47.1088C51.2944 43.3517 50.6146 39.4786 49.9859 35.6096C49.6677 33.6527 49.5529 31.5168 49.0047 29.6102C48.6314 28.3126 48.1569 26.9374 47.363 25.8359Z" fill="#007577"/>
<path opacity="0.2" d="M49.005 29.6102C49.5532 31.5168 49.668 33.6527 49.9862 35.6096C50.615 39.479 51.2947 43.352 52.4349 47.1088C54.5394 54.0442 58.3723 59.2575 63.7616 63.9539C64.4877 64.5866 76.8317 72.4107 77.1878 71.6186C77.1915 71.611 77.1944 71.6029 77.198 71.5953C77.1787 64.2801 72.8625 54.408 67.0416 43.8248C59.9626 30.954 47.363 25.8359 47.363 25.8359C48.1569 26.9374 48.6314 28.3126 49.005 29.6102Z" fill="#007577"/>
<g opacity="0.31">
<path d="M54.1917 29.7544C57.4625 31.7445 60.295 34.4045 62.8394 37.2686C65.3828 40.1477 67.5836 43.3198 69.5026 46.6487C69.9578 47.4943 70.3894 48.3526 70.8337 49.2037C71.0491 49.6327 71.2868 50.0511 71.4839 50.4885L72.0631 51.8069C72.4374 52.6908 72.8398 53.5626 73.1908 54.4549L74.1531 57.1663L74.6284 58.5225L75.0133 59.9076L75.767 62.6784C75.9015 63.1373 75.9868 63.6089 76.0783 64.0787L76.3516 65.4871C76.5321 66.426 76.7045 67.3653 76.871 68.3039C76.6068 67.3846 76.3484 66.4661 76.098 65.5469L75.7251 64.1684C75.6026 63.7088 75.4864 63.2477 75.3216 62.8001L74.4253 60.0927L73.985 58.7387L73.4624 57.4138L72.4269 54.7636C72.0598 53.8899 71.6418 53.0381 71.2525 52.1746L70.6657 50.8807C70.4681 50.4506 70.2301 50.0398 70.0147 49.6185C69.5704 48.7824 69.137 47.9404 68.6843 47.1094L67.2311 44.6699L66.867 44.0601L66.4693 43.4722L65.6773 42.2942C65.4112 41.9027 65.1616 41.4996 64.882 41.1176L64.0317 39.9804L63.1821 38.8414L62.2836 37.7414C59.8718 34.8244 57.2347 32.0616 54.1917 29.7544Z" fill="#007577"/>
<path d="M63.5771 34.4229C64.3859 34.9696 65.0693 35.6829 65.6631 36.456C66.2619 37.2287 66.7525 38.0874 67.14 38.9902C67.343 39.4382 67.4884 39.9102 67.6364 40.3785C67.6977 40.6169 67.7523 40.8575 67.8041 41.0977C67.8289 41.218 67.8588 41.3371 67.8795 41.4582L67.9229 41.8252C68.0756 42.7951 68.0173 43.7923 67.8332 44.7411C67.6251 43.7854 67.4808 42.8654 67.2041 41.9724C67.0915 41.5223 66.9202 41.0886 66.7857 40.6479C66.6151 40.2174 66.469 39.7801 66.2751 39.3598C65.9139 38.5095 65.5027 37.6781 65.0522 36.858C64.5941 36.0408 64.1038 35.2386 63.5771 34.4229Z" fill="#007577"/>
<path d="M65.0132 40.8707C64.0462 41.0037 63.0614 40.929 62.1031 40.75C61.1413 40.5747 60.2031 40.2631 59.3115 39.8494C58.8614 39.6511 58.4379 39.397 58.0151 39.1474C57.8102 39.011 57.609 38.8682 57.41 38.7242C57.3112 38.6513 57.2096 38.5828 57.1133 38.5062L56.836 38.262C56.0745 37.642 55.452 36.8609 54.9556 36.0317C55.7483 36.6043 56.4704 37.1926 57.2726 37.6727C57.6571 37.9325 58.0741 38.1414 58.4685 38.3794C58.8829 38.5857 59.2835 38.8139 59.7088 38.9976C60.5453 39.3894 61.4066 39.7338 62.2898 40.0433C63.1758 40.3454 64.0765 40.6151 65.0132 40.8707Z" fill="#007577"/>
<path d="M69.1284 47.75C68.1614 47.8831 67.1766 47.8084 66.218 47.6294C65.2561 47.4541 64.3179 47.1424 63.4268 46.7288C62.9766 46.5305 62.5531 46.2764 62.1303 46.0268C61.9255 45.8904 61.7243 45.7476 61.5252 45.6036C61.4265 45.5307 61.3244 45.4622 61.2286 45.3856L60.9512 45.1414C60.1898 44.5214 59.5672 43.7403 59.0708 42.9111C59.8636 43.4837 60.5856 44.072 61.3878 44.552C61.7724 44.8119 62.1893 45.0208 62.5833 45.2588C62.9978 45.4651 63.3987 45.6932 63.8237 45.877C64.6602 46.2688 65.5215 46.6132 66.4046 46.9227C67.2907 47.2248 68.1917 47.4945 69.1284 47.75Z" fill="#007577"/>
<path d="M73.243 54.6286C72.2761 54.7616 71.2912 54.6869 70.333 54.5079C69.3711 54.3326 68.4329 54.021 67.5414 53.6077C67.0913 53.4094 66.6677 53.1553 66.2449 52.9057C66.0401 52.7693 65.8389 52.6265 65.6399 52.4825C65.5411 52.4096 65.4394 52.3411 65.3432 52.2645L65.0658 52.0203C64.3044 51.4003 63.6819 50.6192 63.1858 49.79C63.9785 50.3626 64.7006 50.9509 65.5028 51.431C65.8874 51.6908 66.3043 51.8997 66.6987 52.1377C67.1131 52.344 67.5137 52.5722 67.9387 52.7559C68.7752 53.1477 69.6365 53.4921 70.5196 53.8016C71.4057 54.1034 72.3063 54.3731 73.243 54.6286Z" fill="#007577"/>
<path d="M75.3828 62.4297C74.4158 62.5628 73.431 62.488 72.4728 62.3091C71.5109 62.1338 70.5727 61.8221 69.6812 61.4084C69.231 61.2102 68.8075 60.9561 68.3847 60.7064C68.1798 60.5698 67.9786 60.4272 67.7796 60.2833C67.6805 60.2104 67.5788 60.1419 67.4826 60.0653L67.2052 59.8211C66.4438 59.2011 65.8213 58.42 65.3252 57.5908C66.118 58.1634 66.84 58.7517 67.6422 59.2317C68.0268 59.4916 68.4437 59.7005 68.8381 59.9385C69.2525 60.1448 69.6531 60.3729 70.0785 60.5566C70.9149 60.9485 71.7762 61.2929 72.6594 61.6023C73.5454 61.9045 74.4461 62.1742 75.3828 62.4297Z" fill="#007577"/>
<path d="M70.2271 40.9878C70.8762 41.7168 71.3628 42.5766 71.7477 43.4721C72.1377 44.3688 72.4016 45.3215 72.5547 46.2922C72.6407 46.7766 72.6655 47.2697 72.6935 47.7603C72.6943 48.0063 72.6881 48.2531 72.6789 48.4984C72.6735 48.6212 72.6731 48.7437 72.6633 48.8662L72.6152 49.2325C72.5244 50.21 72.2222 51.162 71.81 52.0361C71.8439 51.0589 71.9303 50.1316 71.8822 49.1978C71.884 48.7338 71.825 48.2713 71.8031 47.811C71.7437 47.3517 71.7098 46.8921 71.6256 46.4369C71.4853 45.5238 71.2913 44.6166 71.0566 43.7109C70.8142 42.8062 70.5369 41.9081 70.2271 40.9878Z" fill="#007577"/>
<path d="M76.0021 48.2842C76.4639 49.144 76.7376 50.0931 76.9038 51.0539C77.0751 52.0165 77.1101 53.0046 77.0332 53.984C77.0044 54.475 76.914 54.9605 76.8273 55.4441C76.7708 55.6836 76.7074 55.922 76.6418 56.1589C76.6079 56.277 76.5791 56.3962 76.5412 56.5132L76.4092 56.8583C76.0936 57.7881 75.5786 58.644 74.9746 59.3984C75.2345 58.4555 75.5341 57.5738 75.7043 56.6546C75.8136 56.2037 75.8639 55.7401 75.9496 55.2874C75.9984 54.8271 76.0724 54.3718 76.0965 53.9097C76.1719 52.989 76.1945 52.0617 76.1767 51.1261C76.1508 50.1894 76.0896 49.2512 76.0021 48.2842Z" fill="#007577"/>
</g>
<path d="M22.3101 94.8623C26.2943 92.8908 32.4318 92.3514 36.9934 91.477C42.3812 90.4444 47.8357 89.6181 53.3672 89.242C64.2026 88.5053 75.5035 89.5598 85.5552 93.8374C103.033 101.275 116.039 118.619 119.347 135.369C119.642 136.858 91.554 136.491 89.7148 136.215C76.0619 134.167 64.3189 129.95 53.4503 121.631C47.5624 117.124 42.2802 112.03 37.0823 106.895C34.4533 104.299 31.9529 101.254 29.0129 98.9398C27.0119 97.3656 24.7652 95.7677 22.3101 94.8623Z" fill="#007577"/>
<path d="M22.3101 94.8623C26.2943 92.8908 32.4318 92.3514 36.9934 91.477C42.3812 90.4444 47.8357 89.6181 53.3672 89.242C64.2026 88.5053 75.5035 89.5598 85.5552 93.8374C103.033 101.275 116.039 118.619 119.347 135.369C119.642 136.858 91.554 136.491 89.7148 136.215C76.0619 134.167 64.3189 129.95 53.4503 121.631C47.5624 117.124 42.2802 112.03 37.0823 106.895C34.4533 104.299 31.9529 101.254 29.0129 98.9398C27.0119 97.3656 24.7652 95.7677 22.3101 94.8623Z" fill="#007577"/>
<path opacity="0.2" d="M29.0131 98.9405C31.9526 101.255 34.4534 104.299 37.0824 106.896C42.2803 112.031 47.5628 117.125 53.4504 121.631C64.319 129.95 76.062 134.167 89.7149 136.215C91.5541 136.491 119.642 136.859 119.348 135.369C119.345 135.355 119.341 135.34 119.338 135.326C111.368 124.561 93.8011 113.913 73.0736 103.579C47.8661 91.01 22.3098 94.8626 22.3098 94.8626C24.7654 95.768 27.012 97.3659 29.0131 98.9405Z" fill="#007577"/>
<g opacity="0.31">
<path d="M37.4028 94.4613C39.2293 94.4135 41.0597 94.5072 42.8829 94.6595C44.7078 94.8061 46.5241 95.0441 48.3363 95.3123C51.956 95.8773 55.5502 96.6325 59.0915 97.5889C62.6395 98.5242 66.1254 99.6854 69.5654 100.963C70.4311 101.268 71.28 101.616 72.1296 101.963C72.9799 102.308 73.8335 102.645 74.6708 103.021C75.5105 103.39 76.3561 103.748 77.1915 104.127L79.6854 105.293C86.2771 108.519 92.6333 112.239 98.5697 116.541C104.521 120.816 110.127 125.562 115.248 130.77C109.644 126.088 103.851 121.673 97.8098 117.641L96.6799 116.881L95.5281 116.155L93.2355 114.688L90.9046 113.284L89.7386 112.584L88.5551 111.914L86.1918 110.568L83.7949 109.284C83.0004 108.847 82.1897 108.442 81.3784 108.039C80.5652 107.639 79.7644 107.214 78.9411 106.835C75.6884 105.235 72.3534 103.809 68.9852 102.472C65.6199 101.124 62.1893 99.9442 58.7249 98.8686C55.2546 97.8138 51.7413 96.8884 48.1865 96.135C46.4111 95.7486 44.6233 95.4137 42.8264 95.1279C41.0287 94.8465 39.2234 94.5936 37.4028 94.4613Z" fill="#007577"/>
<path d="M57.3696 92.854C59.2168 92.8996 61.0334 93.31 62.787 93.8797C64.5391 94.4625 66.2277 95.2516 67.8143 96.216C68.2043 96.4682 68.6078 96.6986 68.9851 96.9712L70.1055 97.8015C70.4747 98.0829 70.8166 98.4026 71.165 98.7091L71.6834 99.1742C71.8517 99.3338 72.0059 99.5106 72.1674 99.6775C72.4856 100.017 72.799 100.359 73.1067 100.704C73.391 101.074 73.6676 101.447 73.9392 101.821L74.3357 102.388C74.4524 102.589 74.573 102.786 74.6823 102.991C74.9072 103.396 75.127 103.8 75.3253 104.212C74.971 103.91 74.6382 103.598 74.3106 103.287C74.1436 103.134 73.9876 102.973 73.8283 102.816L73.3111 102.381C72.9707 102.089 72.6372 101.795 72.3088 101.499C71.9549 101.228 71.6068 100.954 71.2635 100.677C70.9281 100.391 70.5684 100.135 70.209 99.8791C69.8456 99.6291 69.5099 99.3459 69.1389 99.1082L68.0418 98.3763C67.6813 98.1256 67.2938 97.9131 66.9224 97.6783C65.4204 96.7631 63.8728 95.9124 62.2782 95.1222C60.6813 94.3309 59.0543 93.5906 57.3696 92.854Z" fill="#007577"/>
<path d="M66.648 101.059C65.1693 102.176 63.4726 102.971 61.7271 103.584C59.9764 104.195 58.1452 104.588 56.2926 104.769C55.3682 104.884 54.4326 104.879 53.5028 104.893C53.037 104.866 52.5715 104.845 52.1075 104.809C51.8757 104.787 51.6432 104.786 51.4128 104.748L50.7221 104.642C48.8793 104.398 47.0886 103.812 45.4294 103.023C47.2818 103.124 49.0488 103.324 50.8318 103.299C51.7172 103.339 52.6036 103.269 53.4838 103.268L54.8047 103.179C55.2454 103.166 55.6839 103.113 56.1224 103.064C57.8774 102.895 59.6287 102.638 61.3753 102.288C63.1263 101.948 64.8667 101.534 66.648 101.059Z" fill="#007577"/>
<path d="M80.646 107.477C79.1677 108.594 77.4706 109.389 75.7251 110.001C73.9745 110.613 72.1433 111.005 70.2906 111.187C69.3663 111.301 68.4306 111.296 67.5008 111.31C67.035 111.283 66.5696 111.262 66.1056 111.226C65.8738 111.205 65.6416 111.204 65.4109 111.166L64.7202 111.06C62.8773 110.816 61.0866 110.229 59.4275 109.441C61.2798 109.541 63.0468 109.741 64.8299 109.717C65.7152 109.757 66.6017 109.687 67.4823 109.685L68.8032 109.596C69.2438 109.584 69.6823 109.53 70.1208 109.482C71.8758 109.312 73.6271 109.055 75.3737 108.706C77.1244 108.365 78.8651 107.951 80.646 107.477Z" fill="#007577"/>
<path d="M94.6441 113.894C93.1657 115.011 91.4687 115.806 89.7231 116.418C87.9725 117.03 86.1413 117.422 84.2887 117.604C83.3643 117.718 82.4287 117.713 81.4989 117.727C81.0331 117.7 80.5676 117.679 80.1036 117.643C79.8718 117.622 79.6393 117.621 79.4089 117.583L78.7182 117.477C76.8754 117.233 75.0847 116.647 73.4255 115.858C75.2779 115.958 77.0449 116.159 78.8279 116.134C79.7133 116.174 80.5997 116.104 81.4803 116.102L82.8012 116.014C83.2419 116.001 83.6803 115.947 84.1188 115.899C85.8738 115.729 87.6252 115.472 89.3718 115.123C91.1224 114.782 92.8632 114.368 94.6441 113.894Z" fill="#007577"/>
<path d="M106.509 123.457C105.031 124.574 103.334 125.369 101.588 125.982C99.8375 126.593 98.0063 126.986 96.1537 127.167C95.2293 127.282 94.2937 127.276 93.3639 127.291C92.8981 127.264 92.4326 127.243 91.9686 127.206C91.7368 127.185 91.5046 127.184 91.2739 127.146L90.5832 127.041C88.7404 126.796 86.9497 126.21 85.2905 125.422C87.1428 125.522 88.9099 125.722 90.6929 125.698C91.5783 125.738 92.4647 125.668 93.3449 125.665L94.6658 125.577C95.1065 125.564 95.545 125.511 95.9834 125.462C97.7384 125.293 99.4898 125.035 101.236 124.686C102.987 124.346 104.728 123.932 106.509 123.457Z" fill="#007577"/>
<path d="M75.0518 96.5146C76.8093 96.9498 78.4579 97.7328 80.0099 98.6578C81.5578 99.5956 82.9986 100.72 84.2984 101.996C85.6116 103.258 86.735 104.725 87.6571 106.295C87.8798 106.694 88.0967 107.095 88.3074 107.496C88.4925 107.914 88.662 108.337 88.8304 108.758L89.0706 109.393C89.1318 109.612 89.1971 109.829 89.2499 110.051C89.3629 110.49 89.4712 110.928 89.5561 111.369C89.2922 110.995 89.0517 110.619 88.8162 110.244C88.6948 110.059 88.5858 109.869 88.4728 109.682L88.0839 109.147L87.3408 108.074C87.0681 107.734 86.8017 107.393 86.5407 107.05C85.4651 105.702 84.3352 104.411 83.0956 103.216C81.8698 102.011 80.5832 100.859 79.2368 99.7557C77.8889 98.6509 76.4988 97.5881 75.0518 96.5146Z" fill="#007577"/>
<path d="M92.1384 102.046C93.7298 102.819 95.1407 103.912 96.4244 105.125C97.7016 106.349 98.8318 107.735 99.7864 109.239C100.758 110.732 101.49 112.387 101.998 114.095C102.115 114.526 102.227 114.958 102.332 115.388C102.407 115.829 102.466 116.272 102.523 116.711L102.597 117.37C102.601 117.593 102.61 117.814 102.605 118.037C102.604 118.48 102.598 118.921 102.57 119.358C102.409 118.941 102.27 118.527 102.137 118.117C102.066 117.912 102.009 117.707 101.947 117.503L101.705 116.905L101.254 115.716C101.075 115.331 100.901 114.947 100.734 114.562C100.026 113.039 99.2495 111.561 98.3376 110.154C97.4421 108.74 96.4714 107.366 95.4294 106.027C94.3862 104.686 93.2902 103.377 92.1384 102.046Z" fill="#007577"/>
</g>
<path d="M135.436 111.807H110.769V132.278H135.436V111.807Z" fill="#E6E8E8"/>
<path d="M179.137 118.793H67.0679C64.6113 118.793 62.6201 116.802 62.6201 114.345V45.7182C62.6201 43.2616 64.6117 41.27 67.0679 41.27H179.137C181.594 41.27 183.585 43.2616 183.585 45.7182V114.345C183.586 116.802 181.594 118.793 179.137 118.793Z" fill="#FBFFFF"/>
<path d="M177.97 42.8228H68.4167C66.0154 42.8228 64.0684 44.7695 64.0684 47.1711V107.391H182.318V47.1711C182.318 44.7695 180.371 42.8228 177.97 42.8228Z" fill="#00499B"/>
<path d="M150.703 136.781H93.6736V137.08C93.6736 133.635 96.4659 130.843 99.9107 130.843H144.466C147.911 130.843 150.703 133.635 150.703 137.08V136.781H150.703Z" fill="#FBFFFF"/>
<path d="M135.436 118.794H110.769V122.818H135.436V118.794Z" fill="#E5E5E5"/>
<path opacity="0.47" d="M62.6194 114.345V45.7182C62.6194 43.2616 64.6109 41.27 67.0672 41.27H179.137C181.594 41.2704 62.6194 114.345 62.6194 114.345Z" fill="#00499B"/>
<path d="M98.7884 48.4345H76.0798C75.1817 48.4345 74.4539 47.7066 74.4539 46.8085V19.4517C74.4539 18.5536 75.1817 17.8257 76.0798 17.8257H98.7884C99.6865 17.8257 100.414 18.5536 100.414 19.4517V46.8085C100.414 47.7066 99.6865 48.4345 98.7884 48.4345Z" fill="#B6E6DC"/>
<path d="M97.0269 22.1103H78.4293C77.876 22.1103 77.427 21.6616 77.427 21.1083C77.427 20.5546 77.8757 20.106 78.4293 20.106H97.0269C97.5805 20.106 98.0288 20.5546 98.0288 21.1083C98.0292 21.6616 97.5805 22.1103 97.0269 22.1103Z" fill="#00CCD4"/>
<path d="M97.6856 24.5058H77.7712C77.5813 24.5058 77.4275 24.352 77.4275 24.1621C77.4275 23.9722 77.5813 23.8184 77.7712 23.8184H97.6856C97.8755 23.8184 98.0293 23.9722 98.0293 24.1621C98.0293 24.352 97.8755 24.5058 97.6856 24.5058Z" fill="#007577"/>
<path d="M95.3 26.267H77.7712C77.5813 26.267 77.4275 26.1132 77.4275 25.9233C77.4275 25.7334 77.5813 25.5796 77.7712 25.5796H95.3C95.4899 25.5796 95.6438 25.7334 95.6438 25.9233C95.6438 26.1128 95.4899 26.267 95.3 26.267Z" fill="#007577"/>
<path d="M97.2045 28.0273H77.7712C77.5813 28.0273 77.4275 27.8735 77.4275 27.6836C77.4275 27.4937 77.5813 27.3398 77.7712 27.3398H97.2045C97.3944 27.3398 97.5482 27.4937 97.5482 27.6836C97.5482 27.8735 97.3944 28.0273 97.2045 28.0273Z" fill="#007577"/>
<path d="M94.5594 29.788H77.7712C77.5813 29.788 77.4275 29.6342 77.4275 29.4443C77.4275 29.2544 77.5813 29.1006 77.7712 29.1006H94.5594C94.7493 29.1006 94.9031 29.2544 94.9031 29.4443C94.9031 29.6342 94.7493 29.788 94.5594 29.788Z" fill="#007577"/>
<path d="M93.5975 31.5492H77.7712C77.5813 31.5492 77.4275 31.3954 77.4275 31.2055C77.4275 31.0156 77.5813 30.8618 77.7712 30.8618H93.5975C93.7874 30.8618 93.9412 31.0156 93.9412 31.2055C93.9412 31.3951 93.7874 31.5492 93.5975 31.5492Z" fill="#007577"/>
<path d="M96.7236 33.3095H77.7715C77.5816 33.3095 77.4277 33.1557 77.4277 32.9658C77.4277 32.7759 77.5816 32.6221 77.7715 32.6221H96.7236C96.9135 32.6221 97.0673 32.7759 97.0673 32.9658C97.0673 33.1553 96.9135 33.3095 96.7236 33.3095Z" fill="#007577"/>
<path d="M93.5975 35.0702H77.7712C77.5813 35.0702 77.4275 34.9164 77.4275 34.7265C77.4275 34.5366 77.5813 34.3828 77.7712 34.3828H93.5975C93.7874 34.3828 93.9412 34.5366 93.9412 34.7265C93.9412 34.9164 93.7874 35.0702 93.5975 35.0702Z" fill="#007577"/>
<path d="M96.9642 36.831H77.7715C77.5816 36.831 77.4277 36.6772 77.4277 36.4873C77.4277 36.2974 77.5816 36.1436 77.7715 36.1436H96.9642C97.1541 36.1436 97.3079 36.2974 97.3079 36.4873C97.3079 36.6772 97.1537 36.831 96.9642 36.831Z" fill="#007577"/>
<path d="M93.5975 38.5917H77.7712C77.5813 38.5917 77.4275 38.4379 77.4275 38.248C77.4275 38.0581 77.5813 37.9043 77.7712 37.9043H93.5975C93.7874 37.9043 93.9412 38.0581 93.9412 38.248C93.9412 38.4375 93.7874 38.5917 93.5975 38.5917Z" fill="#007577"/>
<path d="M96.4832 40.352H77.7712C77.5813 40.352 77.4275 40.1982 77.4275 40.0083C77.4275 39.8184 77.5813 39.6646 77.7712 39.6646H96.4832C96.6731 39.6646 96.8269 39.8184 96.8269 40.0083C96.8269 40.1982 96.6731 40.352 96.4832 40.352Z" fill="#007577"/>
<path d="M97.2045 42.1132H77.7712C77.5813 42.1132 77.4275 41.9594 77.4275 41.7695C77.4275 41.5796 77.5813 41.4258 77.7712 41.4258H97.2045C97.3944 41.4258 97.5482 41.5796 97.5482 41.7695C97.5482 41.9594 97.3944 42.1132 97.2045 42.1132Z" fill="#007577"/>
<path d="M97.445 43.8739H77.7712C77.5813 43.8739 77.4275 43.7201 77.4275 43.5302C77.4275 43.3403 77.5813 43.1865 77.7712 43.1865H97.445C97.6349 43.1865 97.7887 43.3403 97.7887 43.5302C97.7887 43.7201 97.6349 43.8739 97.445 43.8739Z" fill="#007577"/>
<path d="M96.1056 44.9468H77.4275V45.6346H96.1056V44.9468Z" fill="#007577"/>
<path d="M108.997 84.2451C109.197 83.5187 109.331 82.7897 109.409 82.064L115.764 81.1958L113.209 71.3893L112.299 70.571L107.398 73.4086C106.487 71.9601 105.301 70.6815 103.891 69.6562L106.316 63.7209L105.406 62.9026L96.546 61.0303L95.3899 67.0694C93.6433 67.1354 91.9477 67.5389 90.3877 68.234L83.8976 74.3034C83.4486 75.1559 83.0816 76.0675 82.8151 77.0345C82.615 77.7609 82.4809 78.4899 82.4032 79.2156L77.6934 89.072L78.6035 89.8902L84.4145 87.871C85.3253 89.3195 86.511 90.5981 87.9205 91.623L84.5858 96.74L85.4959 97.5583L95.2659 100.249L96.4221 94.2101C98.1687 94.1442 99.8158 93.9164 101.376 93.2216L105.129 98.2421L112.568 90.999L107.914 86.9766C108.363 86.1237 108.73 85.2121 108.997 84.2451ZM93.8208 88.2118C89.639 87.06 87.1824 82.7361 88.3342 78.5544C89.4859 74.3726 93.8098 71.916 97.9916 73.0678C102.173 74.2196 104.63 78.5434 103.478 82.7256C102.326 86.9069 98.0025 89.3636 93.8208 88.2118Z" fill="#00BCBC"/>
<path d="M108.087 83.4272C108.287 82.7008 108.421 81.9718 108.499 81.2461L114.854 80.3779L112.299 70.5714L106.488 72.5907C105.577 71.1422 104.391 69.8636 102.982 68.8387L105.407 62.903L95.6367 60.2124L94.4806 66.2516C92.734 66.3175 91.0384 66.721 89.4784 67.4161L85.5496 62.3472L78.3342 69.463L82.9884 73.4855C82.5393 74.338 82.1723 75.2496 81.9058 76.2166C81.7057 76.943 81.5716 77.672 81.494 78.3977L75.1392 79.2659L77.6938 89.0724L83.5048 87.0531C84.4157 88.5016 85.6014 89.7802 87.0108 90.8055L84.5859 96.7408L94.3559 99.4318L95.5121 93.3926C97.2587 93.3267 98.9543 92.9232 100.514 92.2281L104.443 97.297L111.658 90.1811L107.004 86.1587C107.453 85.3058 107.821 84.3942 108.087 83.4272ZM92.5641 88.6518C87.6873 87.3086 84.8228 82.2663 86.166 77.3899C87.5091 72.5131 92.5514 69.6486 97.4282 70.9917C102.305 72.3348 105.169 77.3771 103.826 82.2539C102.483 87.1304 97.4409 89.9949 92.5641 88.6518Z" fill="#00CCD4"/>
<path d="M47.3228 103.514L69.5414 104.133" stroke="#080022" stroke-width="1.36576" stroke-miterlimit="10" stroke-linecap="round" stroke-linejoin="round"/>
<path d="M70.1443 88.1074L72.5645 89.8544C72.5645 89.8544 72.7288 91.1509 71.3544 93.4541C69.9799 95.7572 64.9412 105.487 65.4041 106.721C65.867 107.954 70.519 108.917 70.9669 110.07C71.5056 111.457 62.0155 110.691 61.1783 109.876C60.2682 108.989 62.0618 106.533 62.0618 106.533C62.0618 106.533 61.7622 98.5536 62.4944 94.9346C63.195 91.4716 66.807 88.9297 66.807 88.9297L70.1443 88.1074Z" fill="#FCB29A"/>
<path d="M66.2851 107.533C64.3996 108.186 62.0622 106.533 62.0622 106.533C62.0622 106.533 60.2682 108.989 61.1787 109.876C62.0159 110.691 71.506 111.457 70.9673 110.07C70.6218 109.181 67.7828 108.406 66.2851 107.533Z" fill="#FF6931"/>
<path d="M34.0205 141.066L50.2449 94.7686L63.7013 141.328" stroke="#080022" stroke-width="1.36576" stroke-miterlimit="10" stroke-linecap="round" stroke-linejoin="round"/>
<path d="M44.373 110.525L66.5914 111.145" stroke="#080022" stroke-width="1.36576" stroke-miterlimit="10" stroke-linecap="round" stroke-linejoin="round"/>
<path d="M61.0439 83.9249L57.4245 96.593L52.067 112.229C51.7466 113.164 52.165 114.193 53.0489 114.634C54.704 115.461 57.098 116.755 57.1515 117.342C57.2335 118.24 47.7719 117.838 47.1665 116.936C46.5501 116.018 48.0919 114.06 48.0919 114.06C48.0919 114.06 47.6924 101.902 48.4914 98.9056C49.2903 95.9092 50.9903 94.3397 50.9524 92.0781C50.9148 89.8168 49.9912 82.2264 50.9524 80.3285C51.9135 78.4317 61.0439 83.9249 61.0439 83.9249Z" fill="#FCB29A"/>
<path d="M53.1587 110.152L57.4246 96.5929L61.044 83.9244C61.044 83.9244 51.9136 78.4313 50.9525 80.3288C49.9913 82.2263 50.9149 89.8171 50.9525 92.0784C50.99 94.3396 49.2904 95.9095 48.4914 98.9055C47.9968 100.761 47.6885 106.025 47.7333 109.764C49.8415 109.593 52.0944 109.879 53.1587 110.152Z" fill="#008EBA"/>
<path opacity="0.2" d="M53.1587 110.152L57.4246 96.5929L61.044 83.9244C61.044 83.9244 51.9136 78.4313 50.9525 80.3288C49.9913 82.2263 50.9149 89.8171 50.9525 92.0784C50.99 94.3396 49.2904 95.9095 48.4914 98.9055C47.9968 100.761 47.6885 106.025 47.7333 109.764C49.8415 109.593 52.0944 109.879 53.1587 110.152Z" fill="#008EBA"/>
<path opacity="0.1" d="M58.9104 86.4956C55.7007 85.9037 53.5156 83.2407 53.5156 83.2407C53.5156 83.2407 55.4776 92.9047 55.6825 95.4539C55.8873 98.0031 53.6942 108.793 53.6942 108.793L57.4244 96.5933L60.3034 87.0744C60.3034 87.0744 59.2811 86.5641 58.9104 86.4956Z" fill="#008EBA"/>
<path d="M53.1874 114.704C50.5438 115.344 48.0919 114.061 48.0919 114.061C48.0919 114.061 46.5501 116.019 47.1665 116.937C47.7715 117.838 57.2335 118.241 57.1515 117.342C57.0994 116.772 54.8341 115.533 53.1874 114.704Z" fill="#FF6931"/>
<path d="M72.5645 89.8541L72.5634 89.8533C72.5925 89.5078 72.5357 89.1193 72.3651 88.683C71.049 85.3104 64.603 80.833 64.603 80.833L63.07 79.8814C63.07 79.8814 50.2973 77.0158 50.9782 81.691C51.659 86.3663 61.3423 89.4232 63.07 89.8344C63.8157 90.0119 64.4962 90.1923 65.1191 90.4161C64.0767 91.4932 62.8688 93.0816 62.4941 94.9343C62.1763 96.5052 62.0531 98.8973 62.0152 101.102C64.3741 100.859 66.229 101.045 67.3378 101.234C68.7782 98.1508 70.6068 94.7054 71.354 93.4537C72.7289 91.1505 72.5645 89.8541 72.5645 89.8541Z" fill="#008EBA"/>
<path opacity="0.1" d="M65.4952 89.5573C65.4952 89.5573 59.1149 87.0194 56.554 83.2407C55.3363 81.4435 55.4817 79.7559 55.6063 79.0142C52.9532 79.0455 50.6807 79.648 50.9785 81.6917C51.6593 86.3669 61.3426 89.4239 63.0703 89.835C63.816 90.0125 64.4692 90.1929 65.0921 90.4167C65.9577 89.7224 68.4534 89.8645 68.4534 89.8645C67.8899 89.1476 65.4952 89.5573 65.4952 89.5573Z" fill="#008EBA"/>
<path d="M57.3043 57.0398C57.613 59.3397 55.7009 61.8667 55.7009 61.8667C55.7009 61.8667 58.003 65.1445 60.8128 64.53C60.8128 64.53 60.7261 60.8425 61.9551 59.0671C63.1842 57.2913 57.1355 55.7827 57.3043 57.0398Z" fill="#FCB29A"/>
<path d="M68.5503 58.6426C66.8256 60.3718 68.0149 58.1433 68.2999 57.6323C69.2363 55.9524 69.1663 54.4026 68.9925 54.1095C68.7162 53.6445 68.7563 52.3057 68.823 51.7068C68.8427 51.5301 68.9002 51.1091 68.7519 50.7595C68.6247 50.4592 68.7045 50.1906 68.9495 50.4311C69.1944 50.6713 69.2567 50.8948 69.3212 51.4397C69.3526 51.7043 69.3956 51.7349 69.4601 51.7397C69.5738 51.7484 69.6653 51.159 69.673 50.4537C69.681 49.7259 69.7036 49.3042 69.8712 49.1041C70.001 48.9491 70.1096 48.8285 70.1344 49.306C70.1592 49.7835 69.9551 50.7468 70.1446 50.8499C70.3341 50.9527 70.3786 50.2132 70.3713 49.7769C70.364 49.3406 70.1949 48.8208 70.4402 48.7607C70.6082 48.7195 70.7383 48.8908 70.801 49.4649C70.8637 50.0386 70.5743 51.0045 70.742 51.0376C70.9097 51.0708 71.0143 50.0043 70.9949 49.7346C70.9749 49.4558 71.1688 49.3297 71.3073 49.79C71.4458 50.2504 71.3088 50.5882 71.2337 51.0952C71.1586 51.6022 71.0234 51.8293 71.1444 51.896C71.2625 51.9609 71.4046 51.6952 71.4159 51.2279C71.4272 50.7606 71.4254 50.3451 71.6102 50.4924C71.795 50.6396 71.904 51.2286 71.7465 52.0393C71.5891 52.8502 71.4148 53.9175 70.8364 54.3978C70.8364 54.3978 70.8492 54.996 70.8003 57.6319C70.6822 63.9426 69.42 59.423 68.5503 58.6426Z" fill="#F9AF9A"/>
<path d="M56.2233 61.0555C56.2233 61.0555 57.0102 64.1358 61.4333 63.8198C61.4333 63.8198 62.0729 68.8194 62.3449 72.9819C62.5559 76.2134 63.013 79.8535 63.013 79.8535C63.013 79.8535 59.6207 81.4387 57.3263 80.8012C54.4829 80.0113 52.0346 80.6433 50.6128 81.6701C49.1913 82.6969 49.6221 76.5363 50.412 72.9822C51.2014 69.4278 55.5188 59.8524 56.2233 61.0555Z" fill="#FCBA00"/>
<path opacity="0.43" d="M61.9069 67.4863L58.4319 70.8265C58.4319 70.8265 59.5702 73.3917 62.4773 74.1353L61.9069 67.4863Z" fill="#FCBA00"/>
<path d="M56.4408 67.9456C56.4408 67.9456 56.5246 72.3187 62.1628 70.735C64.2346 70.1529 67.9837 68.0097 70.1163 65.0082C70.1163 65.0082 71.7827 61.355 70.9779 54.7621L68.7473 54.2847C68.7473 54.2847 66.943 60.6792 66.3114 61.6272C65.6794 62.5749 61.0107 64.3915 58.0882 63.9968C55.1662 63.6016 56.4408 67.9456 56.4408 67.9456Z" fill="#FCBA00"/>
<path d="M59.2452 51.8581C61.2845 50.9422 63.9036 51.9048 64.1183 54.8662C64.1223 54.9209 64.3232 55.8667 64.9701 56.0187C65.1054 56.0504 65.1757 56.1937 65.1269 56.322C65.047 56.5323 64.9822 56.7685 64.5761 56.9347C64.5827 59.3177 63.3074 60.6477 62.2554 60.8795C60.0831 61.3584 58.1911 59.3702 57.3261 57.3444C56.2604 54.848 57.3655 52.7023 59.2452 51.8581Z" fill="#FCB29A"/>
<path opacity="0.35" d="M59.2452 51.858C59.8769 51.5744 61.5487 51.1782 62.2311 51.8412C60.6277 52.7863 59.8349 55.1988 60.2074 57.4834C60.3226 58.1905 60.7359 60.653 61.872 60.9377C59.8619 61.121 58.1394 59.2501 57.3255 57.3442C56.2604 54.8478 57.3655 52.7021 59.2452 51.858Z" fill="#FCB29A"/>
<path d="M61.915 53.3082C63.2807 53.3993 64.2368 52.5457 64.2368 51.9881C64.2368 51.1687 63.5198 49.8824 61.026 50.5312C59.3377 50.9704 59.3345 51.437 58.3638 51.5255C56.9099 51.6582 55.581 52.5457 54.8469 54.4921C54.2211 56.1512 53.1739 64.9743 46.9255 65.9304C46.9255 65.9304 49.2418 70.653 53.9594 70.4372C59.9348 70.1639 60.3102 61.6622 59.5706 58.7598C58.6139 55.0064 60.5493 53.2171 61.915 53.3082Z" fill="#080022"/>
<path d="M56.0735 142.158L72.2975 95.8608L85.7543 141.328" stroke="#080022" stroke-width="1.36576" stroke-miterlimit="10" stroke-linecap="round" stroke-linejoin="round"/>
<path d="M42.4062 117.538L64.6246 118.157" stroke="#080022" stroke-width="1.36576" stroke-miterlimit="10" stroke-linecap="round" stroke-linejoin="round"/>
<path d="M39.5544 125.406L61.7731 126.025" stroke="#080022" stroke-width="1.36576" stroke-miterlimit="10" stroke-linecap="round" stroke-linejoin="round"/>
<path d="M36.2395 133.772L58.4578 134.392" stroke="#080022" stroke-width="1.36576" stroke-miterlimit="10" stroke-linecap="round" stroke-linejoin="round"/>
<path d="M137.824 54.0365C139.182 55.8808 140.324 56.457 140.35 57.5089C140.374 58.4278 135.175 62.2287 133.951 62.611C132.218 63.1526 134.523 59.5052 135.646 57.9255C135.932 57.5239 136.159 56.4621 135.969 56.0073L135.259 55.591C135.259 55.591 137.318 53.3483 137.824 54.0365Z" fill="#080022"/>
<path d="M117.617 14.2518C117.365 14.1155 118.326 13.6788 118.4 13.5538C118.897 12.7261 119.553 11.8222 120.546 11.5841C121.751 11.2951 122.786 12.2162 123.972 12.1473C124.634 12.1086 125.254 11.7401 125.917 11.7595C126.626 11.7799 127.087 12.2785 127.631 12.6583C128.36 13.1675 129.051 12.9561 129.881 12.9123C130.531 12.8781 131.192 13.0461 131.746 13.388C132.411 13.7973 132.978 14.387 133.752 14.5912C134.592 14.8128 135.509 14.6043 136.326 14.9323C138.807 15.9285 138.99 20.8957 136.047 21.3987C134.033 21.7427 133.595 24.1622 132.144 23.2852C130.694 22.4083 130.39 20.8093 129.324 21.3549C128.257 21.9002 126.711 20.9409 126.12 19.2693C125.529 17.5978 124.13 16.5659 122.804 16.4522C121.48 16.3392 117.625 14.2558 117.617 14.2518Z" fill="#080022"/>
<path d="M123.036 15.9438H125.337C125.337 15.9438 126.41 17.9143 129.824 18.75C131.878 19.253 126.889 23.1957 126.889 23.1957L125.013 20.4361L123.036 15.9438Z" fill="#FCB29A"/>
<path d="M147.202 31.4587C148.599 31.7146 149.431 32.8445 150.396 33.8865C151.264 34.824 151.612 38.6883 149.677 40.4848C147.527 42.4829 135.191 41.1883 135.191 41.1883C135.191 41.1883 137.648 42.1341 138.182 46.8466C138.715 51.559 139.426 55.2935 139.426 55.2935L135.247 57.0718C135.247 57.0718 126.8 41.6898 126.889 39.6447C126.978 37.5996 129.912 35.6437 134.625 33.9543C138.441 32.5864 143.657 30.8099 147.202 31.4587Z" fill="#B6E6DC"/>
<g opacity="0.63">
<path d="M149.39 32.7896C149.822 34.6258 148.837 37.4488 146.451 38.6993C143.228 40.3894 135.522 40.322 135.522 40.322C135.522 40.322 133.564 39.507 132.427 40.7255C132.427 40.7255 134.335 40.6355 135.191 41.1888C135.191 41.1888 147.526 42.4834 149.678 40.4853C151.611 38.6888 151.264 34.8245 150.396 33.887C150.054 33.5178 149.729 33.138 149.39 32.7896Z" fill="#B6E6DC"/>
</g>
<path d="M129.824 18.7495C129.824 18.7495 133.558 18.5716 137.292 20.7946C141.027 23.0176 147.94 28.1882 150.396 33.9165C150.396 33.9165 148.496 35.7323 144.583 34.3097C140.671 32.8871 133.358 34.4318 133.358 34.4318C133.358 34.4318 130.268 27.9968 129.823 27.2857C129.379 26.5743 126.888 23.1958 126.888 23.1958C126.888 23.1958 129.824 20.6167 129.824 18.7495Z" fill="#007577"/>
<path d="M131.53 30.92L132.431 32.511L133.358 34.4322C133.358 34.4322 134.624 28.3059 133.999 26.0523C133.613 24.6593 131.53 30.92 131.53 30.92Z" fill="#007577"/>
<path d="M105.283 49.8607L106.486 51.7451L119.28 43.5804L118.077 41.6959L105.283 49.8607Z" fill="#FCBA00"/>
<path d="M101.358 49.5281C100.361 50.6904 100.285 52.9036 100.285 52.9036L101.987 50.3967L104.326 50.1801L105.76 52.4268L104.579 54.4567L101.588 54.9451C101.588 54.9451 103.835 55.9496 105.101 55.3934C107.015 54.5518 107.642 52.2799 106.685 50.4896L106.694 50.4838C106.681 50.4641 106.67 50.444 106.658 50.424C106.635 50.3879 106.611 50.3529 106.587 50.3179C106.565 50.2815 106.543 50.245 106.52 50.2093C106.507 50.1893 106.494 50.171 106.481 50.151L106.472 50.1568C105.252 48.5341 102.719 47.94 101.358 49.5281Z" fill="#FCBA00"/>
<path d="M118.779 41.2778C118.779 41.2778 117.312 42.2029 116.924 42.7001C116.536 43.1972 117.418 44.4084 115.761 45.8284C114.589 46.8326 115.82 46.2148 116.63 46.1375C119.455 45.8667 119.209 43.5963 120.76 42.8721C121.184 42.6738 118.779 41.2778 118.779 41.2778Z" fill="#FCB29A"/>
<path d="M119.096 44.196L117.575 41.5119L118.009 41.3508L121.687 38.3081L124.129 40.6503L119.096 44.196Z" fill="#FCB29A"/>
<path d="M118.151 42.5982L118.009 41.3506C118.009 41.3506 115.807 42.0187 115.079 43.6148C115.079 43.6148 116.645 42.5789 116.964 42.9379C117.284 43.2969 118.151 43.3618 118.151 43.3618V42.5982Z" fill="#FCB29A"/>
<path d="M134.335 25.8627C134.335 25.8627 133.291 32.5433 130.179 36.5322C130.179 36.5322 124.844 42.2569 120.132 44.1959L118.006 40.9458L125.722 33.7844C125.722 33.7844 127.332 26.7516 126.888 23.1954C126.888 23.1954 132.29 22.1281 134.335 25.8627Z" fill="#007577"/>
<path d="M119.278 14.5703C117.223 15.83 116.488 18.7484 118.995 20.74C119.041 20.7768 119.762 21.5305 119.504 22.1994C119.45 22.3389 119.535 22.4888 119.679 22.5234C119.915 22.5799 120.165 22.6659 120.56 22.4049C122.679 23.8592 124.639 23.5319 125.485 22.7359C127.232 21.0917 126.611 18.1977 125.332 16.1959C123.756 13.7294 121.173 13.4094 119.278 14.5703Z" fill="#FCB29A"/>
<path opacity="0.35" d="M119.278 14.5703C118.642 14.9607 117.273 16.209 117.448 17.2198C119.265 16.3658 121.895 17.1265 123.704 18.8472C124.264 19.3797 126.207 21.2448 125.769 22.4301C127.155 20.7509 126.535 18.0789 125.332 16.1956C123.757 13.7294 121.173 13.4094 119.278 14.5703Z" fill="#FCB29A"/>
<path d="M134.584 16.1313L126.435 14.096L124.077 13.0325L123.178 13.132C123.109 12.9293 123.054 12.7985 123.054 12.7985L119.432 12.5171L118.034 13.811C118.034 13.811 114.014 15.7829 115.448 17.7493C116.273 18.881 118.262 18.5894 119.304 17.0808C119.391 16.9554 119.472 16.8392 119.548 16.7309C119.972 16.1328 121.043 15.6036 121.654 16.2589C121.879 16.5006 121.993 16.818 122.127 17.1173C122.531 18.0183 123.284 18.9273 124.394 18.8854C125.133 18.8573 125.831 18.4141 126.563 18.5103C127.037 18.5727 127.454 18.8595 127.763 19.2145C128.215 19.735 128.394 20.3929 128.951 20.8303C129.543 21.2957 130.346 21.482 131.095 21.3643C131.896 21.2385 132.596 20.4782 133.429 20.6058C133.94 20.6838 134.331 21.0264 134.857 21.0697C135.302 21.1062 135.746 21.0519 136.167 20.9057C137.113 20.577 137.861 19.8196 138.129 18.8737C138.57 17.3108 134.584 16.1313 134.584 16.1313Z" fill="#080022"/>
<path d="M194.044 53.6998H167.958C166.983 53.6998 166.193 52.91 166.193 51.9353V23.8655C166.193 22.8909 166.983 22.1011 167.958 22.1011H194.044C195.019 22.1011 195.809 22.8909 195.809 23.8655V51.9353C195.809 52.91 195.019 53.6998 194.044 53.6998Z" fill="#F4D995"/>
<path d="M191.098 27.1772H171.899C171.327 27.1772 170.864 26.714 170.864 26.1428C170.864 25.5713 171.328 25.1084 171.899 25.1084H191.098C191.669 25.1084 192.132 25.5717 192.132 26.1428C192.132 26.714 191.669 27.1772 191.098 27.1772Z" fill="#00CCD4"/>
<path d="M186.114 29.1123H169.436V35.01H186.114V29.1123Z" fill="#FCBA00"/>
<path d="M192.809 36.2822H169.436V42.18H192.809V36.2822Z" fill="#00CCD4"/>
<path d="M193.09 29.1123H187.192V35.01H193.09V29.1123Z" fill="#00499B"/>
<path d="M192.635 43.479H175.957V49.3767H192.635V43.479Z" fill="#FCBA00"/>
<path d="M170.864 43.479H169.262V49.3767H170.864V43.479Z" fill="#FCBA00"/>
<path d="M175.012 43.479H171.857V49.3767H175.012V43.479Z" fill="#00499B"/>
<path d="M205.728 128.543H176.757C175.647 128.543 174.748 127.644 174.748 126.535V93.8043C174.748 92.6952 175.647 91.7964 176.757 91.7964H205.728C206.837 91.7964 207.736 92.6956 207.736 93.8043V126.535C207.736 127.644 206.837 128.543 205.728 128.543Z" fill="#F4D995"/>
<path d="M203.502 96.9405H179.73C179.065 96.9405 178.527 96.4018 178.527 95.7373C178.527 95.0729 179.065 94.5342 179.73 94.5342H203.502C204.167 94.5342 204.705 95.0729 204.705 95.7373C204.705 96.4018 204.167 96.9405 203.502 96.9405Z" fill="#00CCD4"/>
<path d="M204.293 99.8154H178.94C178.712 99.8154 178.527 99.6306 178.527 99.4028C178.527 99.175 178.711 98.9902 178.94 98.9902H204.293C204.521 98.9902 204.705 99.175 204.705 99.4028C204.705 99.6306 204.521 99.8154 204.293 99.8154Z" fill="#007577"/>
<path d="M201.262 101.93H178.94C178.712 101.93 178.527 101.745 178.527 101.517C178.527 101.289 178.712 101.104 178.94 101.104H201.262C201.489 101.104 201.674 101.289 201.674 101.517C201.674 101.745 201.489 101.93 201.262 101.93Z" fill="#007577"/>
<path d="M203.682 104.043H178.94C178.712 104.043 178.527 103.859 178.527 103.631C178.527 103.403 178.711 103.218 178.94 103.218H203.682C203.909 103.218 204.094 103.403 204.094 103.631C204.095 103.859 203.91 104.043 203.682 104.043Z" fill="#007577"/>
<path d="M200.321 106.157H178.94C178.712 106.157 178.527 105.972 178.527 105.745C178.527 105.517 178.712 105.332 178.94 105.332H200.321C200.548 105.332 200.733 105.517 200.733 105.745C200.733 105.972 200.548 106.157 200.321 106.157Z" fill="#007577"/>
<path d="M199.098 108.271H178.94C178.712 108.271 178.527 108.086 178.527 107.858C178.527 107.631 178.711 107.446 178.94 107.446H199.098C199.326 107.446 199.511 107.631 199.511 107.858C199.511 108.086 199.326 108.271 199.098 108.271Z" fill="#007577"/>
<path d="M203.071 110.385H178.94C178.712 110.385 178.527 110.2 178.527 109.972C178.527 109.744 178.712 109.56 178.94 109.56H203.071C203.298 109.56 203.483 109.744 203.483 109.972C203.483 110.2 203.298 110.385 203.071 110.385Z" fill="#007577"/>
<path d="M199.098 112.499H178.94C178.712 112.499 178.527 112.314 178.527 112.086C178.527 111.859 178.711 111.674 178.94 111.674H199.098C199.326 111.674 199.511 111.859 199.511 112.086C199.511 112.314 199.326 112.499 199.098 112.499Z" fill="#007577"/>
<path d="M203.376 114.613H178.94C178.712 114.613 178.527 114.428 178.527 114.2C178.527 113.972 178.711 113.788 178.94 113.788H203.376C203.604 113.788 203.789 113.972 203.789 114.2C203.789 114.428 203.604 114.613 203.376 114.613Z" fill="#007577"/>
<path d="M199.098 116.727H178.94C178.712 116.727 178.527 116.542 178.527 116.314C178.527 116.086 178.711 115.901 178.94 115.901H199.098C199.326 115.901 199.511 116.086 199.511 116.314C199.511 116.542 199.326 116.727 199.098 116.727Z" fill="#007577"/>
<path d="M202.765 118.84H178.94C178.712 118.84 178.527 118.656 178.527 118.428C178.527 118.2 178.711 118.015 178.94 118.015H202.765C202.993 118.015 203.178 118.2 203.178 118.428C203.178 118.656 202.993 118.84 202.765 118.84Z" fill="#007577"/>
<path d="M203.682 120.954H178.94C178.712 120.954 178.527 120.769 178.527 120.541C178.527 120.313 178.711 120.128 178.94 120.128H203.682C203.909 120.128 204.094 120.313 204.094 120.541C204.095 120.769 203.91 120.954 203.682 120.954Z" fill="#007577"/>
<path d="M203.987 123.068H178.94C178.712 123.068 178.527 122.884 178.527 122.656C178.527 122.428 178.712 122.243 178.94 122.243H203.987C204.215 122.243 204.4 122.428 204.4 122.656C204.4 122.884 204.215 123.068 203.987 123.068Z" fill="#007577"/>
<path d="M202.261 124.357H178.527V125.182H202.261V124.357Z" fill="#007577"/>
<path d="M178.076 81.594C177.904 80.361 177.63 79.168 177.272 78.0166L186.341 72.5391L176.045 59.3407L174.129 58.6956L168.556 66.208C166.226 64.6079 163.591 63.4455 160.782 62.8139L160.572 52.2252L158.656 51.5801L143.994 54.5423L146.196 64.4574C143.59 65.7013 141.283 67.4235 139.372 69.4989L133.505 82.9532C133.382 84.5398 133.422 86.1628 133.651 87.8038C133.824 89.0365 134.098 90.2298 134.456 91.3808L133.767 109.412L135.683 110.057L143.173 103.19C145.503 104.79 148.137 105.952 150.947 106.584L149.24 116.527L151.156 117.173L167.734 114.856L165.533 104.94C168.138 103.696 170.487 102.273 172.397 100.197L181.376 105.353L187.915 89.4975L178.224 86.445C178.346 84.8576 178.306 83.2349 178.076 81.594ZM157.547 96.738C150.897 97.6675 144.754 93.0305 143.824 86.3815C142.895 79.7322 147.532 73.5885 154.181 72.659C160.83 71.7296 166.974 76.3666 167.904 83.0159C168.833 89.6652 164.196 95.8086 157.547 96.738Z" fill="#E5572C"/>
<path d="M176.161 80.9488C175.988 79.7157 175.715 78.5227 175.357 77.3713L184.425 71.8938L174.129 58.6954L166.64 65.5627C164.31 63.9623 161.675 62.8003 158.866 62.1683L158.656 51.5796L142.078 53.8966L144.28 63.8117C141.674 65.0557 139.367 66.7779 137.456 68.8533L128.179 63.7392L121.897 79.255L131.589 82.3076C131.466 83.8942 131.507 85.5172 131.736 87.1585C131.908 88.3912 132.182 89.5845 132.54 90.7356L123.471 96.2131L133.767 109.411L141.257 102.544C143.587 104.144 146.222 105.307 149.031 105.938L149.241 116.527L165.818 114.21L163.617 104.295C166.223 103.051 168.53 101.329 170.441 99.2532L179.717 104.367L186 88.8515L176.308 85.799C176.43 84.2127 176.39 82.5897 176.161 80.9488ZM155.771 97.0915C148.57 98.0978 141.917 93.0767 140.91 85.8759C139.904 78.6751 144.925 72.0218 152.126 71.0154C159.327 70.0091 165.98 75.0306 166.987 82.2314C167.993 89.4318 162.971 96.0851 155.771 97.0915Z" fill="#FF6931"/>
<path d="M136.38 58.3682C136.245 58.2475 136.115 58.1327 135.96 58.0879C135.809 58.0281 135.645 58.07 135.473 58.1298C135.535 58.0638 135.613 58.0063 135.706 57.9796C135.797 57.9487 135.901 57.9527 135.995 57.9807C136.179 58.0485 136.321 58.194 136.38 58.3682Z" fill="white"/>
<path d="M136.032 58.9058C135.897 58.7851 135.767 58.6703 135.612 58.6255C135.461 58.5657 135.297 58.6076 135.125 58.6674C135.187 58.6014 135.265 58.5439 135.358 58.5172C135.449 58.4863 135.553 58.4903 135.647 58.5183C135.831 58.5861 135.973 58.7316 136.032 58.9058Z" fill="white"/>
<path d="M135.684 59.4434C135.55 59.3227 135.42 59.2079 135.265 59.1631C135.113 59.1033 134.949 59.1452 134.777 59.205C134.84 59.139 134.917 59.0814 135.01 59.0548C135.102 59.0239 135.206 59.0279 135.299 59.0559C135.483 59.1237 135.625 59.2692 135.684 59.4434Z" fill="white"/>
<path d="M135.336 59.981C135.202 59.8603 135.071 59.7455 134.917 59.7007C134.765 59.6409 134.601 59.6828 134.429 59.7426C134.492 59.6766 134.569 59.619 134.662 59.5924C134.754 59.5615 134.857 59.5655 134.951 59.5935C135.135 59.6613 135.277 59.8071 135.336 59.981Z" fill="white"/>
<path d="M160.279 13.9184C160.244 13.6716 160.189 13.4329 160.118 13.2029L161.932 12.1072L159.872 9.4669L159.489 9.33787L158.374 10.8406C157.908 10.5206 157.381 10.2881 156.819 10.1616L156.777 8.04358L156.394 7.91455L153.461 8.5072L153.902 10.4907C153.38 10.7397 152.919 11.0841 152.537 11.4993L151.363 14.1906C151.338 14.5081 151.346 14.8329 151.392 15.1609C151.427 15.4076 151.482 15.646 151.553 15.8764L151.415 19.4833L151.799 19.6124L153.297 18.2386C153.763 18.5586 154.29 18.7912 154.852 18.9176L154.511 20.9066L154.894 21.0357L158.21 20.572L157.77 18.5885C158.291 18.3396 158.761 18.0549 159.144 17.6398L160.94 18.6713L162.248 15.4995L160.309 14.889C160.332 14.5715 160.324 14.2468 160.279 13.9184ZM156.172 16.948C154.842 17.1339 153.613 16.2062 153.427 14.8762C153.241 13.5462 154.169 12.3172 155.499 12.1313C156.829 11.9454 158.058 12.873 158.244 14.203C158.43 15.533 157.502 16.7621 156.172 16.948Z" fill="#E5572C"/>
<path d="M159.895 13.7893C159.861 13.5426 159.806 13.3042 159.734 13.0738L161.548 11.9782L159.489 9.33787L157.991 10.7116C157.525 10.3916 156.997 10.1591 156.436 10.0326L156.394 7.91455L153.078 8.37818L153.518 10.3617C152.997 10.6107 152.535 10.9551 152.153 11.3702L150.298 10.3471L149.041 13.4507L150.979 14.0612C150.955 14.3787 150.963 14.7035 151.009 15.0315C151.043 15.2783 151.098 15.5166 151.17 15.747L149.356 16.8426L151.415 19.483L152.914 18.1092C153.38 18.4292 153.907 18.6618 154.469 18.7883L154.511 20.9063L157.827 20.4427L157.387 18.4591C157.908 18.2102 158.369 17.8657 158.752 17.4506L160.607 18.4737L161.864 15.3701L159.925 14.7596C159.949 14.4425 159.941 14.1177 159.895 13.7893ZM155.817 17.0187C154.376 17.2199 153.045 16.2157 152.844 14.7753C152.643 13.3348 153.647 12.0041 155.087 11.8025C156.528 11.6013 157.858 12.6058 158.06 14.0463C158.262 15.4864 157.257 16.8171 155.817 17.0187Z" fill="#FF6931"/>
<path d="M223.739 84.088C223.701 83.8182 223.641 83.5576 223.563 83.3058L225.546 82.1081L223.294 79.2221L222.876 79.081L221.657 80.7237C221.147 80.3738 220.571 80.1198 219.957 79.9817L219.911 77.6664L219.492 77.5254L216.286 78.1731L216.768 80.341C216.198 80.613 215.693 80.9895 215.276 81.4432L213.993 84.385C213.966 84.732 213.975 85.087 214.025 85.4457C214.062 85.715 214.123 85.976 214.201 86.2279L214.05 90.1705L214.469 90.3115L216.106 88.8099C216.616 89.1598 217.192 89.4138 217.806 89.552L217.433 91.7261L217.852 91.8672L221.477 91.3605L220.996 89.1926C221.565 88.9207 222.079 88.6094 222.497 88.1556L224.46 89.283L225.89 85.816L223.77 85.1486C223.798 84.8016 223.789 84.447 223.739 84.088ZM219.25 87.3993C217.796 87.6023 216.453 86.5887 216.249 85.1348C216.046 83.6808 217.06 82.3373 218.514 82.1343C219.968 81.9313 221.311 82.9449 221.514 84.3989C221.718 85.8528 220.704 87.1963 219.25 87.3993Z" fill="#06B7B7"/>
<path d="M223.32 83.9469C223.282 83.6772 223.222 83.4166 223.144 83.1647L225.127 81.967L222.876 79.081L221.238 80.5827C220.729 80.2328 220.153 79.9787 219.538 79.8406L219.492 77.5254L215.868 78.032L216.349 80.2C215.779 80.4719 215.275 80.8484 214.857 81.3022L212.829 80.184L211.455 83.5766L213.574 84.2439C213.548 84.5909 213.556 84.9459 213.606 85.3046C213.644 85.5743 213.704 85.8349 213.782 86.0868L211.799 87.2845L214.051 90.1705L215.688 88.6688C216.198 89.0187 216.774 89.2728 217.388 89.4109L217.434 91.7261L221.059 91.2195L220.578 89.0515C221.147 88.7796 221.652 88.4031 222.07 87.9493L224.098 89.0676L225.472 85.6749L223.353 85.0075C223.379 84.6606 223.37 84.3059 223.32 83.9469ZM218.861 87.4766C217.286 87.6967 215.832 86.5985 215.612 85.0243C215.392 83.4497 216.49 81.9951 218.064 81.7749C219.639 81.5548 221.093 82.653 221.313 84.2272C221.534 85.8018 220.436 87.2568 218.861 87.4766Z" fill="#00CCD4"/>
<path d="M204.777 78.1901C204.748 77.9849 204.703 77.7859 204.643 77.5941L206.154 76.6818L204.439 74.4833L204.12 74.3757L203.192 75.627C202.803 75.3606 202.365 75.167 201.897 75.0617L201.862 73.298L201.543 73.1904L199.1 73.6839L199.467 75.3354C199.033 75.5425 198.649 75.8297 198.33 76.1752L197.353 78.4161C197.332 78.6803 197.339 78.9508 197.377 79.2241C197.406 79.4293 197.452 79.6283 197.511 79.8201L197.396 82.8234L197.716 82.9309L198.963 81.7872C199.351 82.0536 199.79 82.2472 200.258 82.3525L199.974 84.0087L200.293 84.1163L203.055 83.7303L202.688 82.0788C203.122 81.8718 203.513 81.6345 203.831 81.2889L205.327 82.1477L206.416 79.5066L204.802 78.9981C204.822 78.7339 204.815 78.4634 204.777 78.1901ZM201.358 80.7127C200.25 80.8676 199.227 80.0952 199.072 78.9876C198.917 77.8799 199.689 76.8568 200.797 76.7019C201.905 76.547 202.928 77.3193 203.083 78.427C203.238 79.5347 202.465 80.5578 201.358 80.7127Z" fill="#016868"/>
<path d="M204.458 78.0826C204.429 77.8773 204.384 77.6783 204.324 77.4866L205.835 76.5743L204.12 74.3757L202.872 75.5195C202.484 75.2531 202.045 75.0595 201.577 74.9542L201.542 73.1904L198.781 73.5764L199.148 75.2279C198.713 75.4349 198.329 75.7222 198.011 76.0677L196.466 75.2159L195.419 77.8004L197.033 78.3089C197.013 78.5732 197.02 78.8436 197.058 79.117C197.087 79.3222 197.132 79.5212 197.192 79.7129L195.681 80.6252L197.396 82.8238L198.644 81.68C199.032 81.9465 199.471 82.14 199.939 82.2454L199.974 84.0091L202.735 83.6231L202.368 81.9716C202.803 81.7646 203.187 81.4777 203.505 81.1318L205.05 81.9836L206.097 79.3991L204.482 78.8906C204.503 78.6264 204.496 78.3559 204.458 78.0826ZM201.062 80.7714C199.862 80.939 198.754 80.1025 198.587 78.9034C198.419 77.7039 199.255 76.5958 200.455 76.4282C201.654 76.2605 202.762 77.097 202.93 78.2965C203.097 79.4957 202.261 80.6041 201.062 80.7714Z" fill="#007577"/>
<path d="M222.359 63.2089C222.306 62.8302 222.222 62.4635 222.112 62.11L224.898 60.4272L221.735 56.3723L221.146 56.174L219.434 58.4819C218.718 57.9902 217.908 57.633 217.045 57.4391L216.981 54.1861L216.392 53.9878L211.887 54.8979L212.563 57.9439C211.763 58.3259 211.054 58.8551 210.467 59.4926L208.665 63.6259C208.627 64.1132 208.639 64.6118 208.71 65.1163C208.763 65.495 208.847 65.8616 208.957 66.2152L208.745 71.7546L209.334 71.9529L211.635 69.8433C212.351 70.335 213.16 70.6918 214.024 70.8861L213.499 73.9408L214.088 74.1391L219.181 73.4273L218.505 70.3813C219.305 69.9993 220.027 69.5615 220.614 68.924L223.372 70.5081L225.381 65.6368L222.404 64.6989C222.441 64.2116 222.429 63.713 222.359 63.2089ZM216.052 67.8616C214.009 68.147 212.121 66.7226 211.836 64.6796C211.551 62.637 212.975 60.7494 215.018 60.464C217.06 60.1786 218.948 61.603 219.234 63.6459C219.519 65.6885 218.095 67.5758 216.052 67.8616Z" fill="#F77B1E"/>
<path d="M221.77 63.0106C221.717 62.6319 221.633 62.2653 221.523 61.9117L224.309 60.2289L221.146 56.174L218.845 58.2836C218.129 57.7919 217.32 57.4347 216.457 57.2408L216.392 53.9878L211.3 54.6996L211.976 57.7456C211.175 58.1276 210.466 58.6569 209.879 59.2943L207.03 57.723L205.1 62.4898L208.077 63.4276C208.04 63.9149 208.052 64.4135 208.122 64.918C208.175 65.2967 208.259 65.6634 208.369 66.0169L205.583 67.6997L208.746 71.7546L211.047 69.645C211.763 70.1367 212.573 70.4935 213.435 70.6878L213.5 73.9408L218.593 73.229L217.917 70.183C218.717 69.801 219.426 69.2718 220.013 68.6343L222.863 70.2056L224.793 65.4388L221.815 64.501C221.853 64.0133 221.841 63.5147 221.77 63.0106ZM215.506 67.9698C213.294 68.2789 211.25 66.7364 210.941 64.5243C210.631 62.3123 212.174 60.2682 214.386 59.9588C216.598 59.6497 218.642 61.1922 218.952 63.4046C219.261 65.6167 217.718 67.6607 215.506 67.9698Z" fill="#FCBA00"/>
<path d="M26.8978 109.396C26.8559 109.097 26.7896 108.807 26.7028 108.528L28.9029 107.199L26.405 103.997L25.9403 103.84L24.5881 105.663C24.0228 105.275 23.3838 104.993 22.7022 104.84L22.6516 102.271L22.1868 102.114L18.6298 102.833L19.1638 105.238C18.5318 105.54 17.9719 105.958 17.5087 106.461L16.085 109.725C16.0555 110.11 16.0649 110.504 16.1207 110.902C16.1626 111.201 16.229 111.491 16.3157 111.77L16.1488 116.144L16.6135 116.3L18.4305 114.634C18.9958 115.023 19.6351 115.305 20.3163 115.458L19.9022 117.87L20.367 118.026L24.3887 117.464L23.8547 115.059C24.4868 114.757 25.0568 114.412 25.5201 113.908L27.6982 115.159L29.2845 111.313L26.9332 110.572C26.9634 110.187 26.9536 109.794 26.8978 109.396ZM21.9175 113.07C20.3043 113.295 18.8139 112.17 18.5886 110.557C18.363 108.944 19.4882 107.454 21.101 107.228C22.7139 107.003 24.2046 108.128 24.4299 109.741C24.6555 111.354 23.5307 112.844 21.9175 113.07Z" fill="#F77B1E"/>
<path d="M26.4332 109.239C26.3913 108.94 26.3249 108.651 26.2382 108.371L28.4382 107.042L25.9404 103.84L24.1234 105.507C23.5581 105.118 22.9192 104.836 22.2376 104.683L22.1866 102.114L18.1648 102.676L18.6988 105.082C18.0668 105.383 17.5069 105.801 17.0437 106.304L14.793 105.064L13.269 108.828L15.6203 109.568C15.5908 109.953 15.6003 110.347 15.6561 110.745C15.698 111.045 15.7643 111.334 15.8511 111.613L13.651 112.942L16.1488 116.144L17.9658 114.478C18.5311 114.866 19.1704 115.148 19.8517 115.301L19.9023 117.87L23.9241 117.308L23.3901 114.903C24.0221 114.601 24.5819 114.183 25.0452 113.68L27.2959 114.921L28.8202 111.157L26.4689 110.416C26.4988 110.031 26.4889 109.637 26.4332 109.239ZM21.4867 113.155C19.7398 113.399 18.1258 112.181 17.8816 110.434C17.6374 108.687 18.8555 107.073 20.6025 106.829C22.3495 106.585 23.9634 107.803 24.2076 109.55C24.4518 111.297 23.2334 112.911 21.4867 113.155Z" fill="#FCBA00"/>
<path d="M42.6089 37.7372C42.556 37.3585 42.4719 36.9919 42.3618 36.6383L45.1479 34.9555L41.9849 30.9006L41.3963 30.7023L39.6839 33.0102C38.9681 32.5185 38.1585 32.1613 37.2954 31.9674L37.2313 28.7144L36.6426 28.5161L32.1383 29.4262L32.8144 32.4722C32.014 32.8542 31.3051 33.3835 30.7183 34.0209L28.9155 38.1542C28.878 38.6415 28.8904 39.1401 28.9607 39.6446C29.0136 40.0233 29.0978 40.39 29.2079 40.7435L28.9965 46.283L29.5851 46.4812L31.8861 44.3716C32.6019 44.8633 33.4115 45.2205 34.2746 45.4144L33.7504 48.4691L34.3391 48.6674L39.432 47.9556L38.7559 44.9096C39.5563 44.5276 40.278 44.0899 40.8648 43.4524L43.6233 45.0364L45.6323 40.1651L42.6548 39.2273C42.6916 38.7399 42.6796 38.2413 42.6089 37.7372ZM36.3018 42.3895C34.2593 42.6749 32.3716 41.2505 32.0862 39.2076C31.8008 37.165 33.2252 35.2773 35.2682 34.9919C37.3111 34.7065 39.1984 36.1309 39.4838 38.1739C39.7692 40.2168 38.3444 42.1041 36.3018 42.3895Z" fill="#E5572C"/>
<path d="M42.0203 37.539C41.9675 37.1603 41.8833 36.7936 41.7732 36.44L44.5593 34.7572L41.3963 30.7023L39.0953 32.8119C38.3795 32.3202 37.57 31.9631 36.7069 31.7691L36.6423 28.5161L31.5494 29.228L32.2255 32.274C31.4251 32.6559 30.7162 33.1852 30.1294 33.8227L27.2791 32.2514L25.3491 37.0181L28.3266 37.9559C28.2891 38.4432 28.3011 38.9419 28.3718 39.4463C28.4247 39.825 28.5089 40.1917 28.6189 40.5452L25.8328 42.2281L28.9958 46.283L31.2968 44.1733C32.0127 44.665 32.8222 45.0218 33.6853 45.2161L33.7498 48.4691L38.8427 47.7573L38.1666 44.7113C38.967 44.3293 39.676 43.8001 40.2628 43.1626L43.1127 44.7339L45.0426 39.9672L42.0652 39.0293C42.1031 38.5417 42.091 38.043 42.0203 37.539ZM35.7563 42.4981C33.5442 42.8072 31.5002 41.2647 31.1907 39.0523C30.8817 36.8402 32.4242 34.7962 34.6366 34.4868C36.8486 34.1777 38.8927 35.7202 39.2021 37.9326C39.5112 40.145 37.9683 42.1891 35.7563 42.4981Z" fill="#FF6931"/>
</svg>
