<svg width="32" height="32" viewBox="0 0 32 32" fill="none" xmlns="http://www.w3.org/2000/svg">
<path d="M12 17.3333H20M12 22.6666H16M5.33337 5.33329V26.6666C5.33337 27.3739 5.61433 28.0521 6.11442 28.5522C6.61452 29.0523 7.2928 29.3333 8.00004 29.3333H24C24.7073 29.3333 25.3856 29.0523 25.8857 28.5522C26.3858 28.0521 26.6667 27.3739 26.6667 26.6666V11.1226C26.6667 10.7674 26.5956 10.4157 26.4578 10.0883C26.32 9.76086 26.1181 9.46428 25.864 9.21596L19.944 3.42663C19.4459 2.9395 18.7768 2.66671 18.08 2.66663H8.00004C7.2928 2.66663 6.61452 2.94758 6.11442 3.44767C5.61433 3.94777 5.33337 4.62605 5.33337 5.33329Z" stroke="#454C6A" stroke-linecap="round" stroke-linejoin="round"/>
<path d="M18.6667 2.66663V7.99996C18.6667 8.7072 18.9477 9.38548 19.4478 9.88558C19.9479 10.3857 20.6262 10.6666 21.3334 10.6666H26.6667" stroke="#454C6A" stroke-linejoin="round"/>
</svg>
