<svg width="40" height="40" viewBox="0 0 40 40" fill="none" xmlns="http://www.w3.org/2000/svg">
<path d="M5.83343 36.6666C5.0001 36.6666 4.16677 36.5 3.33343 36C1.0001 34.6666 0.166767 31.5 1.5001 29.1666L15.6668 5.49996C16.1668 4.83329 16.6668 4.16663 17.3334 3.83329C18.5001 3.16663 19.8334 2.99996 21.1668 3.33329C22.5001 3.66663 23.5001 4.49996 24.3334 5.66663L38.3334 29.1666C38.8334 30 39.0001 30.8333 39.0001 31.6666C39.0001 33 38.5001 34.3333 37.5001 35.1666C36.6668 36.1666 35.5001 36.6666 34.1668 36.6666H5.83343ZM18.5001 7.33329L4.5001 30.8333C4.0001 31.6666 4.33343 32.6666 5.16677 33.1666C5.33343 33.3333 5.66677 33.3333 5.83343 33.3333H34.0001C34.5001 33.3333 34.8334 33.1666 35.1668 32.8333C35.5001 32.5 35.6668 32.1666 35.6668 31.6666C35.6668 31.3333 35.6668 31.1666 35.5001 30.8333L21.5001 7.33329C21.0001 6.49996 20.0001 6.33329 19.1668 6.66663C18.8334 6.83329 18.6668 6.99996 18.5001 7.33329Z" fill="#FF2C20"/>
<path d="M20.0001 23.3333C19.0001 23.3333 18.3334 22.6666 18.3334 21.6666V15C18.3334 14 19.0001 13.3333 20.0001 13.3333C21.0001 13.3333 21.6668 14 21.6668 15V21.6666C21.6668 22.6666 21.0001 23.3333 20.0001 23.3333Z" fill="#FF2C20"/>
<path d="M20.0001 30C19.5001 30 19.1668 29.8333 18.8334 29.5C18.5001 29.1666 18.3334 28.8333 18.3334 28.3333C18.3334 28.1666 18.3334 27.8333 18.5001 27.6666C18.6668 27.5 18.6668 27.3333 18.8334 27.1666C19.0001 27 19.1668 26.8333 19.3334 26.8333C19.6668 26.6666 20.0001 26.6666 20.3334 26.6666C20.5001 26.6666 20.5001 26.6666 20.6668 26.8333C20.8334 26.8333 20.8334 26.8333 21.0001 27C21.0001 27 21.1668 27.1666 21.3334 27.1666C21.5001 27.3333 21.6668 27.5 21.6668 27.6666C21.6668 27.8333 21.8334 28.1666 21.8334 28.3333C21.8334 28.8333 21.6668 29.1666 21.3334 29.5C20.8334 29.8333 20.5001 30 20.0001 30Z" fill="#FF2C20"/>
</svg>
