<svg width="26" height="26" viewBox="0 0 26 26" fill="none" xmlns="http://www.w3.org/2000/svg">
<path d="M12.8985 15.8437C13.6527 15.8437 14.376 15.5441 14.9093 15.0108C15.4426 14.4775 15.7422 13.7542 15.7422 13C15.7422 12.9167 15.7384 12.8342 15.7313 12.7527L12.6512 15.8328C12.7327 15.8399 12.8149 15.8437 12.8985 15.8437ZM22.3113 4.20367L21.2266 3.11999C21.1885 3.08193 21.1369 3.06055 21.083 3.06055C21.0292 3.06055 20.9775 3.08193 20.9394 3.11999L18.1637 5.89646C16.6325 5.11392 14.9113 4.72265 13 4.72265C8.11995 4.72265 4.47893 7.26425 2.07698 12.3475C1.98043 12.5519 1.93036 12.7752 1.93036 13.0013C1.93036 13.2274 1.98043 13.4506 2.07698 13.6551C3.03674 15.6767 4.19244 17.297 5.54407 18.5161L2.85799 21.2012C2.81993 21.2393 2.79855 21.2909 2.79855 21.3448C2.79855 21.3986 2.81993 21.4502 2.85799 21.4883L3.94192 22.5723C3.98001 22.6103 4.03165 22.6317 4.0855 22.6317C4.13935 22.6317 4.191 22.6103 4.22909 22.5723L22.3113 4.49109C22.3302 4.47222 22.3451 4.44982 22.3554 4.42516C22.3656 4.4005 22.3708 4.37407 22.3708 4.34738C22.3708 4.32068 22.3656 4.29425 22.3554 4.26959C22.3451 4.24493 22.3302 4.22253 22.3113 4.20367ZM8.42971 13C8.42964 12.2281 8.6295 11.4694 9.00981 10.7978C9.39012 10.1261 9.93791 9.56438 10.5998 9.16735C11.2618 8.77032 12.0152 8.55151 12.7868 8.53223C13.5585 8.51295 14.3219 8.69386 15.0028 9.05734L13.7683 10.2918C13.2705 10.1324 12.7383 10.1132 12.2303 10.2363C11.7222 10.3595 11.2579 10.6201 10.8883 10.9898C10.5186 11.3594 10.2579 11.8238 10.1348 12.3318C10.0117 12.8399 10.0309 13.372 10.1903 13.8699L8.95581 15.1044C8.60939 14.4571 8.42864 13.7341 8.42971 13Z" fill="#C2C2C2"/>
<path d="M23.9231 12.3448C23.0293 10.4625 21.9655 8.92767 20.7317 7.74023L17.0719 11.4003C17.3804 12.2067 17.4488 13.0853 17.2688 13.9297C17.0888 14.7742 16.6681 15.5485 16.0576 16.159C15.447 16.7696 14.6727 17.1902 13.8283 17.3702C12.9838 17.5502 12.1053 17.4819 11.2988 17.1734L8.19458 20.2776C9.63474 20.944 11.2365 21.2772 13 21.2772C17.8801 21.2772 21.5211 18.7356 23.9231 13.6524C24.0196 13.448 24.0697 13.2247 24.0697 12.9986C24.0697 12.7725 24.0196 12.5493 23.9231 12.3448Z" fill="#C2C2C2"/>
</svg>
