<svg width="32" height="32" viewBox="0 0 32 32" fill="none" xmlns="http://www.w3.org/2000/svg">
<path d="M26.8066 27.8534C26.34 27.1947 26.412 26.4567 26.8173 25.8987C29.0026 23.3827 30.3333 20.1067 30.3333 16.5134C30.3333 8.59739 23.916 2.18005 16 2.18005C8.08396 2.18005 1.66663 8.59739 1.66663 16.5134C1.66663 24.4294 8.08396 30.8467 16 30.8467C18.8073 30.8467 21.4186 30.0274 23.6293 28.6327C24.608 29.0994 26.3626 29.6334 28.8426 29.2214C27.8326 28.9247 27.1286 28.3067 26.8066 27.8534Z" stroke="#454C6A" stroke-linecap="round" stroke-linejoin="round"/>
<path d="M16 23.832C16.2761 23.832 16.5 23.6082 16.5 23.332C16.5 23.0559 16.2761 22.832 16 22.832C15.7239 22.832 15.5 23.0559 15.5 23.332C15.5 23.6082 15.7239 23.832 16 23.832Z" fill="#454C6A"/>
<path d="M11.83 12.338C11.83 11.1866 12.2966 10.1446 13.0513 9.3893C13.806 8.63397 14.8486 8.16797 16 8.16797C18.3033 8.16797 20.17 10.0346 20.17 12.338C20.17 13.4893 19.7813 14.6186 18.9486 15.2866C18.086 15.9793 15.9853 17.1133 15.9853 18.8773" stroke="#454C6A" stroke-linecap="round" stroke-linejoin="round"/>
</svg>
