<svg width="35" height="35" viewBox="0 0 35 35" fill="none" xmlns="http://www.w3.org/2000/svg">
<path fill-rule="evenodd" clip-rule="evenodd" d="M31.2885 7.89835C31.4271 8.10865 31.4888 8.36032 31.4633 8.61087C31.4378 8.86142 31.3266 9.09549 31.1485 9.27356L17.7421 22.6786C17.6049 22.8156 17.4338 22.9138 17.2462 22.9629L11.6623 24.4213C11.4777 24.4694 11.2837 24.4684 11.0996 24.4184C10.9155 24.3685 10.7477 24.2712 10.6128 24.1363C10.4779 24.0014 10.3807 23.8336 10.3307 23.6495C10.2807 23.4654 10.2797 23.2715 10.3279 23.0869L11.7862 17.5044C11.8288 17.3368 11.9091 17.1812 12.021 17.0494L25.4771 3.6021C25.6821 3.39727 25.9601 3.28223 26.25 3.28223C26.5398 3.28223 26.8178 3.39727 27.0229 3.6021L31.1485 7.72626C31.2008 7.77877 31.2477 7.83643 31.2885 7.89835ZM28.8283 8.49918L26.25 5.92231L13.8279 18.3444L12.9164 21.8342L16.4062 20.9227L28.8283 8.49918Z" fill="#4F5784"/>
<path d="M28.6431 25.025C29.0417 21.6183 29.169 18.1853 29.0237 14.7584C29.0206 14.6776 29.0341 14.5971 29.0634 14.5218C29.0928 14.4466 29.1374 14.3781 29.1944 14.3209L30.6294 12.8859C30.6686 12.8464 30.7183 12.8192 30.7727 12.8073C30.827 12.7955 30.8836 12.7996 30.9357 12.8192C30.9877 12.8387 31.033 12.8729 31.0661 12.9176C31.0992 12.9623 31.1187 13.0156 31.1223 13.0711C31.3924 17.1416 31.2899 21.2284 30.816 25.2802C30.4719 28.229 28.1035 30.5405 25.1679 30.8686C20.0715 31.433 14.9284 31.433 9.83206 30.8686C6.8979 30.5405 4.5281 28.229 4.18394 25.2802C3.57931 20.1111 3.57931 14.889 4.18394 9.71983C4.5281 6.77108 6.89644 4.45962 9.83206 4.1315C13.7001 3.70257 17.5973 3.59867 21.4827 3.82087C21.5383 3.82486 21.5916 3.84471 21.6363 3.87805C21.6809 3.9114 21.7151 3.95685 21.7348 4.00903C21.7544 4.0612 21.7587 4.11791 21.7471 4.17244C21.7355 4.22697 21.7085 4.27703 21.6694 4.3167L20.2212 5.76337C20.1645 5.81988 20.0968 5.86417 20.0223 5.89352C19.9478 5.92286 19.8681 5.93664 19.7881 5.934C16.5459 5.82378 13.2999 5.94806 10.0756 6.30587C9.13343 6.41015 8.25393 6.82901 7.57916 7.49478C6.9044 8.16055 6.47377 9.03435 6.35685 9.97504C5.77213 14.9747 5.77213 20.0254 6.35685 25.025C6.47377 25.9657 6.9044 26.8395 7.57916 27.5053C8.25393 28.1711 9.13343 28.5899 10.0756 28.6942C14.9683 29.2411 20.0316 29.2411 24.9258 28.6942C25.868 28.5899 26.7475 28.1711 27.4223 27.5053C28.097 26.8395 28.5262 25.9657 28.6431 25.025Z" fill="#4F5784"/>
</svg>
