<svg width="20" height="21" viewBox="0 0 20 21" fill="none" xmlns="http://www.w3.org/2000/svg">
<path d="M19.375 5.23853C19.5408 5.23853 19.6997 5.30437 19.8169 5.42158C19.9342 5.53879 20 5.69777 20 5.86353V15.8635C20 16.0293 19.9342 16.1883 19.8169 16.3055C19.6997 16.4227 19.5408 16.4885 19.375 16.4885C19.2092 16.4885 19.0503 16.4227 18.9331 16.3055C18.8158 16.1883 18.75 16.0293 18.75 15.8635V11.8035L10.9163 16.3485C10.2662 16.726 9.375 16.2948 9.375 15.4785V11.8035L1.54125 16.3485C0.89125 16.726 0 16.2948 0 15.4785V6.24853C0 5.43228 0.89125 5.00103 1.54125 5.37853L9.375 9.92353V6.24853C9.375 5.43228 10.2662 5.00103 10.9163 5.37853L18.75 9.92353V5.86353C18.75 5.69777 18.8158 5.53879 18.9331 5.42158C19.0503 5.30437 19.2092 5.23853 19.375 5.23853ZM1.25 6.65478V15.0723L8.505 10.8635L1.25 6.65478ZM10.625 6.65478V15.0723L17.88 10.8635L10.625 6.65478Z" fill="#F4F6FA"/>
</svg>
