<svg width="125" height="42" viewBox="0 0 125 42" fill="none" xmlns="http://www.w3.org/2000/svg">
<path d="M113.207 21.7071C113.598 21.3166 113.598 20.6834 113.207 20.2929L106.843 13.9289C106.453 13.5384 105.819 13.5384 105.429 13.9289C105.038 14.3195 105.038 14.9526 105.429 15.3431L111.086 21L105.429 26.6569C105.038 27.0474 105.038 27.6805 105.429 28.0711C105.819 28.4616 106.453 28.4616 106.843 28.0711L113.207 21.7071ZM0.5 22H112.5V20H0.5V22Z" fill="#565B7D"/>
<g clip-path="url(#clip0_1_903)">
<circle cx="104" cy="21" r="21" fill="url(#paint0_linear_1_903)"/>
<path d="M115.707 21.7071C116.098 21.3166 116.098 20.6834 115.707 20.2929L109.343 13.9289C108.953 13.5384 108.319 13.5384 107.929 13.9289C107.538 14.3195 107.538 14.9526 107.929 15.3431L113.586 21L107.929 26.6569C107.538 27.0474 107.538 27.6805 107.929 28.0711C108.319 28.4616 108.953 28.4616 109.343 28.0711L115.707 21.7071ZM3 22H115V20H3V22Z" fill="#EAEFF5"/>
</g>
<defs>
<linearGradient id="paint0_linear_1_903" x1="94" y1="3.5" x2="117.5" y2="35.5" gradientUnits="userSpaceOnUse">
<stop stop-color="#7A85B7"/>
<stop offset="1" stop-color="#424566"/>
</linearGradient>
<clipPath id="clip0_1_903">
<rect width="42" height="42" fill="white" transform="translate(83)"/>
</clipPath>
</defs>
</svg>
