<svg width="16" height="17" viewBox="0 0 16 17" fill="none" xmlns="http://www.w3.org/2000/svg">
<path fill-rule="evenodd" clip-rule="evenodd" d="M4.00143 1.50073C4.2781 1.50073 4.50238 1.72501 4.50238 2.00168V2.5014H11.5034V2.00174C11.5034 1.72507 11.7277 1.50079 12.0044 1.50079C12.281 1.50079 12.5053 1.72507 12.5053 2.00174V2.5014H13.0039C14.1092 2.5014 15.0052 3.3974 15.0052 4.50268V13.5046C15.0052 14.6099 14.1092 15.5059 13.0039 15.5059H3.00176C1.89649 15.5059 1.00049 14.6099 1.00049 13.5046V4.50268C1.00049 3.3974 1.89649 2.5014 3.00176 2.5014H3.50049V2.00168C3.50049 1.72501 3.72477 1.50073 4.00143 1.50073ZM3.90882 3.5033H3.00176C2.44982 3.5033 2.00238 3.95073 2.00238 4.50268V5.00214H14.0033V4.50268C14.0033 3.95073 13.5559 3.5033 13.0039 3.5033H12.0973C12.0672 3.50895 12.0361 3.5119 12.0044 3.5119C11.9726 3.5119 11.9415 3.50895 11.9114 3.5033H4.09405C4.06403 3.50891 4.03308 3.51184 4.00143 3.51184C3.96979 3.51184 3.93884 3.50891 3.90882 3.5033ZM14.0033 6.00403H2.00238V13.5046C2.00238 14.0566 2.44982 14.504 3.00176 14.504H13.0039C13.5559 14.504 14.0033 14.0566 14.0033 13.5046V6.00403Z" fill="#4F575E"/>
</svg>
