<svg width="16" height="16" viewBox="0 0 16 16" fill="none" xmlns="http://www.w3.org/2000/svg">
<path fill-rule="evenodd" clip-rule="evenodd" d="M4.00143 0.997314C4.2781 0.997314 4.50238 1.2216 4.50238 1.49826V1.99799H11.5034V1.49832C11.5034 1.22166 11.7277 0.997375 12.0044 0.997375C12.281 0.997375 12.5053 1.22166 12.5053 1.49832V1.99799H13.0039C14.1092 1.99799 15.0052 2.89399 15.0052 3.99926V13.0012C15.0052 14.1065 14.1092 15.0025 13.0039 15.0025H3.00176C1.89649 15.0025 1.00049 14.1065 1.00049 13.0012V3.99926C1.00049 2.89399 1.89649 1.99799 3.00176 1.99799H3.50049V1.49826C3.50049 1.2216 3.72477 0.997314 4.00143 0.997314ZM3.90882 2.99988H3.00176C2.44982 2.99988 2.00238 3.44732 2.00238 3.99926V4.49872H14.0033V3.99926C14.0033 3.44732 13.5559 2.99988 13.0039 2.99988H12.0973C12.0672 3.00553 12.0361 3.00848 12.0044 3.00848C11.9726 3.00848 11.9415 3.00553 11.9114 2.99988H4.09405C4.06403 3.00549 4.03308 3.00842 4.00143 3.00842C3.96979 3.00842 3.93884 3.00549 3.90882 2.99988ZM14.0033 5.50061H2.00238V13.0012C2.00238 13.5532 2.44982 14.0006 3.00176 14.0006H13.0039C13.5559 14.0006 14.0033 13.5532 14.0033 13.0012V5.50061Z" fill="#4F575E"/>
</svg>
