<svg width="19" height="20" viewBox="0 0 19 20" fill="none" xmlns="http://www.w3.org/2000/svg">
<path fill-rule="evenodd" clip-rule="evenodd" d="M4.66016 1.84442C4.98238 1.84442 5.24358 2.10563 5.24358 2.42784V3.00984H13.3972V2.42791C13.3972 2.1057 13.6584 1.84449 13.9807 1.84449C14.3029 1.84449 14.5641 2.1057 14.5641 2.42791V3.00984H15.1448C16.432 3.00984 17.4755 4.05335 17.4755 5.34059V15.8246C17.4755 17.1118 16.432 18.1553 15.1448 18.1553H3.49591C2.20867 18.1553 1.16516 17.1118 1.16516 15.8246V5.34059C1.16516 4.05335 2.20867 3.00984 3.49591 3.00984H4.07675V2.42784C4.07675 2.10563 4.33795 1.84442 4.66016 1.84442ZM4.55231 4.17667H3.49591C2.8531 4.17667 2.332 4.69778 2.332 5.34059V5.92228H16.3087V5.34059C16.3087 4.69778 15.7876 4.17667 15.1448 4.17667H14.0889C14.0538 4.18325 14.0176 4.1867 13.9807 4.1867C13.9437 4.1867 13.9075 4.18325 13.8724 4.17667H4.76802C4.73307 4.18321 4.69702 4.18662 4.66016 4.18662C4.62331 4.18662 4.58726 4.18321 4.55231 4.17667ZM16.3087 7.08911H2.332V15.8246C2.332 16.4674 2.8531 16.9885 3.49591 16.9885H15.1448C15.7876 16.9885 16.3087 16.4674 16.3087 15.8246V7.08911Z" fill="#4F575E"/>
</svg>
