<svg width="25" height="24" viewBox="0 0 25 24" fill="none" xmlns="http://www.w3.org/2000/svg">
<path d="M10.25 3.75H22.625V5.25H10.25V3.75ZM2.375 4.5C2.375 5.09334 2.55095 5.67336 2.88059 6.16671C3.21024 6.66006 3.67877 7.04458 4.22695 7.27164C4.77513 7.4987 5.37833 7.55811 5.96027 7.44236C6.54221 7.3266 7.07676 7.04088 7.49632 6.62132C7.91588 6.20176 8.2016 5.66721 8.31736 5.08527C8.43311 4.50333 8.3737 3.90013 8.14664 3.35195C7.91958 2.80377 7.53506 2.33524 7.04171 2.00559C6.54836 1.67595 5.96834 1.5 5.375 1.5C4.57962 1.50089 3.81708 1.81725 3.25467 2.37967C2.69225 2.94208 2.37589 3.70462 2.375 4.5ZM5.375 3C5.67167 3 5.96168 3.08797 6.20836 3.2528C6.45503 3.41762 6.64729 3.65189 6.76082 3.92597C6.87435 4.20006 6.90406 4.50166 6.84618 4.79264C6.7883 5.08361 6.64544 5.35088 6.43566 5.56066C6.22588 5.77044 5.95861 5.9133 5.66764 5.97118C5.37666 6.02906 5.07506 5.99935 4.80097 5.88582C4.52689 5.77229 4.29262 5.58003 4.1278 5.33336C3.96297 5.08668 3.875 4.79667 3.875 4.5C3.87545 4.10231 4.03363 3.72104 4.31483 3.43983C4.59604 3.15863 4.97731 3.00045 5.375 3ZM10.25 11.25H22.625V12.75H10.25V11.25ZM5.375 15C5.96834 15 6.54836 14.8241 7.04171 14.4944C7.53506 14.1648 7.91958 13.6962 8.14664 13.1481C8.3737 12.5999 8.43311 11.9967 8.31736 11.4147C8.2016 10.8328 7.91588 10.2982 7.49632 9.87868C7.07676 9.45912 6.54221 9.1734 5.96027 9.05764C5.37833 8.94189 4.77513 9.0013 4.22695 9.22836C3.67877 9.45542 3.21024 9.83994 2.88059 10.3333C2.55095 10.8266 2.375 11.4067 2.375 12C2.37589 12.7954 2.69225 13.5579 3.25467 14.1203C3.81708 14.6827 4.57962 14.9991 5.375 15ZM5.375 10.5C5.67167 10.5 5.96168 10.588 6.20836 10.7528C6.45503 10.9176 6.64729 11.1519 6.76082 11.426C6.87435 11.7001 6.90406 12.0017 6.84618 12.2926C6.7883 12.5836 6.64544 12.8509 6.43566 13.0607C6.22588 13.2704 5.95861 13.4133 5.66764 13.4712C5.37666 13.5291 5.07506 13.4994 4.80097 13.3858C4.52689 13.2723 4.29262 13.08 4.1278 12.8334C3.96297 12.5867 3.875 12.2967 3.875 12C3.87545 11.6023 4.03363 11.221 4.31483 10.9398C4.59604 10.6586 4.97731 10.5004 5.375 10.5ZM10.25 18.75H22.625V20.25H10.25V18.75ZM5.375 22.5C5.96834 22.5 6.54836 22.3241 7.04171 21.9944C7.53506 21.6648 7.91958 21.1962 8.14664 20.6481C8.3737 20.0999 8.43311 19.4967 8.31736 18.9147C8.2016 18.3328 7.91588 17.7982 7.49632 17.3787C7.07676 16.9591 6.54221 16.6734 5.96027 16.5576C5.37833 16.4419 4.77513 16.5013 4.22695 16.7284C3.67877 16.9554 3.21024 17.3399 2.88059 17.8333C2.55095 18.3266 2.375 18.9067 2.375 19.5C2.37589 20.2954 2.69225 21.0579 3.25467 21.6203C3.81708 22.1828 4.57962 22.4991 5.375 22.5ZM5.375 18C5.67167 18 5.96168 18.088 6.20836 18.2528C6.45503 18.4176 6.64729 18.6519 6.76082 18.926C6.87435 19.2001 6.90406 19.5017 6.84618 19.7926C6.7883 20.0836 6.64544 20.3509 6.43566 20.5607C6.22588 20.7704 5.95861 20.9133 5.66764 20.9712C5.37666 21.0291 5.07506 20.9994 4.80097 20.8858C4.52689 20.7723 4.29262 20.58 4.1278 20.3334C3.96297 20.0867 3.875 19.7967 3.875 19.5C3.87545 19.1023 4.03363 18.721 4.31483 18.4398C4.59604 18.1586 4.97731 18.0004 5.375 18Z" fill="#2B2D3B"/>
</svg>
