<svg width="143" height="35" viewBox="0 0 143 35" fill="none" xmlns="http://www.w3.org/2000/svg">
<rect width="143" height="35" fill="#111111" fill-opacity="0.01"/>
<path d="M8.95801 4.5C11.358 4.5 13.3497 5.34167 14.933 7.025C16.533 8.70833 17.333 10.7833 17.333 13.25C17.333 15.7 16.533 17.775 14.933 19.475C13.3497 21.1583 11.358 22 8.95801 22H2.08301V4.5H8.95801ZM8.95801 19.25C10.608 19.25 11.9497 18.6833 12.983 17.55C14.033 16.4167 14.558 14.9833 14.558 13.25C14.558 11.5 14.033 10.0667 12.983 8.95C11.9497 7.81667 10.608 7.25 8.95801 7.25H4.95801V19.25H8.95801ZM30.6949 22L29.4699 18.475H22.0199L20.7949 22H17.6699L24.0199 4.5H27.4699L33.7949 22H30.6949ZM22.9699 15.775H28.5199L25.7449 7.875L22.9699 15.775ZM52.4268 4.5V22H49.5518V9.525L44.2268 18.325H43.8768L38.5518 9.5V22H35.6768V4.5H38.7768L44.0518 13.25L49.3518 4.5H52.4268ZM72.666 4.5V22H69.791V9.525L64.466 18.325H64.116L58.791 9.5V22H55.916V4.5H59.016L64.291 13.25L69.591 4.5H72.666ZM87.5553 22L86.3303 18.475H78.8803L77.6553 22H74.5303L80.8803 4.5H84.3303L90.6553 22H87.5553ZM79.8303 15.775H85.3803L82.6053 7.875L79.8303 15.775ZM103.037 4.5H105.912V22H103.662L95.4121 10.125V22H92.5371V4.5H94.7871L103.037 16.375V4.5ZM120.807 22L119.582 18.475H112.132L110.907 22H107.782L114.132 4.5H117.582L123.907 22H120.807ZM113.082 15.775H118.632L115.857 7.875L113.082 15.775ZM135.919 4.5V7.25H130.994V22H128.119V7.25H123.169V4.5H135.919ZM138.045 4.5H140.92V22H138.045V4.5Z" fill="#565B7D"/>
<path d="M4.35625 26.4V27.28H2.78025V32H1.86025V27.28H0.27625V26.4H4.35625ZM8.35656 26.4H9.27656V32H8.35656V29.576H5.95656V32H5.03656V26.4H5.95656V28.696H8.35656V26.4ZM11.3159 31.12H13.7959V32H10.3959V26.4H13.7559V27.28H11.3159V28.736H13.5559V29.608H11.3159V31.12ZM17.8221 32L16.2381 26.4H17.2061L18.3821 30.776L19.6541 26.4H20.5021L21.7661 30.776L22.9421 26.4H23.9101L22.3261 32H21.2621L20.0781 27.912L18.8861 32H17.8221ZM27.958 32L27.566 30.872H25.182L24.79 32H23.79L25.822 26.4H26.926L28.95 32H27.958ZM25.486 30.008H27.262L26.374 27.48L25.486 30.008ZM32.7442 32L31.5602 29.96H30.4722V32H29.5522V26.4H31.7922C32.2935 26.4 32.7175 26.576 33.0642 26.928C33.4162 27.2747 33.5922 27.6987 33.5922 28.2C33.5922 28.5573 33.4882 28.8853 33.2802 29.184C33.0775 29.4773 32.8109 29.6907 32.4802 29.824L33.7522 32H32.7442ZM30.4722 27.264V29.136H31.7922C32.0375 29.136 32.2455 29.0453 32.4162 28.864C32.5869 28.6827 32.6722 28.4613 32.6722 28.2C32.6722 27.9387 32.5869 27.7173 32.4162 27.536C32.2455 27.3547 32.0375 27.264 31.7922 27.264H30.4722ZM37.6504 32L36.4664 29.96H35.3784V32H34.4584V26.4H36.6984C37.1998 26.4 37.6238 26.576 37.9704 26.928C38.3224 27.2747 38.4984 27.6987 38.4984 28.2C38.4984 28.5573 38.3944 28.8853 38.1864 29.184C37.9838 29.4773 37.7171 29.6907 37.3864 29.824L38.6584 32H37.6504ZM35.3784 27.264V29.136H36.6984C36.9438 29.136 37.1518 29.0453 37.3224 28.864C37.4931 28.6827 37.5784 28.4613 37.5784 28.2C37.5784 27.9387 37.4931 27.7173 37.3224 27.536C37.1518 27.3547 36.9438 27.264 36.6984 27.264H35.3784ZM43.0127 32L42.6207 30.872H40.2367L39.8447 32H38.8447L40.8767 26.4H41.9807L44.0047 32H43.0127ZM40.5407 30.008H42.3167L41.4287 27.48L40.5407 30.008ZM47.9669 26.4H48.8869V32H48.1669L45.5269 28.2V32H44.6069V26.4H45.3269L47.9669 30.2V26.4ZM53.6453 26.4V27.28H52.0693V32H51.1493V27.28H49.5653V26.4H53.6453ZM58.6296 26.4L56.6776 29.776V32H55.7576V29.776L53.8056 26.4H54.8536L56.2216 28.88L57.5816 26.4H58.6296ZM65.4559 32H64.3599L62.1519 29.336V32H61.2319V26.4H62.1519V28.912L64.2799 26.4H65.3759L63.1119 29.128L65.4559 32ZM66.9722 31.12H69.4522V32H66.0522V26.4H69.4122V27.28H66.9722V28.736H69.2122V29.608H66.9722V31.12ZM71.2144 31.12H73.6944V32H70.2944V26.4H73.6544V27.28H71.2144V28.736H73.4544V29.608H71.2144V31.12ZM76.6006 26.4C77.1286 26.4 77.5686 26.576 77.9206 26.928C78.2779 27.28 78.4566 27.7173 78.4566 28.24C78.4566 28.7573 78.2779 29.1947 77.9206 29.552C77.5686 29.904 77.1286 30.08 76.6006 30.08H75.4566V32H74.5366V26.4H76.6006ZM76.6006 29.216C76.8726 29.216 77.0966 29.1253 77.2726 28.944C77.4486 28.7573 77.5366 28.5227 77.5366 28.24C77.5366 27.9573 77.4486 27.7253 77.2726 27.544C77.0966 27.3573 76.8726 27.264 76.6006 27.264H75.4566V29.216H76.6006ZM80.1753 31.12H82.6553V32H79.2553V26.4H82.6153V27.28H80.1753V28.736H82.4153V29.608H80.1753V31.12ZM86.6895 32L85.5055 29.96H84.4175V32H83.4975V26.4H85.7375C86.2388 26.4 86.6628 26.576 87.0095 26.928C87.3615 27.2747 87.5375 27.6987 87.5375 28.2C87.5375 28.5573 87.4335 28.8853 87.2255 29.184C87.0228 29.4773 86.7562 29.6907 86.4255 29.824L87.6975 32H86.6895ZM84.4175 27.264V29.136H85.7375C85.9828 29.136 86.1908 29.0453 86.3615 28.864C86.5322 28.6827 86.6175 28.4613 86.6175 28.2C86.6175 27.9387 86.5322 27.7173 86.3615 27.536C86.1908 27.3547 85.9828 27.264 85.7375 27.264H84.4175Z" fill="#494D66"/>
</svg>
