<svg width="35" height="35" viewBox="0 0 35 35" fill="none" xmlns="http://www.w3.org/2000/svg">
<path fill-rule="evenodd" clip-rule="evenodd" d="M31.2885 7.89835C31.4271 8.10865 31.4888 8.36032 31.4633 8.61087C31.4378 8.86142 31.3266 9.09549 31.1485 9.27356L17.7421 22.6786C17.6049 22.8156 17.4338 22.9138 17.2462 22.9629L11.6623 24.4213C11.4777 24.4694 11.2837 24.4684 11.0997 24.4184C10.9156 24.3685 10.7477 24.2712 10.6129 24.1363C10.478 24.0014 10.3807 23.8336 10.3307 23.6495C10.2807 23.4654 10.2798 23.2715 10.3279 23.0869L11.7862 17.5044C11.8288 17.3368 11.9091 17.1812 12.021 17.0494L25.4771 3.6021C25.6822 3.39727 25.9602 3.28223 26.25 3.28223C26.5398 3.28223 26.8178 3.39727 27.0229 3.6021L31.1485 7.72626C31.2009 7.77877 31.2478 7.83643 31.2885 7.89835ZM28.8283 8.49918L26.25 5.92231L13.8279 18.3444L12.9165 21.8342L16.4062 20.9227L28.8283 8.49918Z" fill="#4F5784"/>
<path d="M28.6431 25.0248C29.0417 21.6181 29.169 18.185 29.0238 14.7581C29.0206 14.6774 29.0341 14.5969 29.0635 14.5216C29.0928 14.4463 29.1374 14.3779 29.1944 14.3206L30.6294 12.8856C30.6686 12.8462 30.7184 12.8189 30.7727 12.8071C30.827 12.7953 30.8836 12.7994 30.9357 12.8189C30.9878 12.8385 31.0331 12.8727 31.0662 12.9174C31.0993 12.962 31.1188 13.0153 31.1223 13.0708C31.3924 17.1414 31.2899 21.2281 30.8161 25.28C30.4719 28.2288 28.1036 30.5402 25.1679 30.8683C20.0716 31.4327 14.9285 31.4327 9.83209 30.8683C6.89793 30.5402 4.52814 28.2288 4.18397 25.28C3.57934 20.1108 3.57934 14.8888 4.18397 9.71959C4.52814 6.77084 6.89647 4.45938 9.83209 4.13125C13.7001 3.70233 17.5973 3.59842 21.4827 3.82063C21.5383 3.82462 21.5916 3.84446 21.6363 3.87781C21.681 3.91116 21.7152 3.95661 21.7348 4.00878C21.7544 4.06096 21.7587 4.11766 21.7471 4.17219C21.7355 4.22672 21.7086 4.27679 21.6694 4.31646L20.2213 5.76313C20.1645 5.81964 20.0969 5.86393 20.0224 5.89327C19.9479 5.92262 19.8682 5.93639 19.7881 5.93375C16.5459 5.82354 13.2999 5.94782 10.0756 6.30563C9.13347 6.40991 8.25396 6.82877 7.57919 7.49454C6.90443 8.16031 6.4738 9.03411 6.35689 9.97479C5.77216 14.9744 5.77216 20.0252 6.35689 25.0248C6.4738 25.9655 6.90443 26.8393 7.57919 27.5051C8.25396 28.1708 9.13347 28.5897 10.0756 28.694C14.9683 29.2408 20.0317 29.2408 24.9258 28.694C25.868 28.5897 26.7475 28.1708 27.4223 27.5051C28.097 26.8393 28.5262 25.9655 28.6431 25.0248Z" fill="#4F5784"/>
</svg>
