<svg width="133" height="42" viewBox="0 0 133 42" fill="none" xmlns="http://www.w3.org/2000/svg">
<path d="M112.707 21.7071C113.098 21.3166 113.098 20.6834 112.707 20.2929L106.343 13.9289C105.953 13.5384 105.319 13.5384 104.929 13.9289C104.538 14.3195 104.538 14.9526 104.929 15.3431L110.586 21L104.929 26.6569C104.538 27.0474 104.538 27.6805 104.929 28.0711C105.319 28.4616 105.953 28.4616 106.343 28.0711L112.707 21.7071ZM0 22H112V20H0V22Z" fill="#565B7D"/>
<g clip-path="url(#clip0_1_3099)">
<circle cx="103.5" cy="21" r="21" fill="url(#paint0_linear_1_3099)"/>
<path d="M115.207 21.7071C115.598 21.3166 115.598 20.6834 115.207 20.2929L108.843 13.9289C108.453 13.5384 107.819 13.5384 107.429 13.9289C107.038 14.3195 107.038 14.9526 107.429 15.3431L113.086 21L107.429 26.6569C107.038 27.0474 107.038 27.6805 107.429 28.0711C107.819 28.4616 108.453 28.4616 108.843 28.0711L115.207 21.7071ZM2.5 22H114.5V20H2.5V22Z" fill="#EAEFF5"/>
</g>
<defs>
<linearGradient id="paint0_linear_1_3099" x1="93.5" y1="3.5" x2="117" y2="35.5" gradientUnits="userSpaceOnUse">
<stop stop-color="#7A85B7"/>
<stop offset="1" stop-color="#424566"/>
</linearGradient>
<clipPath id="clip0_1_3099">
<rect width="42" height="42" fill="white" transform="translate(82.5)"/>
</clipPath>
</defs>
</svg>
