<svg width="9" height="6" viewBox="0 0 9 6" fill="none" xmlns="http://www.w3.org/2000/svg">
<g clip-path="url(#clip0_23_529)">
<path d="M5.12951 5.21712L8.86311 1.2986C8.92544 1.23322 8.96021 1.14635 8.96021 1.05602C8.96021 0.965692 8.92544 0.878828 8.86311 0.813446L8.85889 0.809227C8.82867 0.777421 8.7923 0.752094 8.75199 0.734787C8.71168 0.717481 8.66827 0.708556 8.6244 0.708556C8.58053 0.708556 8.53711 0.717481 8.4968 0.734787C8.45649 0.752094 8.42012 0.777421 8.3899 0.809227L4.87428 4.49923L1.36006 0.809227C1.32984 0.777421 1.29347 0.752094 1.25316 0.734787C1.21285 0.717481 1.16944 0.708556 1.12557 0.708556C1.0817 0.708556 1.03829 0.717481 0.997974 0.734787C0.957662 0.752094 0.921291 0.777421 0.891076 0.809227L0.886856 0.813446C0.824528 0.878828 0.789758 0.965692 0.789758 1.05602C0.789758 1.14635 0.824528 1.23322 0.886856 1.2986L4.62045 5.21712C4.65328 5.25158 4.69277 5.27901 4.73653 5.29776C4.78028 5.31651 4.82738 5.32617 4.87498 5.32617C4.92258 5.32617 4.96968 5.31651 5.01344 5.29776C5.05719 5.27901 5.09668 5.25158 5.12951 5.21712Z" fill="#282C3E"/>
</g>
<defs>
<clipPath id="clip0_23_529">
<rect width="8.25" height="6" fill="white" transform="matrix(-1 0 0 -1 9 6)"/>
</clipPath>
</defs>
</svg>
