<svg width="16" height="17" viewBox="0 0 16 17" fill="none" xmlns="http://www.w3.org/2000/svg">
<path fill-rule="evenodd" clip-rule="evenodd" d="M0.67419 7.94236C2.70808 5.02692 5.34532 3.49805 7.98748 3.49805C11.0905 3.49805 13.7635 5.51958 15.3404 7.95515L15.3412 7.9563C15.4456 8.11857 15.5011 8.30747 15.5011 8.50044C15.5011 8.69309 15.4458 8.88167 15.3417 9.04376C13.7661 11.5107 11.1105 13.5019 7.98748 13.5019C4.8312 13.5019 2.22673 11.5148 0.655012 9.05499C0.548148 8.88904 0.492722 8.69519 0.495721 8.4978C0.498728 8.29991 0.560324 8.10736 0.672727 7.94447L0.674184 7.94235L0.67419 7.94236ZM1.49767 8.51303L1.49876 8.51472L1.49875 8.51472C2.95026 10.7868 5.27661 12.5 7.98748 12.5C10.668 12.5 13.0445 10.7795 14.4977 8.50385L14.4987 8.50236C14.4991 8.50179 14.4992 8.50112 14.4992 8.50044C14.4992 8.49976 14.4991 8.4991 14.4987 8.49853L14.9199 8.22743L14.4994 8.49967C13.0407 6.24673 10.6444 4.49994 7.98748 4.49994C5.75802 4.49994 3.39808 5.79024 1.49767 8.51303ZM7.99843 6.49994C6.89388 6.49994 5.99847 7.39535 5.99847 8.49989C5.99847 9.60444 6.89388 10.4998 7.99843 10.4998C9.10297 10.4998 9.99839 9.60444 9.99839 8.49989C9.99839 7.39535 9.10297 6.49994 7.99843 6.49994ZM4.99658 8.49989C4.99658 6.84202 6.34056 5.49805 7.99843 5.49805C9.6563 5.49805 11.0003 6.84202 11.0003 8.49989C11.0003 10.1578 9.6563 11.5017 7.99843 11.5017C6.34055 11.5017 4.99658 10.1578 4.99658 8.49989Z" fill="#4F575E"/>
</svg>
