<svg width="16" height="16" viewBox="0 0 16 16" fill="none" xmlns="http://www.w3.org/2000/svg">
<path fill-rule="evenodd" clip-rule="evenodd" d="M0.497314 4.5015C0.497314 4.22483 0.721595 4.00055 0.99826 4.00055H15.0013C15.278 4.00055 15.5023 4.22483 15.5023 4.5015C15.5023 4.77816 15.278 5.00244 15.0013 5.00244H0.99826C0.721595 5.00244 0.497314 4.77816 0.497314 4.5015ZM2.99829 8.00211C2.99829 7.72544 3.22257 7.50116 3.49924 7.50116H12.5012C12.7779 7.50116 13.0021 7.72544 13.0021 8.00211C13.0021 8.27877 12.7779 8.50305 12.5012 8.50305H3.49924C3.22257 8.50305 2.99829 8.27877 2.99829 8.00211ZM5.99829 11.503C5.99829 11.2263 6.22257 11.002 6.49924 11.002H9.5021C9.77876 11.002 10.003 11.2263 10.003 11.503C10.003 11.7796 9.77876 12.0039 9.5021 12.0039H6.49924C6.22257 12.0039 5.99829 11.7796 5.99829 11.503Z" fill="white"/>
</svg>
