<svg width="25" height="25" viewBox="0 0 25 25" fill="none" xmlns="http://www.w3.org/2000/svg">
<path fill-rule="evenodd" clip-rule="evenodd" d="M12.4999 3.40918C12.6497 3.40927 12.7976 3.44302 12.9326 3.50793C13.0676 3.57283 13.1863 3.66724 13.2799 3.78418L17.2799 8.78418C17.3669 8.88605 17.4326 9.00435 17.4729 9.13207C17.5133 9.25978 17.5276 9.39431 17.515 9.52767C17.5024 9.66102 17.4631 9.79049 17.3995 9.90837C17.3359 10.0263 17.2493 10.1302 17.1448 10.2139C17.0402 10.2977 16.9199 10.3596 16.791 10.396C16.6621 10.4323 16.5272 10.4424 16.3943 10.4257C16.2614 10.4089 16.1332 10.3656 16.0174 10.2984C15.9015 10.2311 15.8004 10.1413 15.7199 10.0342L13.4999 7.25918V14.4092C13.4999 14.6744 13.3946 14.9288 13.207 15.1163C13.0195 15.3038 12.7652 15.4092 12.4999 15.4092C12.2347 15.4092 11.9804 15.3038 11.7928 15.1163C11.6053 14.9288 11.4999 14.6744 11.4999 14.4092V7.25918L9.27994 10.0352C9.19948 10.1423 9.09833 10.2321 8.98249 10.2994C8.86665 10.3666 8.73847 10.4099 8.60558 10.4267C8.47268 10.4434 8.33777 10.4333 8.20885 10.397C8.07994 10.3606 7.95964 10.2987 7.85511 10.2149C7.75058 10.1312 7.66394 10.0273 7.60033 9.90937C7.53673 9.79149 7.49746 9.66202 7.48485 9.52867C7.47225 9.39531 7.48656 9.26078 7.52694 9.13307C7.56733 9.00535 7.63296 8.88705 7.71994 8.78518L11.7199 3.78518C11.8135 3.66806 11.9321 3.57346 12.0671 3.50838C12.2021 3.4433 12.3501 3.40939 12.4999 3.40918ZM9.49994 14.4092V13.4092H5.49994C4.96951 13.4092 4.4608 13.6199 4.08573 13.995C3.71065 14.37 3.49994 14.8787 3.49994 15.4092V19.4092C3.49994 19.9396 3.71065 20.4483 4.08573 20.8234C4.4608 21.1985 4.96951 21.4092 5.49994 21.4092H19.4999C20.0304 21.4092 20.5391 21.1985 20.9142 20.8234C21.2892 20.4483 21.4999 19.9396 21.4999 19.4092V15.4092C21.4999 14.8787 21.2892 14.37 20.9142 13.995C20.5391 13.6199 20.0304 13.4092 19.4999 13.4092H15.4999V14.4092C15.4999 15.2048 15.1839 15.9679 14.6213 16.5305C14.0587 17.0931 13.2956 17.4092 12.4999 17.4092C11.7043 17.4092 10.9412 17.0931 10.3786 16.5305C9.81601 15.9679 9.49994 15.2048 9.49994 14.4092ZM17.4999 16.4092C17.2347 16.4092 16.9804 16.5145 16.7928 16.7021C16.6053 16.8896 16.4999 17.144 16.4999 17.4092C16.4999 17.6744 16.6053 17.9288 16.7928 18.1163C16.9804 18.3038 17.2347 18.4092 17.4999 18.4092H17.5099C17.7752 18.4092 18.0295 18.3038 18.217 18.1163C18.4046 17.9288 18.5099 17.6744 18.5099 17.4092C18.5099 17.144 18.4046 16.8896 18.217 16.7021C18.0295 16.5145 17.7752 16.4092 17.5099 16.4092H17.4999Z" fill="white"/>
</svg>
