<svg width="24" height="24" viewBox="0 0 24 24" fill="none" xmlns="http://www.w3.org/2000/svg">
<g clip-path="url(#clip0_1_2576)">
<path fill-rule="evenodd" clip-rule="evenodd" d="M12 0.1875C12.1966 0.187623 12.3907 0.231916 12.5679 0.317106C12.7451 0.402297 12.9009 0.526208 13.0237 0.679688L18.2738 7.24219C18.3879 7.37589 18.4741 7.53116 18.5271 7.69879C18.5801 7.86642 18.5988 8.04299 18.5823 8.21802C18.5658 8.39305 18.5142 8.56297 18.4307 8.71769C18.3473 8.87242 18.2335 9.0088 18.0963 9.11873C17.9591 9.22867 17.8013 9.30992 17.6321 9.35766C17.4628 9.4054 17.2858 9.41866 17.1114 9.39666C16.9369 9.37466 16.7687 9.31783 16.6167 9.22956C16.4646 9.14129 16.3318 9.02338 16.2262 8.88281L13.3125 5.24062V14.625C13.3125 14.9731 13.1742 15.3069 12.9281 15.5531C12.6819 15.7992 12.3481 15.9375 12 15.9375C11.6519 15.9375 11.3181 15.7992 11.0719 15.5531C10.8258 15.3069 10.6875 14.9731 10.6875 14.625V5.24062L7.77375 8.88413C7.66815 9.02469 7.53539 9.14261 7.38335 9.23088C7.2313 9.31915 7.06308 9.37597 6.88865 9.39797C6.71422 9.41998 6.53715 9.40672 6.36795 9.35897C6.19875 9.31123 6.04086 9.22998 5.90366 9.12004C5.76646 9.01011 5.65275 8.87373 5.56927 8.71901C5.48579 8.56428 5.43425 8.39436 5.4177 8.21933C5.40115 8.0443 5.41994 7.86773 5.47294 7.7001C5.52594 7.53247 5.61208 7.3772 5.72625 7.2435L10.9763 0.681C11.099 0.52728 11.2547 0.403119 11.4319 0.317698C11.6091 0.232276 11.8033 0.18778 12 0.1875ZM8.0625 14.625V13.3125H2.8125C2.11631 13.3125 1.44863 13.5891 0.956345 14.0813C0.464062 14.5736 0.1875 15.2413 0.1875 15.9375V21.1875C0.1875 21.8837 0.464062 22.5514 0.956345 23.0437C1.44863 23.5359 2.11631 23.8125 2.8125 23.8125H21.1875C21.8837 23.8125 22.5514 23.5359 23.0437 23.0437C23.5359 22.5514 23.8125 21.8837 23.8125 21.1875V15.9375C23.8125 15.2413 23.5359 14.5736 23.0437 14.0813C22.5514 13.5891 21.8837 13.3125 21.1875 13.3125H15.9375V14.625C15.9375 15.6693 15.5227 16.6708 14.7842 17.4092C14.0458 18.1477 13.0443 18.5625 12 18.5625C10.9557 18.5625 9.95419 18.1477 9.21577 17.4092C8.47734 16.6708 8.0625 15.6693 8.0625 14.625ZM18.5625 17.25C18.2144 17.25 17.8806 17.3883 17.6344 17.6344C17.3883 17.8806 17.25 18.2144 17.25 18.5625C17.25 18.9106 17.3883 19.2444 17.6344 19.4906C17.8806 19.7367 18.2144 19.875 18.5625 19.875H18.5756C18.9237 19.875 19.2576 19.7367 19.5037 19.4906C19.7498 19.2444 19.8881 18.9106 19.8881 18.5625C19.8881 18.2144 19.7498 17.8806 19.5037 17.6344C19.2576 17.3883 18.9237 17.25 18.5756 17.25H18.5625Z" fill="#929CC2"/>
</g>
<defs>
<clipPath id="clip0_1_2576">
<rect width="24" height="24" fill="white"/>
</clipPath>
</defs>
</svg>
