<svg width="32" height="32" viewBox="0 0 32 32" fill="none" xmlns="http://www.w3.org/2000/svg">
<path d="M19 2C18.2044 2 17.4413 2.31607 16.8787 2.87868C16.3161 3.44129 16 4.20435 16 5V10C16 10.7956 16.3161 11.5587 16.8787 12.1213C17.4413 12.6839 18.2044 13 19 13V14.493C19 15.854 20.668 16.512 21.597 15.517L23.945 13H27C27.7956 13 28.5587 12.6839 29.1213 12.1213C29.6839 11.5587 30 10.7956 30 10V5C30 4.20435 29.6839 3.44129 29.1213 2.87868C28.5587 2.31607 27.7956 2 27 2H19ZM17 5C17 4.46957 17.2107 3.96086 17.5858 3.58579C17.9609 3.21071 18.4696 3 19 3H27C27.5304 3 28.0391 3.21071 28.4142 3.58579C28.7893 3.96086 29 4.46957 29 5V10C29 10.5304 28.7893 11.0391 28.4142 11.4142C28.0391 11.7893 27.5304 12 27 12H23.728C23.6593 12 23.5914 12.014 23.5285 12.0414C23.4655 12.0688 23.4088 12.1088 23.362 12.159L20.866 14.834C20.7976 14.9075 20.7086 14.9587 20.6106 14.981C20.5127 15.0032 20.4103 14.9954 20.3168 14.9586C20.2233 14.9218 20.1431 14.8577 20.0866 14.7746C20.0301 14.6916 19.9999 14.5934 20 14.493V12.5C20 12.3674 19.9473 12.2402 19.8536 12.1464C19.7598 12.0527 19.6326 12 19.5 12H19C18.4696 12 17.9609 11.7893 17.5858 11.4142C17.2107 11.0391 17 10.5304 17 10V5ZM10.5 9C9.43913 9 8.42172 9.42143 7.67157 10.1716C6.92143 10.9217 6.5 11.9391 6.5 13C6.5 14.0609 6.92143 15.0783 7.67157 15.8284C8.42172 16.5786 9.43913 17 10.5 17C11.5609 17 12.5783 16.5786 13.3284 15.8284C14.0786 15.0783 14.5 14.0609 14.5 13C14.5 11.9391 14.0786 10.9217 13.3284 10.1716C12.5783 9.42143 11.5609 9 10.5 9ZM5.5 13C5.5 11.6739 6.02678 10.4021 6.96447 9.46447C7.90215 8.52678 9.17392 8 10.5 8C11.8261 8 13.0979 8.52678 14.0355 9.46447C14.9732 10.4021 15.5 11.6739 15.5 13C15.5 14.3261 14.9732 15.5979 14.0355 16.5355C13.0979 17.4732 11.8261 18 10.5 18C9.17392 18 7.90215 17.4732 6.96447 16.5355C6.02678 15.5979 5.5 14.3261 5.5 13ZM2 23C2 22.2044 2.31607 21.4413 2.87868 20.8787C3.44129 20.3161 4.20435 20 5 20H16C16.7956 20 17.5587 20.3161 18.1213 20.8787C18.6839 21.4413 19 22.2044 19 23V23.5C19 24.1 18.72 25.716 17.512 27.192C16.282 28.694 14.135 30 10.5 30C6.865 30 4.717 28.694 3.488 27.192C2.281 25.716 2 24.1 2 23.5V23ZM5 21C4.46957 21 3.96086 21.2107 3.58579 21.5858C3.21071 21.9609 3 22.4696 3 23V23.5C3 23.9 3.22 25.284 4.262 26.558C5.282 27.806 7.135 29 10.5 29C13.865 29 15.717 27.806 16.738 26.558C17.781 25.284 18 23.9 18 23.5V23C18 22.4696 17.7893 21.9609 17.4142 21.5858C17.0391 21.2107 16.5304 21 16 21H5Z" fill="#454C6A"/>
</svg>
