<svg width="233" height="234" viewBox="0 0 233 234" fill="none" xmlns="http://www.w3.org/2000/svg">
<rect x="1" y="1" width="231" height="232" rx="115.5" stroke="url(#paint0_linear_1_3186)" stroke-width="2"/>
<path d="M156.545 130.417C160.695 130.42 164.674 132.071 167.607 135.007C170.54 137.943 172.188 141.923 172.188 146.073V152.461C172.188 156.448 170.942 160.335 168.625 163.58C157.867 178.638 140.305 186.09 116.507 186.09C92.6957 186.09 75.1399 178.631 64.4101 163.573C62.1008 160.33 60.8603 156.448 60.8614 152.468V146.066C60.8632 141.916 62.5126 137.937 65.447 135.002C68.3814 132.068 72.3608 130.418 76.5106 130.417H156.545ZM116.5 46.9514C121.069 46.9514 125.593 47.8513 129.814 49.5998C134.036 51.3482 137.871 53.911 141.102 57.1417C144.332 60.3724 146.895 64.2078 148.644 68.4289C150.392 72.65 151.292 77.1742 151.292 81.7431C151.292 86.312 150.392 90.8362 148.644 95.0573C146.895 99.2784 144.332 103.114 141.102 106.345C137.871 109.575 134.036 112.138 129.814 113.886C125.593 115.635 121.069 116.535 116.5 116.535C107.273 116.535 98.4235 112.869 91.8988 106.345C85.3741 99.8198 81.7085 90.9704 81.7085 81.7431C81.7085 72.5158 85.3741 63.6664 91.8988 57.1417C98.4235 50.617 107.273 46.9514 116.5 46.9514Z" fill="url(#paint1_linear_1_3186)"/>
<defs>
<linearGradient id="paint0_linear_1_3186" x1="116.5" y1="0" x2="116.5" y2="234" gradientUnits="userSpaceOnUse">
<stop stop-color="#A8B4D1"/>
<stop offset="1" stop-color="#EAEFF5"/>
</linearGradient>
<linearGradient id="paint1_linear_1_3186" x1="116.525" y1="46.9514" x2="116.525" y2="186.09" gradientUnits="userSpaceOnUse">
<stop stop-color="#D9E1EC"/>
<stop offset="1" stop-color="#929CC2"/>
</linearGradient>
</defs>
</svg>
