<svg width="20" height="20" viewBox="0 0 20 20" fill="none" xmlns="http://www.w3.org/2000/svg">
<g clip-path="url(#clip0_1_2981)">
<path d="M8.53583 13.595L5 10.0583L6.17833 8.87996L8.53583 11.2366L13.2492 6.52246L14.4283 7.70163L8.53583 13.595Z" fill="#A4DB40"/>
<path fill-rule="evenodd" clip-rule="evenodd" d="M0.833374 4.16659C0.833374 3.28253 1.18456 2.43468 1.80968 1.80956C2.43481 1.18444 3.28265 0.833252 4.16671 0.833252H15.8334C16.7174 0.833252 17.5653 1.18444 18.1904 1.80956C18.8155 2.43468 19.1667 3.28253 19.1667 4.16659V15.8333C19.1667 16.7173 18.8155 17.5652 18.1904 18.1903C17.5653 18.8154 16.7174 19.1666 15.8334 19.1666H4.16671C3.28265 19.1666 2.43481 18.8154 1.80968 18.1903C1.18456 17.5652 0.833374 16.7173 0.833374 15.8333V4.16659ZM4.16671 2.49992H15.8334C16.2754 2.49992 16.6993 2.67551 17.0119 2.98807C17.3244 3.30063 17.5 3.72456 17.5 4.16659V15.8333C17.5 16.2753 17.3244 16.6992 17.0119 17.0118C16.6993 17.3243 16.2754 17.4999 15.8334 17.4999H4.16671C3.72468 17.4999 3.30076 17.3243 2.9882 17.0118C2.67564 16.6992 2.50004 16.2753 2.50004 15.8333V4.16659C2.50004 3.72456 2.67564 3.30063 2.9882 2.98807C3.30076 2.67551 3.72468 2.49992 4.16671 2.49992Z" fill="#A4DB40"/>
</g>
<defs>
<clipPath id="clip0_1_2981">
<rect width="20" height="20" fill="white"/>
</clipPath>
</defs>
</svg>
