<svg width="108" height="94" viewBox="0 0 108 94" fill="none" xmlns="http://www.w3.org/2000/svg">
<path d="M0.000732422 36.0984L44.4792 1.63381C47.2908 -0.544603 51.2198 -0.544603 54.0314 1.63381L98.5099 36.0984V93.8566H0.000732422V36.0984Z" fill="#EE8F23"/>
<path d="M87.1141 5.48474H11.3957V88.7542H87.1141V5.48474Z" fill="#FAFAFA"/>
<path d="M82.5559 10.4972H15.9538V13.0358H82.5559V10.4972Z" fill="#DBDBDB"/>
<path d="M72.5552 15.5996H15.9538V18.1382H72.5552V15.5996Z" fill="#DBDBDB"/>
<path d="M63.3712 20.702H15.9538V23.2406H63.3712V20.702Z" fill="#DBDBDB"/>
<path d="M63.3712 30.498H15.9538V33.0367H63.3712V30.498Z" fill="#DBDBDB"/>
<path d="M51.1256 35.3962H15.9538V37.9348H51.1256V35.3962Z" fill="#DBDBDB"/>
<path d="M84.4264 45.6592H49.2546V48.1978H84.4264V45.6592Z" fill="#DBDBDB"/>
<path d="M84.4263 50.6583H55.8196V53.1969H84.4263V50.6583Z" fill="#DBDBDB"/>
<path d="M49.2547 64.9947L0.000732422 36.1328V93.8567L49.2547 64.9947Z" fill="#FFAC42"/>
<path d="M49.2546 64.9947L98.5092 36.1328V93.8567L49.2546 64.9947Z" fill="#FFAC42"/>
<path d="M44.4785 59.3921L0 93.8566H98.5086L54.0301 59.3921C51.219 57.2137 47.2901 57.2137 44.4785 59.3921Z" fill="#FFBE6E"/>
<path d="M105.937 38.2006C107.077 34.1007 104.676 29.8537 100.576 28.7146C96.4766 27.5754 92.2295 29.9756 91.0904 34.0755C89.9513 38.1754 92.3515 42.4225 96.4513 43.5616C100.551 44.7007 104.798 42.3005 105.937 38.2006Z" fill="#FC6D5F"/>
<path d="M96.7736 32.2263V39.6563H94.6715V33.8501H93.2914V32.2263H96.7736Z" fill="white"/>
<path d="M102.978 35.5695C103.477 35.9939 103.726 36.5606 103.726 37.2678C103.726 37.7278 103.608 38.1505 103.371 38.536C103.134 38.922 102.772 39.2294 102.288 39.4594C101.803 39.6894 101.203 39.8047 100.488 39.8047C99.9642 39.8047 99.4469 39.7411 98.9335 39.6137C98.4202 39.4864 97.9797 39.3063 97.612 39.0723L98.3657 37.4909C98.6628 37.6894 98.9903 37.8414 99.3476 37.9475C99.7044 38.0536 100.064 38.1064 100.425 38.1064C100.786 38.1064 101.074 38.0375 101.29 37.8993C101.506 37.7611 101.614 37.5684 101.614 37.3206C101.614 37.0734 101.508 36.8852 101.295 36.7579C101.083 36.6306 100.708 36.5669 100.17 36.5669H98.154L98.5251 32.2256H103.259V33.8494H100.266L100.17 34.9322H100.669C101.709 34.9328 102.479 35.145 102.978 35.5695Z" fill="white"/>
</svg>
