<svg width="32" height="32" viewBox="0 0 32 32" fill="none" xmlns="http://www.w3.org/2000/svg">
<path d="M11.3333 22.0001C11.8062 21.181 12.4864 20.5008 13.3056 20.028C14.1248 19.5552 15.0541 19.3065 15.9999 19.3067C17.9946 19.3067 19.7346 20.3894 20.6666 22.0001M18.6666 13.3334C18.6666 14.0407 18.3856 14.7189 17.8855 15.219C17.3854 15.7191 16.7072 16.0001 15.9999 16.0001C15.2927 16.0001 14.6144 15.7191 14.1143 15.219C13.6142 14.7189 13.3333 14.0407 13.3333 13.3334C13.3333 12.6262 13.6142 11.9479 14.1143 11.4478C14.6144 10.9477 15.2927 10.6667 15.9999 10.6667C16.7072 10.6667 17.3854 10.9477 17.8855 11.4478C18.3856 11.9479 18.6666 12.6262 18.6666 13.3334Z" stroke="#454C6A" stroke-linecap="round" stroke-linejoin="round"/>
<path d="M29.3333 18.6227V13.3774C25.524 13.3774 23.048 9.24004 24.976 5.95604L20.3573 3.33337C18.4053 6.65871 13.5973 6.65871 11.6453 3.33337L7.02663 5.95604C8.95463 9.24004 6.47596 13.3774 2.66663 13.3774V18.6227C6.47596 18.6227 8.95196 22.76 7.02396 26.044L11.6426 28.6667C13.596 25.34 18.4066 25.34 20.36 28.6667L24.9786 26.044C23.0493 22.76 25.5253 18.6227 29.3333 18.6227Z" stroke="#454C6A" stroke-linecap="round" stroke-linejoin="round"/>
</svg>
