<svg width="32" height="32" viewBox="0 0 32 32" fill="none" xmlns="http://www.w3.org/2000/svg">
<path fill-rule="evenodd" clip-rule="evenodd" d="M22.6667 4C21.2522 4 19.8956 4.5619 18.8954 5.5621C17.8952 6.56229 17.3333 7.91885 17.3333 9.33333C17.3333 10.7478 17.8952 12.1044 18.8954 13.1046C19.8956 14.1048 21.2522 14.6667 22.6667 14.6667C24.0812 14.6667 25.4377 14.1048 26.4379 13.1046C27.4381 12.1044 28 10.7478 28 9.33333C28 7.91885 27.4381 6.56229 26.4379 5.5621C25.4377 4.5619 24.0812 4 22.6667 4ZM4 22.6667C4 21.2522 4.5619 19.8956 5.5621 18.8954C6.56229 17.8952 7.91885 17.3333 9.33333 17.3333C10.7478 17.3333 12.1044 17.8952 13.1046 18.8954C14.1048 19.8956 14.6667 21.2522 14.6667 22.6667C14.6667 24.0812 14.1048 25.4377 13.1046 26.4379C12.1044 27.4381 10.7478 28 9.33333 28C7.91885 28 6.56229 27.4381 5.5621 26.4379C4.5619 25.4377 4 24.0812 4 22.6667ZM17.3333 18.6667C17.3333 18.313 17.4738 17.9739 17.7239 17.7239C17.9739 17.4738 18.313 17.3333 18.6667 17.3333H26.6667C27.0203 17.3333 27.3594 17.4738 27.6095 17.7239C27.8595 17.9739 28 18.313 28 18.6667V25.3333C28 26.0406 27.719 26.7189 27.219 27.219C26.7189 27.719 26.0406 28 25.3333 28H20C19.2928 28 18.6145 27.719 18.1144 27.219C17.6143 26.7189 17.3333 26.0406 17.3333 25.3333V18.6667ZM4 5.33333C4 4.97971 4.14048 4.64057 4.39052 4.39052C4.64057 4.14048 4.97971 4 5.33333 4H13.3333C13.687 4 14.0261 4.14048 14.2761 4.39052C14.5262 4.64057 14.6667 4.97971 14.6667 5.33333V12C14.6667 12.7072 14.3857 13.3855 13.8856 13.8856C13.3855 14.3857 12.7072 14.6667 12 14.6667H6.66667C5.95942 14.6667 5.28115 14.3857 4.78105 13.8856C4.28095 13.3855 4 12.7072 4 12V5.33333Z" fill="#111111"/>
</svg>
