<svg width="35" height="35" viewBox="0 0 35 35" fill="none" xmlns="http://www.w3.org/2000/svg">
<path d="M17.5 3C9.44558 3 2.91663 9.52896 2.91663 17.5833C2.91663 25.6377 9.44558 32.1667 17.5 32.1667C25.5543 32.1667 32.0833 25.6377 32.0833 17.5833C32.0833 9.52896 25.5543 3 17.5 3Z" stroke="#494D66" stroke-width="1.5" stroke-linecap="round" stroke-linejoin="round"/>
<path d="M6.22852 26.8379C6.22852 26.8379 9.47914 22.6875 17.5 22.6875C25.5208 22.6875 28.7729 26.8379 28.7729 26.8379M17.5 17.5833C18.6603 17.5833 19.7731 17.1224 20.5936 16.3019C21.414 15.4814 21.875 14.3686 21.875 13.2083C21.875 12.048 21.414 10.9352 20.5936 10.1147C19.7731 9.29425 18.6603 8.83331 17.5 8.83331C16.3397 8.83331 15.2269 9.29425 14.4064 10.1147C13.5859 10.9352 13.125 12.048 13.125 13.2083C13.125 14.3686 13.5859 15.4814 14.4064 16.3019C15.2269 17.1224 16.3397 17.5833 17.5 17.5833Z" stroke="#494D66" stroke-width="1.5" stroke-linecap="round" stroke-linejoin="round"/>
</svg>
