<svg width="50" height="50" viewBox="0 0 50 50" fill="none" xmlns="http://www.w3.org/2000/svg">
<path d="M31.25 14.5833H18.75M31.25 22.9167H18.75M31.25 31.25H22.9166M10.4166 6.25H39.5833V43.75L37.4333 41.9083C36.6781 41.2611 35.7164 40.9054 34.7218 40.9054C33.7273 40.9054 32.7655 41.2611 32.0104 41.9083L29.8604 43.75L27.7125 41.9083C26.9572 41.2606 25.995 40.9045 25 40.9045C24.0049 40.9045 23.0428 41.2606 22.2875 41.9083L20.1395 43.75L17.9895 41.9083C17.2344 41.2611 16.2726 40.9054 15.2781 40.9054C14.2835 40.9054 13.3218 41.2611 12.5666 41.9083L10.4166 43.75V6.25Z" stroke="white" stroke-width="2" stroke-linecap="round" stroke-linejoin="round"/>
</svg>
