<svg width="24" height="24" viewBox="0 0 24 24" fill="none" xmlns="http://www.w3.org/2000/svg">
<path d="M10.5 3C7.6095 3 5.25 5.3595 5.25 8.25C5.25 10.0575 6.1725 11.664 7.5705 12.6097C4.89525 13.7572 3 16.41 3 19.5H4.5C4.5 16.1775 7.1775 13.5 10.5 13.5C11.532 13.5 12.4905 13.7685 13.335 14.2275C12.471 15.295 11.9998 16.6267 12 18C12 21.3045 14.6955 24 18 24C21.3045 24 24 21.3045 24 18C24 14.6955 21.3045 12 18 12C16.7362 12.0017 15.5055 12.4034 14.484 13.1475C14.1525 12.9398 13.794 12.765 13.4295 12.609C14.1433 12.1276 14.7281 11.4785 15.1327 10.7185C15.5372 9.95855 15.7492 9.11095 15.75 8.25C15.75 5.3595 13.3905 3 10.5 3ZM10.5 4.5C12.5798 4.5 14.25 6.17025 14.25 8.25C14.25 10.3298 12.5798 12 10.5 12C8.42025 12 6.75 10.3298 6.75 8.25C6.75 6.17025 8.42025 4.5 10.5 4.5ZM18 13.5C20.4945 13.5 22.5 15.5055 22.5 18C22.5 20.4945 20.4945 22.5 18 22.5C15.5055 22.5 13.5 20.4945 13.5 18C13.5 15.5055 15.5055 13.5 18 13.5ZM17.25 15V17.25H15V18.75H17.25V21H18.75V18.75H21V17.25H18.75V15H17.25Z" fill="#565B7D"/>
</svg>
