<svg width="19" height="19" viewBox="0 0 19 19" fill="none" xmlns="http://www.w3.org/2000/svg">
<path fill-rule="evenodd" clip-rule="evenodd" d="M1.74805 9.20907C1.74805 5.18858 5.00798 1.92865 9.02847 1.92865C13.049 1.92865 16.3089 5.18858 16.3089 9.20907C16.3089 13.2296 13.049 16.4895 9.02847 16.4895C5.00798 16.4895 1.74805 13.2296 1.74805 9.20907ZM9.02847 3.09328C5.65119 3.09328 2.91268 5.83179 2.91268 9.20907C2.91268 12.5863 5.65119 15.3249 9.02847 15.3249C12.4057 15.3249 15.1443 12.5863 15.1443 9.20907C15.1443 5.83179 12.4057 3.09328 9.02847 3.09328ZM8.18021 4.58974C8.43206 4.42145 8.72816 4.33163 9.03106 4.33163C9.43724 4.33163 9.82679 4.49299 10.114 4.7802C10.4012 5.06741 10.5626 5.45695 10.5626 5.86313C10.5626 6.16603 10.4727 6.46213 10.3045 6.71399C10.1362 6.96584 9.89699 7.16214 9.61714 7.27805C9.3373 7.39397 9.02936 7.42429 8.73228 7.3652C8.4352 7.30611 8.16232 7.16025 7.94813 6.94606C7.73395 6.73188 7.58809 6.45899 7.52899 6.16191C7.4699 5.86483 7.50023 5.5569 7.61614 5.27705C7.73206 4.99721 7.92836 4.75802 8.18021 4.58974ZM9.03106 5.49627C8.95851 5.49627 8.88758 5.51778 8.82725 5.55809C8.76691 5.59841 8.71989 5.6557 8.69213 5.72274C8.66436 5.78977 8.65709 5.86354 8.67125 5.9347C8.6854 6.00587 8.72035 6.07124 8.77165 6.12254C8.82296 6.17385 8.88833 6.20879 8.95949 6.22295C9.03066 6.2371 9.10442 6.22984 9.17146 6.20207C9.23849 6.1743 9.29579 6.12728 9.3361 6.06695C9.37641 6.00662 9.39793 5.93569 9.39793 5.86313C9.39793 5.76583 9.35928 5.67252 9.29048 5.60372C9.22168 5.53492 9.12836 5.49627 9.03106 5.49627ZM7.42678 8.19041C7.42678 7.8688 7.68749 7.60809 8.00909 7.60809H9.17445C9.49606 7.60809 9.75677 7.8688 9.75677 8.19041V11.976H10.777C11.0986 11.976 11.3593 12.2367 11.3593 12.5584C11.3593 12.88 11.0986 13.1407 10.777 13.1407H7.57122C7.24961 13.1407 6.9889 12.88 6.9889 12.5584C6.9889 12.2367 7.24961 11.976 7.57122 11.976H8.59214V8.77272H8.00909C7.68749 8.77272 7.42678 8.51201 7.42678 8.19041Z" fill="#4F575E"/>
</svg>
