<svg width="28" height="22" viewBox="0 0 28 22" fill="none" xmlns="http://www.w3.org/2000/svg">
<g clip-path="url(#clip0_1_2572)">
<path d="M13.9334 15.8125C16.0597 15.8125 17.7834 14.0888 17.7834 11.9625C17.7834 9.83619 16.0597 8.11249 13.9334 8.11249C11.8071 8.11249 10.0834 9.83619 10.0834 11.9625C10.0834 14.0888 11.8071 15.8125 13.9334 15.8125Z" fill="#929CC2"/>
<path d="M24.5209 4.26248H20.9717C20.7912 4.26248 20.5674 4.14577 20.393 3.96169L18.8325 1.4989C18.8078 1.45981 18.7803 1.42261 18.7501 1.38761C18.2111 0.758976 17.4826 0.412476 16.7006 0.412476H11.1662C10.3842 0.412476 9.65566 0.758976 9.11666 1.38761C9.08647 1.42261 9.05892 1.45981 9.03425 1.4989L7.4738 3.9653C7.34025 4.11088 7.15256 4.26609 6.95525 4.26609V3.78484C6.95525 3.52956 6.85384 3.28475 6.67334 3.10425C6.49284 2.92374 6.24802 2.82234 5.99275 2.82234H4.549C4.29373 2.82234 4.04891 2.92374 3.86841 3.10425C3.68791 3.28475 3.5865 3.52956 3.5865 3.78484V4.26609H3.34587C2.58031 4.26688 1.84632 4.57136 1.30498 5.11269C0.763644 5.65403 0.45917 6.38802 0.458374 7.15359V18.7C0.45917 19.4655 0.763644 20.1995 1.30498 20.7409C1.84632 21.2822 2.58031 21.5867 3.34587 21.5875H24.5209C25.2864 21.5867 26.0204 21.2822 26.5618 20.7409C27.1031 20.1995 27.4076 19.4655 27.4084 18.7V7.14998C27.4076 6.38441 27.1031 5.65042 26.5618 5.10908C26.0204 4.56775 25.2864 4.26327 24.5209 4.26248ZM13.9334 17.7375C12.7912 17.7375 11.6747 17.3988 10.725 16.7642C9.77526 16.1296 9.03507 15.2277 8.59797 14.1725C8.16087 13.1172 8.04651 11.9561 8.26934 10.8358C8.49217 9.71559 9.04218 8.68658 9.84983 7.87894C10.6575 7.07129 11.6865 6.52127 12.8067 6.29844C13.927 6.07561 15.0881 6.18998 16.1434 6.62707C17.1986 7.06417 18.1005 7.80436 18.7351 8.75406C19.3697 9.70375 19.7084 10.8203 19.7084 11.9625C19.7066 13.4936 19.0976 14.9614 18.015 16.0441C16.9323 17.1267 15.4645 17.7357 13.9334 17.7375Z" fill="#929CC2"/>
</g>
<defs>
<clipPath id="clip0_1_2572">
<rect width="27.8667" height="22" fill="white"/>
</clipPath>
</defs>
</svg>
