<svg width="24" height="25" viewBox="0 0 24 25" fill="none" xmlns="http://www.w3.org/2000/svg">
<path d="M12 16.1592C13.6569 16.1592 15 14.816 15 13.1592C15 11.5023 13.6569 10.1592 12 10.1592C10.3431 10.1592 9 11.5023 9 13.1592C9 14.816 10.3431 16.1592 12 16.1592Z" fill="#F4F6F9"/>
<path d="M20.25 7.15918H17.4844C17.3438 7.15918 17.1694 7.06824 17.0334 6.9248L15.8175 5.00574C15.7983 4.97528 15.7768 4.9463 15.7533 4.91902C15.3333 4.42918 14.7656 4.15918 14.1562 4.15918H9.84375C9.23438 4.15918 8.66672 4.42918 8.24672 4.91902C8.22319 4.9463 8.20173 4.97528 8.1825 5.00574L6.96656 6.92762C6.8625 7.04105 6.71625 7.16199 6.5625 7.16199V6.78699C6.5625 6.58808 6.48348 6.39731 6.34283 6.25666C6.20218 6.11601 6.01141 6.03699 5.8125 6.03699H4.6875C4.48859 6.03699 4.29782 6.11601 4.15717 6.25666C4.01652 6.39731 3.9375 6.58808 3.9375 6.78699V7.16199H3.75C3.15345 7.16261 2.58152 7.39987 2.1597 7.82169C1.73787 8.24351 1.50062 8.81545 1.5 9.41199V18.4092C1.50062 19.0057 1.73787 19.5777 2.1597 19.9995C2.58152 20.4213 3.15345 20.6586 3.75 20.6592H20.25C20.8465 20.6586 21.4185 20.4213 21.8403 19.9995C22.2621 19.5777 22.4994 19.0057 22.5 18.4092V9.40918C22.4994 8.81263 22.2621 8.2407 21.8403 7.81887C21.4185 7.39705 20.8465 7.1598 20.25 7.15918ZM12 17.6592C11.11 17.6592 10.24 17.3953 9.49993 16.9008C8.75991 16.4063 8.18314 15.7035 7.84254 14.8813C7.50195 14.059 7.41283 13.1542 7.58647 12.2813C7.7601 11.4084 8.18868 10.6065 8.81802 9.9772C9.44736 9.34786 10.2492 8.91928 11.1221 8.74565C11.995 8.57201 12.8998 8.66113 13.7221 9.00172C14.5443 9.34232 15.2471 9.91909 15.7416 10.6591C16.2361 11.3991 16.5 12.2692 16.5 13.1592C16.4986 14.3522 16.0241 15.496 15.1805 16.3397C14.3369 17.1833 13.1931 17.6578 12 17.6592Z" fill="#F4F6F9"/>
</svg>
