<svg width="32" height="32" viewBox="0 0 32 32" fill="none" xmlns="http://www.w3.org/2000/svg">
<path d="M10 9H28M10 16H28M10 23H28" stroke="#111111" stroke-width="2" stroke-linecap="round" stroke-linejoin="round"/>
<path d="M5 10C5.55228 10 6 9.55228 6 9C6 8.44772 5.55228 8 5 8C4.44772 8 4 8.44772 4 9C4 9.55228 4.44772 10 5 10Z" stroke="#111111" stroke-width="2" stroke-linecap="round" stroke-linejoin="round"/>
<path d="M5 17C5.55228 17 6 16.5523 6 16C6 15.4477 5.55228 15 5 15C4.44772 15 4 15.4477 4 16C4 16.5523 4.44772 17 5 17Z" stroke="#111111" stroke-width="2" stroke-linecap="round" stroke-linejoin="round"/>
<path d="M5 24C5.55228 24 6 23.5523 6 23C6 22.4477 5.55228 22 5 22C4.44772 22 4 22.4477 4 23C4 23.5523 4.44772 24 5 24Z" stroke="#111111" stroke-width="2" stroke-linecap="round" stroke-linejoin="round"/>
</svg>
