<svg width="16" height="16" viewBox="0 0 16 16" fill="none" xmlns="http://www.w3.org/2000/svg">
<path fill-rule="evenodd" clip-rule="evenodd" d="M2.99585 5.78258C2.99585 3.11942 5.25995 0.999451 7.99777 0.999451C10.7356 0.999451 12.9997 3.11942 12.9997 5.78258C12.9997 7.28391 12.188 9.14126 11.2989 10.7465C10.3965 12.3759 9.35719 13.8439 8.79987 14.5965C8.70784 14.7223 8.58751 14.8247 8.44859 14.8954C8.30894 14.9665 8.15446 15.0035 7.99777 15.0035C7.84109 15.0035 7.68661 14.9665 7.54696 14.8954C7.408 14.8247 7.28765 14.7223 7.19561 14.5964C6.6383 13.8435 5.59904 12.375 4.69661 10.7454C3.80759 9.14007 2.99585 7.28284 2.99585 5.78258ZM7.99777 2.00134C5.76577 2.00134 3.99774 3.71909 3.99774 5.78258C3.99774 7.00166 4.68633 8.65879 5.57308 10.2601C6.4437 11.8322 7.45207 13.2586 7.99777 13.9961C8.54346 13.259 9.55185 11.8331 10.4225 10.2611C11.3092 8.6601 11.9978 7.00278 11.9978 5.78258C11.9978 3.71909 10.2298 2.00134 7.99777 2.00134ZM7.9992 5.00207C7.44665 5.00207 6.99872 5.45001 6.99872 6.00256C6.99872 6.55511 7.44665 7.00304 7.9992 7.00304C8.55175 7.00304 8.99969 6.55511 8.99969 6.00256C8.99969 5.45001 8.55175 5.00207 7.9992 5.00207ZM5.99683 6.00256C5.99683 4.89668 6.89332 4.00018 7.9992 4.00018C9.10508 4.00018 10.0016 4.89668 10.0016 6.00256C10.0016 7.10844 9.10508 8.00493 7.9992 8.00493C6.89332 8.00493 5.99683 7.10844 5.99683 6.00256Z" fill="#4F575E"/>
</svg>
