<svg width="32" height="32" viewBox="0 0 32 32" fill="none" xmlns="http://www.w3.org/2000/svg">
<path d="M18 5.33337C17.4696 5.33337 16.9609 5.54409 16.5858 5.91916C16.2107 6.29423 16 6.80294 16 7.33337C16 7.86381 16.2107 8.37252 16.5858 8.74759C16.9609 9.12266 17.4696 9.33337 18 9.33337C18.5304 9.33337 19.0391 9.12266 19.4142 8.74759C19.7893 8.37252 20 7.86381 20 7.33337C20 6.80294 19.7893 6.29423 19.4142 5.91916C19.0391 5.54409 18.5304 5.33337 18 5.33337ZM17.52 11.6934C15.9333 11.8267 11.6 15.28 11.6 15.28C11.3333 15.48 11.4133 15.4667 11.6267 15.84C11.84 16.2 11.8133 16.2267 12.0667 16.0534C12.3333 15.88 12.7733 15.6 13.5067 15.1467C16.3333 13.3334 13.96 17.52 12.7467 24.5734C12.2667 28.0667 15.4133 26.2667 16.2267 25.7334C17.0267 25.2134 19.1733 23.7334 19.3867 23.5867C19.68 23.3867 19.4667 23.2267 19.24 22.8934C19.08 22.6667 18.92 22.8267 18.92 22.8267C18.0533 23.4 16.4667 24.6 16.2533 23.84C16 23.08 17.6267 17.8667 18.52 14.28C18.6667 13.4267 19.0667 11.56 17.52 11.6934Z" fill="#454C6A"/>
</svg>
