<svg width="20" height="20" viewBox="0 0 20 20" fill="none" xmlns="http://www.w3.org/2000/svg">
<path d="M10 9.58333C9.44747 9.58333 8.91756 9.36384 8.52686 8.97314C8.13616 8.58244 7.91667 8.05253 7.91667 7.5C7.91667 6.94746 8.13616 6.41756 8.52686 6.02686C8.91756 5.63616 9.44747 5.41667 10 5.41667C10.5525 5.41667 11.0824 5.63616 11.4731 6.02686C11.8638 6.41756 12.0833 6.94746 12.0833 7.5C12.0833 7.77359 12.0294 8.0445 11.9248 8.29726C11.8201 8.55002 11.6666 8.77968 11.4731 8.97314C11.2797 9.16659 11.05 9.32005 10.7973 9.42475C10.5445 9.52945 10.2736 9.58333 10 9.58333ZM10 1.66667C8.45291 1.66667 6.96917 2.28125 5.87521 3.37521C4.78125 4.46917 4.16667 5.9529 4.16667 7.5C4.16667 11.875 10 18.3333 10 18.3333C10 18.3333 15.8333 11.875 15.8333 7.5C15.8333 5.9529 15.2188 4.46917 14.1248 3.37521C13.0308 2.28125 11.5471 1.66667 10 1.66667Z" fill="#1B6DDF"/>
</svg>
