<svg width="22" height="22" viewBox="0 0 22 22" fill="none" xmlns="http://www.w3.org/2000/svg">
<g clip-path="url(#clip0_1_1083)">
<path fill-rule="evenodd" clip-rule="evenodd" d="M9.13463 2.57492C8.95204 2.44139 8.73952 2.35461 8.51565 2.32217C8.29178 2.28973 8.06337 2.31262 7.85038 2.38883C6.85453 2.75365 5.92961 3.28869 5.11688 3.97008C4.94469 4.11628 4.81089 4.3024 4.72717 4.51219C4.64344 4.72199 4.61233 4.94908 4.63655 5.17367C4.7053 5.86392 4.58338 6.53033 4.25155 7.10417C3.92063 7.67892 3.40363 8.118 2.77113 8.40308C2.56428 8.49471 2.38303 8.6356 2.24321 8.81345C2.10338 8.99131 2.00926 9.2007 1.96905 9.42333C1.78799 10.4666 1.78799 11.5334 1.96905 12.5767C2.0543 13.0689 2.39072 13.4255 2.77113 13.5978C3.40363 13.882 3.92063 14.322 4.25247 14.8958C4.58338 15.4706 4.7053 16.1361 4.63655 16.8263C4.5953 17.2407 4.73463 17.71 5.11688 18.0299C5.9296 18.7113 6.85452 19.2464 7.85038 19.6112C8.06323 19.6873 8.29148 19.7101 8.51519 19.6777C8.7389 19.6453 8.95126 19.5585 9.13372 19.4251C9.69747 19.0199 10.3364 18.7917 11.0001 18.7917C11.6637 18.7917 12.3017 19.0199 12.8655 19.4251C13.2046 19.6689 13.6813 19.7826 14.1497 19.6112C15.1456 19.2463 16.0705 18.7113 16.8832 18.0299C17.2655 17.71 17.4057 17.2416 17.3636 16.8263C17.2948 16.1361 17.4158 15.4697 17.7486 14.8958C18.0795 14.3211 18.5965 13.8829 19.229 13.5978C19.6085 13.4264 19.9458 13.0689 20.031 12.5767C20.2121 11.5333 20.2121 10.4667 20.031 9.42333C19.9908 9.2007 19.8967 8.99131 19.7569 8.81345C19.6171 8.6356 19.4358 8.49471 19.229 8.40308C18.5965 8.118 18.0795 7.67892 17.7476 7.10417C17.4158 6.53033 17.2948 5.86392 17.3636 5.17367C17.3877 4.94909 17.3565 4.72202 17.2728 4.51224C17.1891 4.30245 17.0553 4.11633 16.8832 3.97008C16.0705 3.28869 15.1456 2.75365 14.1497 2.38883C13.9369 2.31278 13.7086 2.28998 13.4849 2.32241C13.2612 2.35485 13.0489 2.44154 12.8664 2.57492C12.3017 2.97917 11.6628 3.20833 11.0001 3.20833C10.3373 3.20833 9.69838 2.98008 9.13463 2.57492ZM8.25005 11C8.25005 10.2707 8.53978 9.57118 9.05551 9.05546C9.57123 8.53973 10.2707 8.25 11.0001 8.25C11.7294 8.25 12.4289 8.53973 12.9446 9.05546C13.4603 9.57118 13.7501 10.2707 13.7501 11C13.7501 11.7293 13.4603 12.4288 12.9446 12.9445C12.4289 13.4603 11.7294 13.75 11.0001 13.75C10.2707 13.75 9.57123 13.4603 9.05551 12.9445C8.53978 12.4288 8.25005 11.7293 8.25005 11Z" fill="#686D9A"/>
</g>
<defs>
<clipPath id="clip0_1_1083">
<rect width="22" height="22" fill="white"/>
</clipPath>
</defs>
</svg>
