<svg width="50" height="50" viewBox="0 0 50 50" fill="none" xmlns="http://www.w3.org/2000/svg">
<path d="M43.5979 20.8125C29.827 18.9208 17.952 29.1458 18.75 42.7083M13.5416 16.6667C13.5416 17.7717 13.9806 18.8315 14.762 19.6129C15.5434 20.3943 16.6032 20.8333 17.7083 20.8333C18.8134 20.8333 19.8732 20.3943 20.6546 19.6129C21.436 18.8315 21.875 17.7717 21.875 16.6667C21.875 15.5616 21.436 14.5018 20.6546 13.7204C19.8732 12.939 18.8134 12.5 17.7083 12.5C16.6032 12.5 15.5434 12.939 14.762 13.7204C13.9806 14.5018 13.5416 15.5616 13.5416 16.6667Z" stroke="white" stroke-width="2" stroke-linecap="round" stroke-linejoin="round"/>
<path d="M6.25 27.2208C12.0417 26.4187 17.2396 29.2167 20.05 33.6792" stroke="white" stroke-width="2" stroke-linecap="round" stroke-linejoin="round"/>
<path d="M6.25 19.5833C6.25 14.9167 6.25 12.5833 7.15833 10.8C7.95727 9.23205 9.23205 7.95727 10.8 7.15833C12.5833 6.25 14.9167 6.25 19.5833 6.25H30.4167C35.0833 6.25 37.4167 6.25 39.2 7.15833C40.7679 7.95727 42.0427 9.23205 42.8417 10.8C43.75 12.5833 43.75 14.9167 43.75 19.5833V30.4167C43.75 35.0833 43.75 37.4167 42.8417 39.2C42.0427 40.7679 40.7679 42.0427 39.2 42.8417C37.4167 43.75 35.0833 43.75 30.4167 43.75H19.5833C14.9167 43.75 12.5833 43.75 10.8 42.8417C9.23205 42.0427 7.95727 40.7679 7.15833 39.2C6.25 37.4167 6.25 35.0833 6.25 30.4167V19.5833Z" stroke="white" stroke-width="2" stroke-linecap="round" stroke-linejoin="round"/>
</svg>
