<svg width="234" height="144" viewBox="0 0 234 144" fill="none" xmlns="http://www.w3.org/2000/svg">
<path opacity="0.3" d="M158.966 7.84805C158.982 7.84441 158.997 7.84076 159.013 7.83675C176.466 3.63788 189.841 9.10334 196.61 24.3797C199.959 31.9398 200.593 44.1942 209.465 48.4062C218.363 52.6306 224.83 55.209 229.256 64.4108C233.28 72.7779 235.031 83.0892 233.384 92.1263C229.517 113.352 210.055 129.312 186.555 129.312C155.52 129.312 124.485 129.312 93.4496 129.312C64.7256 129.312 19.9165 136.983 4.38027 108.287C-2.52965 95.5233 -1.09539 79.3955 7.4908 67.5304C14.3296 58.0804 25.3965 51.5076 37.3673 49.086C42.3571 48.0763 48.7608 49.1206 52.8948 46.0192C56.575 43.2586 57.6641 37.9936 58.7542 33.9875C60.822 26.3887 63.5279 18.7218 68.9219 12.5302C78.6621 1.35 96.4636 -2.81826 111.126 1.94047C119.714 4.72769 127.354 10.2165 136.391 11.2319C144.011 12.0881 151.539 9.63768 158.966 7.84805Z" fill="#BAF1FF"/>
<path d="M210.54 137.048C210.54 135.404 170.135 134.071 120.292 134.071C70.4502 134.071 30.0447 135.404 30.0447 137.048C30.0447 137.864 40.0163 138.604 56.1587 139.142C48.6488 139.602 44.2969 140.149 44.2969 140.734C44.2969 142.378 78.5607 143.711 120.827 143.711C163.094 143.711 197.358 142.378 197.358 140.734C197.358 140.139 192.858 139.584 185.113 139.119C200.85 138.583 210.54 137.853 210.54 137.048Z" fill="#BAF1FF"/>
<path opacity="0.7" d="M154.763 25.0012C154.777 24.9979 154.79 24.9947 154.803 24.9917C169.861 21.3691 181.4 26.0845 187.239 39.2639C190.129 45.7864 190.675 56.3587 198.33 59.9926C206.006 63.6371 211.586 65.8615 215.404 73.8004C218.876 81.0187 220.387 89.915 218.966 97.7114C215.629 116.023 198.839 129.793 178.565 129.793C151.79 129.793 125.015 129.793 98.2397 129.793C73.4583 129.793 34.7999 136.41 21.3966 111.653C15.4351 100.642 16.6725 86.7276 24.0804 76.4914C29.9803 68.3386 39.528 62.6683 49.856 60.5787C54.161 59.7079 59.6855 60.6086 63.2524 57.9329C66.4274 55.551 67.367 51.0087 68.3074 47.5527C70.0916 40.997 72.4257 34.3824 77.0795 29.0408C85.4827 19.3951 100.841 15.7991 113.491 19.9046C120.9 22.3091 127.491 27.0445 135.288 27.9208C141.861 28.6592 148.355 26.5448 154.763 25.0012Z" fill="#BAF1FF"/>
<path d="M13.1112 55.5268C16.1834 54.4227 20.5368 54.6389 23.8442 54.4359C27.7507 54.1964 31.6722 54.122 35.5788 54.4012C43.2312 54.948 50.9349 56.9162 57.2795 61.2299C68.3111 68.7299 74.7235 83.372 74.4782 96.5631C74.4563 97.7364 54.9662 94.5723 53.728 94.1717C44.5386 91.199 37.008 86.7584 30.71 79.2602C27.2981 75.1984 24.3971 70.748 21.561 66.2751C20.1264 64.0127 18.8493 61.4205 17.1559 59.3429C16.0023 57.9295 14.6821 56.4733 13.1112 55.5268Z" fill="#007577"/>
<path d="M13.1112 55.5268C16.1834 54.4227 20.5368 54.6389 23.8442 54.4359C27.7507 54.1964 31.6722 54.122 35.5788 54.4012C43.2312 54.948 50.9349 56.9162 57.2795 61.2299C68.3111 68.7299 74.7235 83.372 74.4782 96.5631C74.4563 97.7364 54.9662 94.5723 53.728 94.1717C44.5386 91.199 37.008 86.7584 30.71 79.2602C27.2981 75.1984 24.3971 70.748 21.561 66.2751C20.1264 64.0127 18.8493 61.4205 17.1559 59.3429C16.0023 57.9295 14.6821 56.4733 13.1112 55.5268Z" fill="#007577"/>
<path opacity="0.2" d="M17.1552 59.3437C18.8489 61.4212 20.1261 64.0135 21.5603 66.2758C24.3964 70.7488 27.2977 75.1992 30.7097 79.261C37.0076 86.7592 44.5379 91.1997 53.7273 94.1725C54.9651 94.573 74.4556 97.7371 74.4775 96.5639C74.4778 96.5522 74.4775 96.5409 74.4775 96.5296C70.5684 87.4521 59.9633 77.4801 47.1112 67.4239C31.4809 55.194 13.1105 55.5275 13.1105 55.5275C14.6821 56.4737 16.0023 57.9298 17.1552 59.3437Z" fill="#007577"/>
<g opacity="0.31">
<path d="M23.6751 56.7676C24.9573 56.9214 26.2254 57.1893 27.4789 57.5068C28.7345 57.8184 29.9778 58.1832 31.2097 58.5834C33.6671 59.4035 36.0796 60.3694 38.42 61.4895C40.7698 62.5913 43.0409 63.8565 45.2548 65.212C47.4618 66.5795 49.598 68.059 51.6705 69.6226C52.1844 70.0188 52.6867 70.43 53.1955 70.8327C53.7072 71.2318 54.2037 71.6499 54.6957 72.0727C55.1878 72.4955 55.6904 72.9059 56.173 73.3393L57.6134 74.6471C59.4996 76.4272 61.3432 78.2536 63.0541 80.2004L64.3433 81.6532L65.5815 83.1494C66.415 84.1394 67.1863 85.1796 67.9736 86.2045C68.3683 86.7163 68.7357 87.2488 69.1064 87.7784L70.2184 89.365C70.9467 90.4311 71.633 91.5264 72.3244 92.614L71.1297 91.0919C70.7335 90.5838 70.3551 90.0634 69.9476 89.5647L68.7255 88.07C68.3187 87.5717 67.9156 87.0713 67.4863 86.592C66.6443 85.6203 65.83 84.6278 64.9498 83.6918L63.6595 82.2637L62.3281 80.8747C61.4529 79.9376 60.5173 79.0599 59.6166 78.1494C59.1636 77.6971 58.6839 77.2714 58.2192 76.8311C57.7487 76.397 57.2901 75.9497 56.8025 75.535C54.906 73.8146 52.9254 72.1915 50.8992 70.6304C48.8716 69.0701 46.7696 67.6096 44.6173 66.2271C42.4716 64.8333 40.2472 63.5638 37.9808 62.373C35.7093 61.1917 33.381 60.115 30.998 59.1644C28.6226 58.1927 26.182 57.3708 23.6751 56.7676Z" fill="#007577"/>
<path d="M37.8145 57.5837C39.1103 57.832 40.3349 58.3597 41.4878 58.9983C42.6381 59.6467 43.7061 60.4482 44.6661 61.3656C45.156 61.8147 45.5875 62.3235 46.0202 62.8269C46.2232 63.0904 46.4186 63.3601 46.6107 63.6309C46.7058 63.7672 46.8056 63.8992 46.896 64.0384L47.1479 64.4692C47.8466 65.5973 48.3084 66.8639 48.5822 68.1414C47.8149 67.0658 47.1512 65.9964 46.3267 65.0382L46.0362 64.6693L45.7249 64.3169L45.1068 63.6131C44.6665 63.1691 44.2524 62.7033 43.7884 62.2838C42.8871 61.4207 41.9379 60.6013 40.9382 59.8286C39.9395 59.0501 38.901 58.3185 37.8145 57.5837Z" fill="#007577"/>
<path d="M43.0231 64.8311C41.8928 65.5116 40.6284 65.9362 39.344 66.2303C38.0548 66.5157 36.7244 66.6323 35.3973 66.5904C34.7329 66.5835 34.0717 66.4924 33.4138 66.4067C33.0868 66.3459 32.761 66.2759 32.4373 66.2023C32.2755 66.1643 32.1129 66.1326 31.9529 66.0896L31.4776 65.9369C30.2041 65.5637 29.0148 64.9291 27.9582 64.1611C29.2477 64.4494 30.4556 64.8023 31.7091 64.9656L32.1716 65.0465L32.6385 65.1008L33.5687 65.2119C34.1931 65.2484 34.8119 65.3187 35.4378 65.3213C36.685 65.3621 37.9385 65.3381 39.1989 65.2458C40.4622 65.1584 41.7233 65.0093 43.0231 64.8311Z" fill="#007577"/>
<path d="M51.7882 71.1908C50.6579 71.8713 49.3935 72.2963 48.1091 72.5904C46.8199 72.8758 45.4895 72.9925 44.1624 72.9505C43.498 72.9436 42.8368 72.8525 42.1789 72.7668C41.8519 72.706 41.5265 72.636 41.2024 72.5624C41.0406 72.5245 40.878 72.4927 40.718 72.4497L40.2427 72.297C38.9692 71.9238 37.7799 71.2892 36.7233 70.5212C38.0128 70.8095 39.2207 71.1624 40.4742 71.3253L40.9367 71.4062L41.4036 71.4605L42.3338 71.5717C42.9582 71.6081 43.5771 71.6785 44.2029 71.681C45.4501 71.7219 46.7036 71.6982 47.964 71.6056C49.2273 71.5181 50.4888 71.369 51.7882 71.1908Z" fill="#007577"/>
<path d="M60.5534 77.5505C59.4232 78.231 58.1588 78.656 56.8743 78.9502C55.5851 79.2356 54.2548 79.3522 52.9277 79.3099C52.2632 79.303 51.602 79.2122 50.9441 79.1262C50.6172 79.0653 50.2917 78.9954 49.9677 78.9217C49.8059 78.8838 49.6433 78.8521 49.4833 78.8091L49.008 78.6564C47.7345 78.2832 46.5452 77.6486 45.4885 76.8806C46.7781 77.1689 47.986 77.5217 49.2394 77.685L49.702 77.766L50.1689 77.8203L51.0991 77.9314C51.7234 77.9679 52.3423 78.0382 52.9681 78.0408C54.2154 78.0816 55.4689 78.0575 56.7293 77.9653C57.9926 77.8779 59.2541 77.7291 60.5534 77.5505Z" fill="#007577"/>
<path d="M67.3555 86.1062C66.2252 86.7867 64.9608 87.2117 63.6764 87.5058C62.3872 87.7912 61.0568 87.9079 59.7297 87.8656C59.0652 87.8587 58.4041 87.7679 57.7458 87.6819C57.4189 87.621 57.0934 87.551 56.7694 87.4774C56.6075 87.4395 56.445 87.4078 56.285 87.3648L55.8097 87.2121C54.5361 86.8388 53.3468 86.2043 52.2902 85.4363C53.5797 85.7246 54.7876 86.0774 56.0411 86.2403L56.5036 86.3213L56.9705 86.3756L57.9007 86.4867C58.5251 86.5232 59.144 86.5935 59.7698 86.5961C61.0171 86.6369 62.2705 86.6132 63.5309 86.5206C64.7942 86.4335 66.0557 86.2844 67.3555 86.1062Z" fill="#007577"/>
<path d="M49.5623 62.2063C50.7571 62.7661 51.8141 63.5793 52.7738 64.4825C53.7287 65.3945 54.5667 66.4343 55.2709 67.5599C55.635 68.1157 55.9277 68.7153 56.2233 69.3098C56.3548 69.6152 56.478 69.9246 56.5972 70.2345C56.6559 70.3897 56.7201 70.5428 56.7736 70.6999L56.9114 71.1796C57.3105 72.4451 57.4461 73.7864 57.3965 75.0916C56.918 73.86 56.5382 72.6601 55.9754 71.5284L55.7848 71.099L55.5697 70.681L55.144 69.8463C54.8266 69.3072 54.5401 68.7539 54.1938 68.2331C53.533 67.1746 52.815 66.1468 52.0364 65.1513C51.2608 64.1512 50.4345 63.1864 49.5623 62.2063Z" fill="#007577"/>
<path d="M60.6117 68.2039C61.6439 69.0258 62.4826 70.0627 63.2064 71.1638C63.9234 72.2726 64.4967 73.4787 64.9202 74.7373C65.1455 75.3627 65.2909 76.0137 65.44 76.6603C65.4972 76.988 65.545 77.3175 65.5891 77.6466C65.6099 77.8113 65.6368 77.975 65.6525 78.1401L65.6751 78.6387C65.7695 79.9622 65.5894 81.2984 65.2381 82.5566C65.0588 81.2477 64.968 79.9924 64.6837 78.7608L64.598 78.299L64.4861 77.8423L64.266 76.9318C64.0823 76.3341 63.9325 75.7294 63.7164 75.1422C63.3194 73.9591 62.8602 72.7924 62.3339 71.6435C61.8116 70.4899 61.232 69.3596 60.6117 68.2039Z" fill="#007577"/>
</g>
<path d="M47.363 25.8357C49.7752 25.9782 52.675 27.3917 54.9848 28.2162C57.7129 29.1897 60.4036 30.2802 62.9809 31.6066C68.0297 34.205 72.6999 37.7861 75.763 42.5678C81.0885 50.8817 81.1924 62.7122 77.1874 71.6184C76.8313 72.4104 64.4873 64.5864 63.7612 63.9536C58.3719 59.2568 54.539 54.0436 52.4345 47.1085C51.2943 43.3514 50.6146 39.4784 49.9858 35.6094C49.6676 33.6525 49.5528 31.5166 49.0046 29.6099C48.6314 28.3124 48.1569 26.9372 47.363 25.8357Z" fill="#007577"/>
<path d="M47.363 25.8357C49.7752 25.9782 52.675 27.3917 54.9848 28.2162C57.7129 29.1897 60.4036 30.2802 62.9809 31.6066C68.0297 34.205 72.6999 37.7861 75.763 42.5678C81.0885 50.8817 81.1924 62.7122 77.1874 71.6184C76.8313 72.4104 64.4873 64.5864 63.7612 63.9536C58.3719 59.2568 54.539 54.0436 52.4345 47.1085C51.2943 43.3514 50.6146 39.4784 49.9858 35.6094C49.6676 33.6525 49.5528 31.5166 49.0046 29.6099C48.6314 28.3124 48.1569 26.9372 47.363 25.8357Z" fill="#007577"/>
<path opacity="0.2" d="M49.005 29.6099C49.5532 31.5166 49.668 33.6525 49.9862 35.6094C50.615 39.4788 51.2947 43.3518 52.4348 47.1085C54.5394 54.044 58.3723 59.2572 63.7616 63.9536C64.4876 64.5864 76.8317 72.4104 77.1878 71.6184C77.1914 71.6107 77.1943 71.6027 77.198 71.595C77.1787 64.2798 72.8624 54.4077 67.0416 43.8245C59.9625 30.9538 47.363 25.8357 47.363 25.8357C48.1569 26.9372 48.6314 28.3124 49.005 29.6099Z" fill="#007577"/>
<g opacity="0.31">
<path d="M54.1916 29.7539C57.4625 31.744 60.2949 34.404 62.8394 37.2681C65.3828 40.1472 67.5835 43.3193 69.5025 46.6482C69.9578 47.4938 70.3893 48.3522 70.8336 49.2032C71.0491 49.6322 71.2867 50.0507 71.4839 50.488L72.0631 51.8064C72.4374 52.6903 72.8398 53.5621 73.1908 54.4544L74.153 57.1658L74.6283 58.522L75.0132 59.9071L75.7669 62.6779C75.9014 63.1368 75.9867 63.6084 76.0782 64.0783L76.3516 65.4866C76.532 66.4255 76.7044 67.3648 76.871 68.3034C76.6067 67.3841 76.3483 66.4656 76.0979 65.5464L75.725 64.1679C75.6026 63.7083 75.4863 63.2472 75.3216 62.7996L74.4253 60.0922L73.985 58.7382L73.4623 57.4133L72.4268 54.7631C72.0598 53.8894 71.6417 53.0376 71.2524 52.1742L70.6656 50.8802C70.4681 50.4501 70.2301 50.0394 70.0146 49.618C69.5703 48.7819 69.137 47.9399 68.6843 47.1089L67.2311 44.6694L66.8669 44.0596L66.4693 43.4717L65.6773 42.2937C65.4112 41.9022 65.1615 41.4991 64.882 41.1171L64.0316 39.9799L63.182 38.8409L62.2835 37.7409C59.8717 34.8239 57.2347 32.0611 54.1916 29.7539Z" fill="#007577"/>
<path d="M63.577 34.4226C64.3858 34.9693 65.0692 35.6826 65.663 36.4557C66.2618 37.2284 66.7524 38.0871 67.1399 38.99C67.3429 39.4379 67.4883 39.9099 67.6363 40.3783C67.6975 40.6167 67.7522 40.8572 67.804 41.0974C67.8288 41.2177 67.8586 41.3369 67.8794 41.4579L67.9228 41.8249C68.0755 42.7948 68.0172 43.7921 67.8331 44.7408C67.625 43.7851 67.4807 42.8652 67.204 41.9722C67.0914 41.5221 66.9201 41.0883 66.7856 40.6477C66.615 40.2172 66.4689 39.7798 66.2749 39.3596C65.9137 38.5092 65.5026 37.6778 65.0521 36.8577C64.5939 36.0406 64.1037 35.2383 63.577 34.4226Z" fill="#007577"/>
<path d="M65.0131 40.8704C64.0461 41.0034 63.0613 40.9287 62.1031 40.7498C61.1412 40.5744 60.203 40.2628 59.3115 39.8491C58.8613 39.6508 58.4378 39.3968 58.015 39.1471C57.8102 39.0108 57.609 38.8679 57.41 38.724C57.3112 38.6511 57.2095 38.5825 57.1133 38.506L56.8359 38.2618C56.0745 37.6418 55.4519 36.8607 54.9555 36.0315C55.7483 36.6041 56.4703 37.1924 57.2725 37.6724C57.6571 37.9323 58.074 38.1411 58.4684 38.3791C58.8828 38.5854 59.2834 38.8136 59.7088 38.9973C60.5453 39.3891 61.4065 39.7336 62.2897 40.043C63.1758 40.3452 64.0764 40.6149 65.0131 40.8704Z" fill="#007577"/>
<path d="M69.1282 47.7493C68.1613 47.8823 67.1764 47.8076 66.2178 47.6287C65.2559 47.4533 64.3178 47.1417 63.4266 46.728C62.9764 46.5297 62.5529 46.2757 62.1301 46.026C61.9253 45.8897 61.7241 45.7468 61.5251 45.6029C61.4263 45.53 61.3242 45.4614 61.2284 45.3849L60.951 45.1407C60.1896 44.5207 59.567 43.7396 59.0706 42.9104C59.8634 43.483 60.5854 44.0713 61.3877 44.5513C61.7722 44.8112 62.1892 45.02 62.5832 45.2581C62.9976 45.4643 63.3985 45.6925 63.8235 45.8762C64.66 46.268 65.5213 46.6125 66.4044 46.9219C67.2905 47.2241 68.1915 47.4938 69.1282 47.7493Z" fill="#007577"/>
<path d="M73.2429 54.6279C72.2759 54.7609 71.291 54.6862 70.3328 54.5072C69.3709 54.3319 68.4327 54.0203 67.5412 53.6069C67.0911 53.4086 66.6675 53.1546 66.2447 52.9049C66.0399 52.7686 65.8387 52.6257 65.6397 52.4818C65.5409 52.4089 65.4392 52.3403 65.343 52.2638L65.0656 52.0196C64.3042 51.3996 63.6817 50.6185 63.1856 49.7893C63.9784 50.3619 64.7004 50.9502 65.5026 51.4302C65.8872 51.6901 66.3041 51.8989 66.6985 52.137C67.1129 52.3433 67.5135 52.5714 67.9385 52.7551C68.775 53.1469 69.6363 53.4914 70.5194 53.8008C71.4055 54.1026 72.3061 54.3723 73.2429 54.6279Z" fill="#007577"/>
<path d="M75.3827 62.429C74.4158 62.562 73.4309 62.4873 72.4727 62.3084C71.5108 62.133 70.5726 61.8214 69.6811 61.4077C69.231 61.2094 68.8074 60.9554 68.3846 60.7057C68.1798 60.569 67.9786 60.4265 67.7796 60.2825C67.6804 60.2096 67.5787 60.1411 67.4825 60.0646L67.2051 59.8204C66.4437 59.2004 65.8212 58.4193 65.3251 57.5901C66.1179 58.1627 66.8399 58.751 67.6422 59.231C68.0267 59.4909 68.4437 59.6997 68.838 59.9377C69.2525 60.144 69.653 60.3722 70.0784 60.5559C70.9149 60.9477 71.7762 61.2922 72.6593 61.6016C73.5454 61.9038 74.446 62.1735 75.3827 62.429Z" fill="#007577"/>
<path d="M70.2271 40.9871C70.8762 41.716 71.3628 42.5759 71.7477 43.4714C72.1377 44.368 72.4016 45.3208 72.5547 46.2914C72.6407 46.7758 72.6655 47.269 72.6935 47.7596C72.6943 48.0056 72.6881 48.2524 72.6789 48.4977C72.6735 48.6205 72.6731 48.743 72.6633 48.8654L72.6152 49.2317C72.5244 50.2093 72.2222 51.1613 71.81 52.0353C71.8439 51.0582 71.9303 50.1309 71.8822 49.1971C71.884 48.7331 71.825 48.2706 71.8031 47.8102C71.7437 47.351 71.7098 46.8914 71.6256 46.4361C71.4853 45.5231 71.2913 44.6159 71.0566 43.7101C70.8142 42.8055 70.5369 41.9074 70.2271 40.9871Z" fill="#007577"/>
<path d="M76.002 48.2837C76.4638 49.1435 76.7376 50.0926 76.9038 51.0534C77.0751 52.016 77.1101 53.0041 77.0332 53.9835C77.0044 54.4745 76.914 54.96 76.8272 55.4437C76.7707 55.6831 76.7073 55.9215 76.6417 56.1584C76.6078 56.2765 76.579 56.3957 76.5411 56.5127L76.4092 56.8579C76.0935 57.7877 75.5785 58.6435 74.9745 59.398C75.2344 58.455 75.534 57.5733 75.7042 56.6541C75.8136 56.2032 75.8639 55.7396 75.9495 55.2869C75.9984 54.8266 76.0724 54.3713 76.0964 53.9092C76.1719 52.9885 76.1945 52.0612 76.1766 51.1256C76.1507 50.1889 76.0895 49.2507 76.002 48.2837Z" fill="#007577"/>
</g>
<path d="M22.31 94.8626C26.2942 92.8911 32.4318 92.3516 36.9933 91.4772C42.3812 90.4447 47.8357 89.6184 53.3671 89.2422C64.2026 88.5056 75.5034 89.56 85.5552 93.8376C103.033 101.275 116.039 118.619 119.347 135.369C119.642 136.859 91.5539 136.491 89.7147 136.215C76.0618 134.167 64.3188 129.95 53.4502 121.631C47.5623 117.124 42.2802 112.03 37.0823 106.896C34.4532 104.299 31.9529 101.255 29.0129 98.9401C27.0119 97.3659 24.7652 95.768 22.31 94.8626Z" fill="#007577"/>
<path d="M22.31 94.8626C26.2942 92.8911 32.4318 92.3516 36.9933 91.4772C42.3812 90.4447 47.8357 89.6184 53.3671 89.2422C64.2026 88.5056 75.5034 89.56 85.5552 93.8376C103.033 101.275 116.039 118.619 119.347 135.369C119.642 136.859 91.5539 136.491 89.7147 136.215C76.0618 134.167 64.3188 129.95 53.4502 121.631C47.5623 117.124 42.2802 112.03 37.0823 106.896C34.4532 104.299 31.9529 101.255 29.0129 98.9401C27.0119 97.3659 24.7652 95.768 22.31 94.8626Z" fill="#007577"/>
<path opacity="0.2" d="M29.0129 98.9407C31.9525 101.255 34.4532 104.299 37.0822 106.896C42.2802 112.031 47.5627 117.125 53.4502 121.631C64.3188 129.95 76.0618 134.167 89.7147 136.216C91.5539 136.492 119.642 136.859 119.347 135.37C119.344 135.355 119.341 135.34 119.338 135.326C111.367 124.561 93.8009 113.913 73.0734 103.579C47.8659 91.0103 22.3096 94.8629 22.3096 94.8629C24.7652 95.7683 27.0119 97.3662 29.0129 98.9407Z" fill="#007577"/>
<g opacity="0.31">
<path d="M37.4027 94.4617C39.2291 94.414 41.0596 94.5077 42.8827 94.66C44.7077 94.8065 46.5239 95.0445 48.3362 95.3128C51.9559 95.8778 55.5501 96.633 59.0914 97.5894C62.6393 98.5247 66.1252 99.6859 69.5653 100.963C70.4309 101.269 71.2798 101.617 72.1294 101.964C72.9798 102.309 73.8334 102.646 74.6706 103.022C75.5104 103.391 76.356 103.748 77.1914 104.128L79.6852 105.294C86.2769 108.519 92.6332 112.24 98.5696 116.541C104.521 120.816 110.127 125.563 115.248 130.771C109.643 126.088 103.851 121.674 97.8096 117.641L96.6797 116.882L95.5279 116.156L93.2353 114.689L90.9044 113.285L89.7384 112.584L88.555 111.914L86.1916 110.569L83.7948 109.284C83.0002 108.848 82.1896 108.442 81.3782 108.039C80.5651 107.639 79.7643 107.214 78.9409 106.836C75.6883 105.236 72.3532 103.809 68.985 102.473C65.6197 101.125 62.1892 99.9447 58.7247 98.8691C55.2545 97.8143 51.7412 96.8889 48.1864 96.1355C46.4109 95.7491 44.6231 95.4141 42.8262 95.1284C41.0286 94.847 39.2233 94.594 37.4027 94.4617Z" fill="#007577"/>
<path d="M57.3695 92.8545C59.2168 92.9001 61.0333 93.3105 62.7869 93.8802C64.539 94.463 66.2276 95.2521 67.8142 96.2165C68.2042 96.4687 68.6077 96.6991 68.985 96.9717L70.1054 97.802C70.4746 98.0834 70.8165 98.4031 71.165 98.7096L71.6833 99.1747C71.8517 99.3343 72.0058 99.5111 72.1673 99.678C72.4855 100.017 72.7989 100.36 73.1066 100.705C73.3909 101.074 73.6675 101.447 73.9391 101.821L74.3356 102.388C74.4523 102.59 74.5729 102.787 74.6822 102.992C74.9071 103.396 75.1269 103.8 75.3252 104.213C74.9709 103.91 74.6381 103.598 74.3105 103.287C74.1435 103.134 73.9875 102.973 73.8282 102.817L73.311 102.381C72.9706 102.089 72.6371 101.796 72.3087 101.5C71.9548 101.228 71.6067 100.954 71.2634 100.677C70.928 100.392 70.5683 100.135 70.2089 99.8796C69.8455 99.6295 69.5098 99.3463 69.1388 99.1087L68.0417 98.3768C67.6812 98.126 67.2938 97.9136 66.9223 97.6788C65.4203 96.7636 63.8727 95.9129 62.2781 95.1227C60.6813 94.3314 59.0542 93.5911 57.3695 92.8545Z" fill="#007577"/>
<path d="M66.6479 101.06C65.1692 102.177 63.4725 102.972 61.727 103.584C59.9764 104.196 58.1452 104.588 56.2925 104.77C55.3682 104.884 54.4326 104.879 53.5028 104.893C53.037 104.867 52.5715 104.845 52.1075 104.809C51.8757 104.788 51.6432 104.787 51.4128 104.749L50.7221 104.643C48.8793 104.399 47.0886 103.812 45.4294 103.024C47.2817 103.124 49.0488 103.324 50.8318 103.3C51.7172 103.34 52.6036 103.27 53.4838 103.268L54.8047 103.179C55.2454 103.167 55.6838 103.113 56.1223 103.065C57.8773 102.895 59.6287 102.638 61.3753 102.289C63.1263 101.948 64.8667 101.534 66.6479 101.06Z" fill="#007577"/>
<path d="M80.6459 107.477C79.1676 108.594 77.4705 109.389 75.725 110.002C73.9744 110.613 72.1432 111.006 70.2905 111.187C69.3662 111.302 68.4306 111.296 67.5008 111.311C67.0349 111.284 66.5695 111.263 66.1055 111.227C65.8737 111.205 65.6415 111.204 65.4108 111.166L64.7201 111.06C62.8773 110.816 61.0865 110.23 59.4274 109.441C61.2797 109.542 63.0467 109.742 64.8298 109.717C65.7151 109.757 66.6016 109.687 67.4822 109.685L68.8031 109.597C69.2437 109.584 69.6822 109.531 70.1207 109.482C71.8757 109.313 73.627 109.055 75.3736 108.706C77.1243 108.366 78.8651 107.952 80.6459 107.477Z" fill="#007577"/>
<path d="M94.644 113.894C93.1657 115.011 91.4686 115.806 89.7231 116.419C87.9725 117.03 86.1413 117.423 84.2886 117.604C83.3643 117.719 82.4287 117.713 81.4989 117.728C81.033 117.701 80.5676 117.68 80.1036 117.644C79.8718 117.622 79.6393 117.621 79.4089 117.583L78.7182 117.478C76.8754 117.233 75.0846 116.647 73.4255 115.859C75.2778 115.959 77.0448 116.159 78.8279 116.135C79.7132 116.175 80.5997 116.105 81.4803 116.103L82.8012 116.014C83.2418 116.002 83.6803 115.948 84.1188 115.9C85.8738 115.73 87.6251 115.473 89.3718 115.123C91.1224 114.782 92.8632 114.369 94.644 113.894Z" fill="#007577"/>
<path d="M106.509 123.457C105.03 124.574 103.333 125.369 101.588 125.982C99.8373 126.594 98.0061 126.986 96.1534 127.167C95.2291 127.282 94.2934 127.277 93.3636 127.291C92.8978 127.264 92.4324 127.243 91.9684 127.207C91.7366 127.186 91.5044 127.185 91.2737 127.147L90.583 127.041C88.7401 126.797 86.9494 126.21 85.2903 125.422C87.1426 125.522 88.9096 125.723 90.6927 125.698C91.578 125.738 92.4645 125.668 93.3447 125.666L94.6656 125.577C95.1062 125.564 95.5447 125.511 95.9832 125.463C97.7382 125.293 99.4895 125.036 101.236 124.686C102.987 124.346 104.728 123.932 106.509 123.457Z" fill="#007577"/>
<path d="M75.0515 96.5151C76.8091 96.9503 78.4577 97.7332 80.0096 98.6583C81.5576 99.5961 82.9984 100.721 84.2982 101.997C85.6114 103.259 86.7348 104.725 87.6569 106.296C87.8796 106.694 88.0965 107.095 88.3072 107.497C88.4923 107.914 88.6618 108.338 88.8302 108.759L89.0704 109.393C89.1316 109.613 89.1969 109.83 89.2497 110.051C89.3627 110.491 89.471 110.928 89.5559 111.369C89.292 110.996 89.0514 110.619 88.816 110.245C88.6946 110.059 88.5856 109.87 88.4726 109.683L88.0837 109.147L87.3405 108.075C87.0679 107.734 86.8015 107.393 86.5405 107.051C85.4649 105.702 84.335 104.411 83.0954 103.217C81.8696 102.012 80.583 100.86 79.2366 99.7561C77.8887 98.6514 76.4986 97.5885 75.0515 96.5151Z" fill="#007577"/>
<path d="M92.1382 102.046C93.7295 102.819 95.1404 103.912 96.4241 105.125C97.7013 106.349 98.8316 107.735 99.7862 109.239C100.758 110.732 101.49 112.387 101.998 114.095C102.115 114.526 102.226 114.958 102.331 115.388C102.407 115.829 102.465 116.272 102.523 116.711L102.597 117.37C102.601 117.593 102.61 117.814 102.605 118.037C102.604 118.48 102.598 118.921 102.569 119.358C102.408 118.941 102.27 118.527 102.137 118.117C102.066 117.912 102.009 117.707 101.946 117.503L101.704 116.905L101.254 115.716C101.074 115.331 100.901 114.947 100.733 114.562C100.026 113.039 99.2493 111.561 98.3373 110.154C97.4418 108.74 96.4712 107.366 95.4291 106.027C94.3859 104.686 93.2899 103.377 92.1382 102.046Z" fill="#007577"/>
</g>
<path d="M135.435 111.807H110.769V132.278H135.435V111.807Z" fill="#E6E8E8"/>
<path d="M179.137 118.793H67.0677C64.6111 118.793 62.6199 116.801 62.6199 114.345V45.7177C62.6199 43.2611 64.6114 41.2695 67.0677 41.2695H179.137C181.594 41.2695 183.585 43.2611 183.585 45.7177V114.345C183.585 116.801 181.594 118.793 179.137 118.793Z" fill="#FBFFFF"/>
<path d="M177.97 42.822H68.4165C66.0152 42.822 64.0681 44.7687 64.0681 47.1703V107.39H182.317V47.1703C182.317 44.7687 180.371 42.822 177.97 42.822Z" fill="#00499B"/>
<path d="M150.703 136.781H93.6735V137.08C93.6735 133.635 96.4658 130.843 99.9105 130.843H144.466C147.91 130.843 150.703 133.635 150.703 137.08V136.781H150.703Z" fill="#FBFFFF"/>
<path d="M135.435 118.794H110.769V122.818H135.435V118.794Z" fill="#E5E5E5"/>
<path opacity="0.47" d="M62.6193 114.345V45.718C62.6193 43.2613 64.6108 41.2698 67.0671 41.2698H179.137C181.594 41.2701 62.6193 114.345 62.6193 114.345Z" fill="#00499B"/>
<path d="M98.7883 48.4342H76.0797C75.1816 48.4342 74.4538 47.7063 74.4538 46.8082V19.4514C74.4538 18.5533 75.1816 17.8254 76.0797 17.8254H98.7883C99.6864 17.8254 100.414 18.5533 100.414 19.4514V46.8082C100.414 47.7063 99.6864 48.4342 98.7883 48.4342Z" fill="#B6E6DC"/>
<path d="M97.0268 22.11H78.4292C77.876 22.11 77.4269 21.6613 77.4269 21.108C77.4269 20.5544 77.8756 20.1057 78.4292 20.1057H97.0268C97.5804 20.1057 98.0287 20.5544 98.0287 21.108C98.0291 21.6613 97.5804 22.11 97.0268 22.11Z" fill="#00CCD4"/>
<path d="M97.6854 24.5058H77.771C77.5811 24.5058 77.4273 24.352 77.4273 24.1621C77.4273 23.9722 77.5811 23.8184 77.771 23.8184H97.6854C97.8753 23.8184 98.0292 23.9722 98.0292 24.1621C98.0292 24.352 97.8753 24.5058 97.6854 24.5058Z" fill="#007577"/>
<path d="M95.2999 26.2665H77.771C77.5811 26.2665 77.4273 26.1127 77.4273 25.9228C77.4273 25.7329 77.5811 25.5791 77.771 25.5791H95.2999C95.4898 25.5791 95.6436 25.7329 95.6436 25.9228C95.6436 26.1123 95.4898 26.2665 95.2999 26.2665Z" fill="#007577"/>
<path d="M97.2043 28.027H77.771C77.5811 28.027 77.4273 27.8732 77.4273 27.6833C77.4273 27.4934 77.5811 27.3396 77.771 27.3396H97.2043C97.3942 27.3396 97.548 27.4934 97.548 27.6833C97.548 27.8732 97.3942 28.027 97.2043 28.027Z" fill="#007577"/>
<path d="M94.5593 29.788H77.771C77.5811 29.788 77.4273 29.6342 77.4273 29.4443C77.4273 29.2544 77.5811 29.1006 77.771 29.1006H94.5593C94.7492 29.1006 94.903 29.2544 94.903 29.4443C94.903 29.6342 94.7492 29.788 94.5593 29.788Z" fill="#007577"/>
<path d="M93.5974 31.5487H77.771C77.5811 31.5487 77.4273 31.3949 77.4273 31.205C77.4273 31.0151 77.5811 30.8613 77.771 30.8613H93.5974C93.7873 30.8613 93.9411 31.0151 93.9411 31.205C93.9411 31.3946 93.7873 31.5487 93.5974 31.5487Z" fill="#007577"/>
<path d="M96.7234 33.3092H77.7712C77.5813 33.3092 77.4275 33.1554 77.4275 32.9655C77.4275 32.7756 77.5813 32.6218 77.7712 32.6218H96.7234C96.9133 32.6218 97.0671 32.7756 97.0671 32.9655C97.0671 33.1551 96.9133 33.3092 96.7234 33.3092Z" fill="#007577"/>
<path d="M93.5974 35.07H77.771C77.5811 35.07 77.4273 34.9162 77.4273 34.7263C77.4273 34.5364 77.5811 34.3826 77.771 34.3826H93.5974C93.7873 34.3826 93.9411 34.5364 93.9411 34.7263C93.9411 34.9162 93.7873 35.07 93.5974 35.07Z" fill="#007577"/>
<path d="M96.964 36.8305H77.7712C77.5813 36.8305 77.4275 36.6767 77.4275 36.4868C77.4275 36.2969 77.5813 36.1431 77.7712 36.1431H96.964C97.1539 36.1431 97.3077 36.2969 97.3077 36.4868C97.3077 36.6767 97.1535 36.8305 96.964 36.8305Z" fill="#007577"/>
<path d="M93.5974 38.5915H77.771C77.5811 38.5915 77.4273 38.4377 77.4273 38.2478C77.4273 38.0579 77.5811 37.9041 77.771 37.9041H93.5974C93.7873 37.9041 93.9411 38.0579 93.9411 38.2478C93.9411 38.4373 93.7873 38.5915 93.5974 38.5915Z" fill="#007577"/>
<path d="M96.483 40.352H77.771C77.5811 40.352 77.4273 40.1982 77.4273 40.0083C77.4273 39.8184 77.5811 39.6646 77.771 39.6646H96.483C96.6729 39.6646 96.8267 39.8184 96.8267 40.0083C96.8267 40.1982 96.6729 40.352 96.483 40.352Z" fill="#007577"/>
<path d="M97.2043 42.1132H77.771C77.5811 42.1132 77.4273 41.9594 77.4273 41.7695C77.4273 41.5796 77.5811 41.4258 77.771 41.4258H97.2043C97.3942 41.4258 97.548 41.5796 97.548 41.7695C97.548 41.9594 97.3942 42.1132 97.2043 42.1132Z" fill="#007577"/>
<path d="M97.4449 43.8737H77.771C77.5811 43.8737 77.4273 43.7199 77.4273 43.53C77.4273 43.3401 77.5811 43.1863 77.771 43.1863H97.4449C97.6348 43.1863 97.7886 43.3401 97.7886 43.53C97.7886 43.7199 97.6348 43.8737 97.4449 43.8737Z" fill="#007577"/>
<path d="M96.1054 44.9468H77.4273V45.6346H96.1054V44.9468Z" fill="#007577"/>
<path d="M108.997 84.2451C109.197 83.5187 109.331 82.7897 109.409 82.064L115.763 81.1958L113.209 71.3893L112.299 70.571L107.398 73.4086C106.487 71.9601 105.301 70.6815 103.891 69.6562L106.316 63.7209L105.406 62.9026L96.5459 61.0303L95.3898 67.0694C93.6432 67.1354 91.9476 67.5389 90.3876 68.234L83.8975 74.3034C83.4485 75.1559 83.0815 76.0675 82.815 77.0345C82.6149 77.7609 82.4808 78.4899 82.4032 79.2156L77.6933 89.072L78.6034 89.8902L84.4144 87.871C85.3252 89.3195 86.5109 90.5981 87.9204 91.623L84.5857 96.74L85.4958 97.5583L95.2659 100.249L96.422 94.2101C98.1686 94.1442 99.8157 93.9164 101.376 93.2216L105.128 98.2421L112.568 90.999L107.914 86.9766C108.363 86.1237 108.73 85.2121 108.997 84.2451ZM93.8207 88.2118C89.6389 87.06 87.1823 82.7361 88.3341 78.5544C89.4858 74.3726 93.8097 71.916 97.9915 73.0678C102.173 74.2196 104.63 78.5434 103.478 82.7256C102.326 86.9069 98.0024 89.3636 93.8207 88.2118Z" fill="#00BCBC"/>
<path d="M108.087 83.427C108.287 82.7006 108.421 81.9716 108.499 81.2459L114.853 80.3777L112.299 70.5712L106.488 72.5905C105.577 71.142 104.391 69.8634 102.982 68.8384L105.407 62.9028L95.6366 60.2122L94.4804 66.2513C92.7338 66.3173 91.0382 66.7208 89.4782 67.4159L85.5495 62.3469L78.3341 69.4628L82.9882 73.4853C82.5392 74.3378 82.1721 75.2494 81.9057 76.2164C81.7056 76.9428 81.5714 77.6718 81.4938 78.3974L75.139 79.2656L77.6937 89.0721L83.5047 87.0529C84.4155 88.5013 85.6012 89.78 87.0107 90.8053L84.5857 96.7405L94.3558 99.4315L95.5119 93.3924C97.2586 93.3264 98.9541 92.9229 100.514 92.2278L104.443 97.2968L111.658 90.1809L107.004 86.1584C107.453 85.3055 107.821 84.394 108.087 83.427ZM92.564 88.6515C87.6872 87.3084 84.8227 82.2661 86.1658 77.3896C87.5089 72.5128 92.5512 69.6483 97.428 70.9915C102.305 72.3346 105.169 77.3769 103.826 82.2537C102.483 87.1302 97.4408 89.9946 92.564 88.6515Z" fill="#00CCD4"/>
<path d="M47.3226 103.513L69.5413 104.133" stroke="#080022" stroke-width="1.36576" stroke-miterlimit="10" stroke-linecap="round" stroke-linejoin="round"/>
<path d="M70.1441 88.1067L72.5643 89.8537C72.5643 89.8537 72.7287 91.1501 71.3542 93.4533C69.9797 95.7565 64.9411 105.486 65.4039 106.72C65.8668 107.954 70.5188 108.916 70.9667 110.069C71.5054 111.456 62.0153 110.691 61.1781 109.875C60.268 108.988 62.0616 106.532 62.0616 106.532C62.0616 106.532 61.762 98.5529 62.4943 94.9339C63.1948 91.4709 66.8069 88.929 66.8069 88.929L70.1441 88.1067Z" fill="#FCB29A"/>
<path d="M66.2849 107.532C64.3994 108.186 62.062 106.532 62.062 106.532C62.062 106.532 60.268 108.988 61.1785 109.875C62.0157 110.691 71.5058 111.456 70.9671 110.069C70.6215 109.181 67.7826 108.406 66.2849 107.532Z" fill="#FF6931"/>
<path d="M34.0203 141.065L50.2446 94.7681L63.7011 141.327" stroke="#080022" stroke-width="1.36576" stroke-miterlimit="10" stroke-linecap="round" stroke-linejoin="round"/>
<path d="M44.3727 110.525L66.5911 111.145" stroke="#080022" stroke-width="1.36576" stroke-miterlimit="10" stroke-linecap="round" stroke-linejoin="round"/>
<path d="M61.0436 83.9242L57.4243 96.5922L52.0667 112.228C51.7463 113.163 52.1648 114.192 53.0486 114.634C54.7038 115.461 57.0977 116.754 57.1513 117.341C57.2333 118.24 47.7716 117.837 47.1662 116.935C46.5499 116.017 48.0916 114.059 48.0916 114.059C48.0916 114.059 47.6922 101.901 48.4911 98.9049C49.2901 95.9084 50.99 94.339 50.9521 92.0773C50.9146 89.8161 49.991 82.2257 50.9521 80.3278C51.9133 78.431 61.0436 83.9242 61.0436 83.9242Z" fill="#FCB29A"/>
<path d="M53.1583 110.151L57.4243 96.5919L61.0436 83.9235C61.0436 83.9235 51.9133 78.4303 50.9521 80.3278C49.991 82.2253 50.9146 89.8161 50.9521 92.0774C50.9897 94.3387 49.2901 95.9085 48.4911 98.9046C47.9965 100.76 47.6881 106.024 47.733 109.763C49.8412 109.592 52.094 109.878 53.1583 110.151Z" fill="#008EBA"/>
<path opacity="0.2" d="M53.1583 110.151L57.4243 96.5919L61.0436 83.9235C61.0436 83.9235 51.9133 78.4303 50.9521 80.3278C49.991 82.2253 50.9146 89.8161 50.9521 92.0774C50.9897 94.3387 49.2901 95.9085 48.4911 98.9046C47.9965 100.76 47.6881 106.024 47.733 109.763C49.8412 109.592 52.094 109.878 53.1583 110.151Z" fill="#008EBA"/>
<path opacity="0.1" d="M58.9103 86.4948C55.7006 85.9029 53.5155 83.24 53.5155 83.24C53.5155 83.24 55.4775 92.904 55.6824 95.4532C55.8872 98.0024 53.6941 108.792 53.6941 108.792L57.4242 96.5926L60.3033 87.0737C60.3033 87.0737 59.2809 86.5634 58.9103 86.4948Z" fill="#008EBA"/>
<path d="M53.1871 114.703C50.5435 115.343 48.0916 114.06 48.0916 114.06C48.0916 114.06 46.5498 116.018 47.1662 116.936C47.7712 117.837 57.2333 118.24 57.1513 117.341C57.0991 116.771 54.8339 115.532 53.1871 114.703Z" fill="#FF6931"/>
<path d="M72.5643 89.8538L72.5632 89.8531C72.5923 89.5076 72.5355 89.119 72.3649 88.6827C71.0487 85.3101 64.6028 80.8328 64.6028 80.8328L63.0698 79.8811C63.0698 79.8811 50.2971 77.0155 50.978 81.6908C51.6588 86.366 61.3421 89.423 63.0698 89.8341C63.8155 90.0116 64.496 90.1921 65.1189 90.4159C64.0765 91.4929 62.8686 93.0813 62.4939 94.934C62.1761 96.5049 62.0529 98.8971 62.015 101.102C64.3739 100.859 66.2288 101.045 67.3375 101.234C68.778 98.1506 70.6066 94.7051 71.3538 93.4535C72.7287 91.1503 72.5643 89.8538 72.5643 89.8538Z" fill="#008EBA"/>
<path opacity="0.1" d="M65.495 89.557C65.495 89.557 59.1147 87.0191 56.5538 83.2405C55.3361 81.4432 55.4815 79.7556 55.6062 79.0139C52.9531 79.0453 50.6805 79.6478 50.9783 81.6914C51.6592 86.3667 61.3425 89.4236 63.0701 89.8348C63.8159 90.0123 64.469 90.1927 65.0919 90.4165C65.9576 89.7221 68.4532 89.8643 68.4532 89.8643C67.8897 89.1474 65.495 89.557 65.495 89.557Z" fill="#008EBA"/>
<path d="M57.304 57.0393C57.6127 59.3392 55.7006 61.8662 55.7006 61.8662C55.7006 61.8662 58.0027 65.144 60.8125 64.5295C60.8125 64.5295 60.7258 60.842 61.9548 59.0666C63.1838 57.2908 57.1352 55.7822 57.304 57.0393Z" fill="#FCB29A"/>
<path d="M68.5502 58.6419C66.8254 60.371 68.0148 58.1426 68.2998 57.6316C69.2362 55.9516 69.1662 54.4018 68.9923 54.1088C68.716 53.6437 68.7561 52.305 68.8228 51.7061C68.8425 51.5293 68.9001 51.1084 68.7518 50.7588C68.6245 50.4585 68.7044 50.1898 68.9493 50.4304C69.1942 50.6706 69.2566 50.894 69.3211 51.4389C69.3524 51.7036 69.3954 51.7342 69.4599 51.7389C69.5737 51.7477 69.6651 51.1583 69.6728 50.453C69.6808 49.7251 69.7034 49.3034 69.8711 49.1033C70.0008 48.9484 70.1095 48.8278 70.1342 49.3052C70.159 49.7827 69.9549 50.7461 70.1445 50.8492C70.334 50.952 70.3784 50.2124 70.3712 49.7762C70.3639 49.3399 70.1947 48.8201 70.44 48.76C70.6081 48.7188 70.7382 48.8901 70.8009 49.4642C70.8636 50.0379 70.5742 51.0037 70.7418 51.0369C70.9095 51.0701 71.0141 50.0036 70.9948 49.7339C70.9747 49.455 71.1687 49.3289 71.3072 49.7893C71.4457 50.2496 71.3086 50.5875 71.2335 51.0945C71.1584 51.6015 71.0232 51.8286 71.1442 51.8953C71.2623 51.9602 71.4045 51.6944 71.4158 51.2272C71.4271 50.7599 71.4253 50.3444 71.61 50.4916C71.7948 50.6389 71.9038 51.2279 71.7464 52.0385C71.5889 52.8495 71.4147 53.9167 70.8362 54.3971C70.8362 54.3971 70.849 54.9952 70.8002 57.6312C70.6821 63.9419 69.4198 59.4223 68.5502 58.6419Z" fill="#F9AF9A"/>
<path d="M56.223 61.0548C56.223 61.0548 57.0099 64.1351 61.4329 63.819C61.4329 63.819 62.0726 68.8187 62.3445 72.9811C62.5556 76.2127 63.0126 79.8528 63.0126 79.8528C63.0126 79.8528 59.6204 81.4379 57.3259 80.8004C54.4826 80.0106 52.0343 80.6426 50.6125 81.6694C49.191 82.6961 49.6218 76.5356 50.4116 72.9815C51.2011 69.427 55.5184 59.8516 56.223 61.0548Z" fill="#FCBA00"/>
<path opacity="0.43" d="M61.9067 67.4861L58.4317 70.8262C58.4317 70.8262 59.57 73.3915 62.4772 74.135L61.9067 67.4861Z" fill="#FCBA00"/>
<path d="M56.4405 67.9449C56.4405 67.9449 56.5243 72.318 62.1625 70.7343C64.2343 70.1522 67.9834 68.009 70.116 65.0075C70.116 65.0075 71.7824 61.3542 70.9776 54.7614L68.747 54.2839C68.747 54.2839 66.9428 60.6785 66.3111 61.6265C65.6791 62.5742 61.0104 64.3908 58.088 63.996C55.1659 63.6009 56.4405 67.9449 56.4405 67.9449Z" fill="#FCBA00"/>
<path d="M59.2449 51.8576C61.2842 50.9417 63.9033 51.9043 64.118 54.8657C64.122 54.9204 64.3229 55.8663 64.9698 56.0182C65.1051 56.05 65.1754 56.1932 65.1266 56.3215C65.0467 56.5318 64.9819 56.768 64.5758 56.9342C64.5824 59.3172 63.307 60.6472 62.2551 60.879C60.0828 61.358 58.1908 59.3697 57.3258 57.3439C56.2601 54.8475 57.3652 52.7018 59.2449 51.8576Z" fill="#FCB29A"/>
<path opacity="0.35" d="M59.2449 51.8575C59.8765 51.5739 61.5484 51.1777 62.2308 51.8407C60.6274 52.7858 59.8346 55.1984 60.2071 57.483C60.3223 58.1901 60.7356 60.6525 61.8717 60.9372C59.8616 61.1205 58.139 59.2496 57.3251 57.3437C56.2601 54.8474 57.3652 52.7016 59.2449 51.8575Z" fill="#FCB29A"/>
<path d="M61.9147 53.3075C63.2804 53.3986 64.2365 52.545 64.2365 51.9873C64.2365 51.168 63.5195 49.8817 61.0257 50.5305C59.3374 50.9697 59.3341 51.4362 58.3635 51.5248C56.9096 51.6575 55.5807 52.545 54.8466 54.4913C54.2208 56.1505 53.1736 64.9736 46.9252 65.9296C46.9252 65.9296 49.2415 70.6523 53.9591 70.4365C59.9345 70.1631 60.3099 61.6615 59.5703 58.7591C58.6136 55.0056 60.549 53.2164 61.9147 53.3075Z" fill="#080022"/>
<path d="M56.0731 142.158L72.2971 95.8604L85.7539 141.327" stroke="#080022" stroke-width="1.36576" stroke-miterlimit="10" stroke-linecap="round" stroke-linejoin="round"/>
<path d="M42.4061 117.537L64.6244 118.157" stroke="#080022" stroke-width="1.36576" stroke-miterlimit="10" stroke-linecap="round" stroke-linejoin="round"/>
<path d="M39.5543 125.405L61.7729 126.025" stroke="#080022" stroke-width="1.36576" stroke-miterlimit="10" stroke-linecap="round" stroke-linejoin="round"/>
<path d="M36.2393 133.772L58.4576 134.391" stroke="#080022" stroke-width="1.36576" stroke-miterlimit="10" stroke-linecap="round" stroke-linejoin="round"/>
<path d="M137.824 54.0362C139.182 55.8805 140.324 56.4568 140.35 57.5087C140.373 58.4276 135.174 62.2284 133.951 62.6108C132.218 63.1524 134.522 59.505 135.646 57.9253C135.932 57.5236 136.159 56.4619 135.969 56.007L135.259 55.5908C135.259 55.5908 137.318 53.3481 137.824 54.0362Z" fill="#080022"/>
<path d="M117.617 14.2511C117.365 14.1148 118.325 13.6781 118.4 13.5531C118.897 12.7253 119.553 11.8214 120.546 11.5834C121.751 11.2944 122.786 12.2154 123.972 12.1465C124.634 12.1079 125.254 11.7394 125.917 11.7587C126.626 11.7791 127.087 12.2778 127.631 12.6576C128.36 13.1667 129.051 12.9553 129.88 12.9116C130.531 12.8773 131.191 13.0454 131.746 13.3873C132.411 13.7966 132.977 14.3863 133.752 14.5904C134.592 14.812 135.508 14.6035 136.326 14.9316C138.807 15.9277 138.99 20.8949 136.046 21.3979C134.033 21.742 133.595 24.1615 132.144 23.2845C130.694 22.4075 130.39 20.8085 129.323 21.3542C128.257 21.8995 126.71 20.9401 126.12 19.2686C125.529 17.5971 124.13 16.5652 122.804 16.4515C121.48 16.3385 117.625 14.2551 117.617 14.2511Z" fill="#080022"/>
<path d="M123.036 15.9436H125.337C125.337 15.9436 126.409 17.914 129.824 18.7498C131.878 19.2528 126.889 23.1954 126.889 23.1954L125.013 20.4359L123.036 15.9436Z" fill="#FCB29A"/>
<path d="M147.202 31.458C148.599 31.7138 149.431 32.8437 150.396 33.8858C151.264 34.8233 151.612 38.6875 149.677 40.4841C147.526 42.4822 135.19 41.1875 135.19 41.1875C135.19 41.1875 137.648 42.1334 138.181 46.8458C138.715 51.5583 139.426 55.2928 139.426 55.2928L135.247 57.0711C135.247 57.0711 126.8 41.6891 126.889 39.6439C126.978 37.5988 129.912 35.643 134.625 33.9536C138.441 32.5857 143.657 30.8092 147.202 31.458Z" fill="#B6E6DC"/>
<g opacity="0.63">
<path d="M149.389 32.7888C149.822 34.6251 148.837 37.448 146.451 38.6986C143.228 40.3887 135.522 40.3213 135.522 40.3213C135.522 40.3213 133.564 39.5063 132.427 40.7248C132.427 40.7248 134.335 40.6347 135.191 41.188C135.191 41.188 147.526 42.4827 149.677 40.4846C151.611 38.688 151.264 34.8237 150.396 33.8863C150.054 33.5171 149.729 33.1373 149.389 32.7888Z" fill="#B6E6DC"/>
</g>
<path d="M129.824 18.749C129.824 18.749 133.558 18.5711 137.292 20.7941C141.027 23.0171 147.94 28.1877 150.396 33.916C150.396 33.916 148.495 35.7318 144.583 34.3092C140.671 32.8867 133.358 34.4313 133.358 34.4313C133.358 34.4313 130.268 27.9964 129.823 27.2852C129.378 26.5738 126.888 23.1954 126.888 23.1954C126.888 23.1954 129.824 20.6163 129.824 18.749Z" fill="#007577"/>
<path d="M131.53 30.9195L132.431 32.5105L133.358 34.4317C133.358 34.4317 134.624 28.3054 133.999 26.0518C133.613 24.6588 131.53 30.9195 131.53 30.9195Z" fill="#007577"/>
<path d="M105.283 49.8604L106.486 51.7449L119.279 43.5801L118.077 41.6957L105.283 49.8604Z" fill="#FCBA00"/>
<path d="M101.358 49.5278C100.361 50.6902 100.285 52.9033 100.285 52.9033L101.987 50.3964L104.326 50.1799L105.76 52.4266L104.578 54.4564L101.587 54.9448C101.587 54.9448 103.835 55.9493 105.101 55.3931C107.015 54.5515 107.642 52.2797 106.685 50.4894L106.694 50.4835C106.681 50.4638 106.67 50.4438 106.657 50.4237C106.635 50.3877 106.61 50.3527 106.587 50.3177C106.565 50.2812 106.543 50.2448 106.52 50.2091C106.507 50.189 106.493 50.1708 106.481 50.1507L106.472 50.1566C105.252 48.5339 102.719 47.9398 101.358 49.5278Z" fill="#FCBA00"/>
<path d="M118.779 41.2771C118.779 41.2771 117.312 42.2022 116.924 42.6993C116.535 43.1965 117.418 44.4077 115.761 45.8277C114.589 46.8319 115.82 46.2141 116.63 46.1368C119.455 45.866 119.209 43.5956 120.759 42.8714C121.184 42.6731 118.779 41.2771 118.779 41.2771Z" fill="#FCB29A"/>
<path d="M119.096 44.1955L117.575 41.5114L118.009 41.3503L121.687 38.3076L124.129 40.6498L119.096 44.1955Z" fill="#FCB29A"/>
<path d="M118.151 42.5977L118.009 41.3501C118.009 41.3501 115.807 42.0182 115.079 43.6143C115.079 43.6143 116.645 42.5784 116.964 42.9374C117.284 43.2964 118.151 43.3613 118.151 43.3613V42.5977Z" fill="#FCB29A"/>
<path d="M134.335 25.8624C134.335 25.8624 133.291 32.5431 130.179 36.532C130.179 36.532 124.844 42.2566 120.132 44.1957L118.006 40.9456L125.722 33.7841C125.722 33.7841 127.332 26.7514 126.888 23.1951C126.888 23.1951 132.29 22.1279 134.335 25.8624Z" fill="#007577"/>
<path d="M119.278 14.5701C117.223 15.8297 116.487 18.7482 118.995 20.7397C119.041 20.7765 119.762 21.5303 119.504 22.1991C119.45 22.3387 119.535 22.4885 119.679 22.5231C119.915 22.5796 120.165 22.6656 120.56 22.4047C122.679 23.859 124.638 23.5317 125.485 22.7356C127.232 21.0914 126.611 18.1974 125.332 16.1957C123.756 13.7292 121.173 13.4092 119.278 14.5701Z" fill="#FCB29A"/>
<path opacity="0.35" d="M119.278 14.5703C118.641 14.9607 117.272 16.209 117.448 17.2198C119.264 16.3658 121.895 17.1265 123.704 18.8472C124.264 19.3797 126.206 21.2448 125.769 22.4301C127.154 20.7509 126.535 18.0789 125.332 16.1956C123.756 13.7294 121.173 13.4094 119.278 14.5703Z" fill="#FCB29A"/>
<path d="M134.584 16.1308L126.435 14.0956L124.077 13.032L123.178 13.1315C123.109 12.9288 123.054 12.798 123.054 12.798L119.432 12.5166L118.034 13.8105C118.034 13.8105 114.014 15.7824 115.448 17.7488C116.273 18.8805 118.262 18.5889 119.304 17.0803C119.391 16.9549 119.472 16.8387 119.548 16.7304C119.972 16.1323 121.043 15.6031 121.654 16.2584C121.879 16.5001 121.993 16.8175 122.127 17.1168C122.53 18.0178 123.284 18.9268 124.394 18.8849C125.133 18.8568 125.831 18.4136 126.563 18.5098C127.037 18.5722 127.454 18.859 127.763 19.214C128.215 19.7345 128.394 20.3924 128.951 20.8298C129.543 21.2952 130.346 21.4815 131.094 21.3638C131.896 21.238 132.596 20.4777 133.429 20.6053C133.94 20.6833 134.331 21.0259 134.857 21.0693C135.302 21.1057 135.746 21.0514 136.167 20.9052C137.113 20.5765 137.861 19.8191 138.129 18.8732C138.57 17.3103 134.584 16.1308 134.584 16.1308Z" fill="#080022"/>
<path d="M194.044 53.6995H167.958C166.983 53.6995 166.193 52.9097 166.193 51.9351V23.8653C166.193 22.8907 166.983 22.1008 167.958 22.1008H194.044C195.019 22.1008 195.809 22.8907 195.809 23.8653V51.9351C195.809 52.9097 195.019 53.6995 194.044 53.6995Z" fill="#F4D995"/>
<path d="M191.098 27.1767H171.899C171.327 27.1767 170.864 26.7135 170.864 26.1423C170.864 25.5708 171.327 25.1079 171.899 25.1079H191.098C191.669 25.1079 192.132 25.5712 192.132 26.1423C192.132 26.7135 191.669 27.1767 191.098 27.1767Z" fill="#00CCD4"/>
<path d="M186.114 29.1118H169.436V35.0096H186.114V29.1118Z" fill="#FCBA00"/>
<path d="M192.81 36.2822H169.436V42.18H192.81V36.2822Z" fill="#00CCD4"/>
<path d="M193.09 29.1118H187.193V35.0096H193.09V29.1118Z" fill="#00499B"/>
<path d="M192.635 43.4788H175.957V49.3765H192.635V43.4788Z" fill="#FCBA00"/>
<path d="M170.864 43.4788H169.262V49.3765H170.864V43.4788Z" fill="#FCBA00"/>
<path d="M175.012 43.4788H171.857V49.3765H175.012V43.4788Z" fill="#00499B"/>
<path d="M205.728 128.543H176.757C175.647 128.543 174.748 127.643 174.748 126.535V93.8039C174.748 92.6947 175.647 91.7959 176.757 91.7959H205.728C206.837 91.7959 207.736 92.6951 207.736 93.8039V126.535C207.736 127.644 206.837 128.543 205.728 128.543Z" fill="#F4D995"/>
<path d="M203.502 96.9398H179.73C179.065 96.9398 178.526 96.4011 178.526 95.7366C178.526 95.0722 179.065 94.5334 179.73 94.5334H203.502C204.167 94.5334 204.705 95.0722 204.705 95.7366C204.705 96.4011 204.167 96.9398 203.502 96.9398Z" fill="#00CCD4"/>
<path d="M204.293 99.8152H178.939C178.712 99.8152 178.526 99.6304 178.526 99.4026C178.526 99.1748 178.711 98.99 178.939 98.99H204.293C204.521 98.99 204.705 99.1748 204.705 99.4026C204.705 99.6304 204.521 99.8152 204.293 99.8152Z" fill="#007577"/>
<path d="M201.262 101.929H178.94C178.712 101.929 178.527 101.745 178.527 101.517C178.527 101.289 178.712 101.104 178.94 101.104H201.262C201.489 101.104 201.674 101.289 201.674 101.517C201.674 101.745 201.489 101.929 201.262 101.929Z" fill="#007577"/>
<path d="M203.681 104.043H178.939C178.712 104.043 178.526 103.858 178.526 103.631C178.526 103.403 178.711 103.218 178.939 103.218H203.681C203.909 103.218 204.094 103.403 204.094 103.631C204.094 103.858 203.91 104.043 203.681 104.043Z" fill="#007577"/>
<path d="M200.321 106.157H178.94C178.712 106.157 178.527 105.972 178.527 105.744C178.527 105.517 178.712 105.332 178.94 105.332H200.321C200.548 105.332 200.733 105.517 200.733 105.744C200.733 105.972 200.548 106.157 200.321 106.157Z" fill="#007577"/>
<path d="M199.098 108.271H178.939C178.712 108.271 178.526 108.086 178.526 107.858C178.526 107.63 178.711 107.446 178.939 107.446H199.098C199.326 107.446 199.511 107.63 199.511 107.858C199.511 108.086 199.326 108.271 199.098 108.271Z" fill="#007577"/>
<path d="M203.071 110.385H178.94C178.712 110.385 178.527 110.2 178.527 109.972C178.527 109.744 178.712 109.559 178.94 109.559H203.071C203.298 109.559 203.483 109.744 203.483 109.972C203.483 110.2 203.298 110.385 203.071 110.385Z" fill="#007577"/>
<path d="M199.098 112.499H178.939C178.712 112.499 178.526 112.314 178.526 112.086C178.526 111.858 178.711 111.673 178.939 111.673H199.098C199.326 111.673 199.511 111.858 199.511 112.086C199.511 112.314 199.326 112.499 199.098 112.499Z" fill="#007577"/>
<path d="M203.376 114.612H178.939C178.712 114.612 178.526 114.428 178.526 114.2C178.526 113.972 178.711 113.787 178.939 113.787H203.376C203.604 113.787 203.789 113.972 203.789 114.2C203.789 114.428 203.604 114.612 203.376 114.612Z" fill="#007577"/>
<path d="M199.098 116.726H178.939C178.712 116.726 178.526 116.541 178.526 116.313C178.526 116.086 178.711 115.901 178.939 115.901H199.098C199.326 115.901 199.511 116.086 199.511 116.313C199.511 116.541 199.326 116.726 199.098 116.726Z" fill="#007577"/>
<path d="M202.765 118.84H178.939C178.712 118.84 178.526 118.655 178.526 118.427C178.526 118.199 178.711 118.015 178.939 118.015H202.765C202.993 118.015 203.177 118.199 203.177 118.427C203.178 118.655 202.993 118.84 202.765 118.84Z" fill="#007577"/>
<path d="M203.681 120.954H178.939C178.712 120.954 178.526 120.769 178.526 120.541C178.526 120.313 178.711 120.128 178.939 120.128H203.681C203.909 120.128 204.094 120.313 204.094 120.541C204.094 120.769 203.91 120.954 203.681 120.954Z" fill="#007577"/>
<path d="M203.987 123.068H178.94C178.712 123.068 178.527 122.883 178.527 122.655C178.527 122.427 178.712 122.243 178.94 122.243H203.987C204.215 122.243 204.4 122.427 204.4 122.655C204.4 122.883 204.215 123.068 203.987 123.068Z" fill="#007577"/>
<path d="M202.261 124.356H178.527V125.182H202.261V124.356Z" fill="#007577"/>
<path d="M178.076 81.5935C177.904 80.3605 177.63 79.1675 177.272 78.0161L186.341 72.5386L176.045 59.3402L174.129 58.6951L168.556 66.2075C166.225 64.6074 163.591 63.4451 160.781 62.8134L160.572 52.2247L158.656 51.5796L143.994 54.5418L146.195 64.4569C143.59 65.7009 141.283 67.4231 139.372 69.4984L133.504 82.9527C133.382 84.5393 133.422 86.1624 133.651 87.8033C133.824 89.036 134.097 90.2293 134.455 91.3803L133.767 109.411L135.683 110.057L143.172 103.189C145.503 104.789 148.137 105.952 150.947 106.583L149.24 116.527L151.156 117.172L167.734 114.855L165.533 104.94C168.138 103.696 170.487 102.272 172.397 100.197L181.376 105.353L187.915 89.497L178.224 86.4445C178.346 84.8571 178.306 83.2344 178.076 81.5935ZM157.547 96.7375C150.897 97.667 144.754 93.03 143.824 86.381C142.895 79.7317 147.532 73.588 154.181 72.6585C160.83 71.7291 166.974 76.3661 167.904 83.0154C168.833 89.6647 164.196 95.8081 157.547 96.7375Z" fill="#E5572C"/>
<path d="M176.161 80.9485C175.988 79.7155 175.715 78.5225 175.357 77.3711L184.425 71.8936L174.129 58.6952L166.64 65.5625C164.31 63.962 161.675 62.8 158.866 62.168L158.656 51.5793L142.078 53.8964L144.279 63.8115C141.674 65.0555 139.367 66.7777 137.456 68.8531L128.179 63.739L121.897 79.2547L131.589 82.3073C131.466 83.8939 131.506 85.517 131.736 87.1582C131.908 88.3909 132.182 89.5843 132.54 90.7353L123.471 96.2128L133.767 109.411L141.257 102.544C143.587 104.144 146.222 105.306 149.031 105.938L149.24 116.527L165.818 114.21L163.617 104.295C166.223 103.051 168.53 101.328 170.44 99.253L179.717 104.367L186 88.8513L176.308 85.7987C176.43 84.2125 176.39 82.5894 176.161 80.9485ZM155.771 97.0912C148.57 98.0976 141.916 93.0764 140.91 85.8756C139.904 78.6749 144.925 72.0215 152.126 71.0152C159.327 70.0088 165.98 75.0304 166.987 82.2311C167.993 89.4315 162.971 96.0849 155.771 97.0912Z" fill="#FF6931"/>
<path d="M136.38 58.3679C136.245 58.2473 136.115 58.1325 135.96 58.0877C135.808 58.0279 135.644 58.0698 135.473 58.1296C135.535 58.0636 135.612 58.006 135.706 57.9794C135.797 57.9484 135.901 57.9524 135.995 57.9805C136.179 58.0483 136.321 58.1937 136.38 58.3679Z" fill="white"/>
<path d="M136.032 58.9058C135.897 58.7851 135.767 58.6703 135.612 58.6255C135.461 58.5657 135.297 58.6076 135.125 58.6674C135.187 58.6014 135.265 58.5439 135.358 58.5172C135.449 58.4863 135.553 58.4903 135.647 58.5183C135.831 58.5861 135.973 58.7316 136.032 58.9058Z" fill="white"/>
<path d="M135.684 59.4434C135.55 59.3227 135.419 59.2079 135.265 59.1631C135.113 59.1033 134.949 59.1452 134.777 59.205C134.84 59.139 134.917 59.0814 135.01 59.0548C135.102 59.0239 135.205 59.0279 135.299 59.0559C135.483 59.1237 135.625 59.2692 135.684 59.4434Z" fill="white"/>
<path d="M135.336 59.9807C135.202 59.8601 135.071 59.7453 134.916 59.7004C134.765 59.6407 134.601 59.6826 134.429 59.7424C134.491 59.6764 134.569 59.6188 134.662 59.5922C134.754 59.5612 134.857 59.5652 134.951 59.5933C135.135 59.6611 135.277 59.8069 135.336 59.9807Z" fill="white"/>
<path d="M160.278 13.9179C160.244 13.6711 160.189 13.4324 160.118 13.2024L161.932 12.1067L159.872 9.46641L159.489 9.33738L158.374 10.8402C157.908 10.5201 157.381 10.2876 156.819 10.1611L156.777 8.04309L156.394 7.91406L153.461 8.50672L153.901 10.4902C153.38 10.7392 152.919 11.0836 152.536 11.4988L151.363 14.1901C151.338 14.5076 151.346 14.8324 151.392 15.1604C151.427 15.4072 151.482 15.6455 151.553 15.8759L151.415 19.4828L151.799 19.6119L153.297 18.2381C153.763 18.5581 154.29 18.7907 154.852 18.9172L154.511 20.9062L154.894 21.0352L158.21 20.5716L157.77 18.588C158.291 18.3391 158.761 18.0544 159.143 17.6393L160.94 18.6708L162.248 15.499L160.309 14.8885C160.332 14.571 160.324 14.2463 160.278 13.9179ZM156.172 16.9475C154.842 17.1334 153.613 16.2057 153.427 14.8757C153.241 13.5457 154.169 12.3167 155.499 12.1308C156.829 11.9449 158.058 12.8725 158.243 14.2025C158.429 15.5325 157.502 16.7616 156.172 16.9475Z" fill="#E5572C"/>
<path d="M159.895 13.7891C159.86 13.5423 159.806 13.304 159.734 13.0736L161.548 11.978L159.489 9.33762L157.991 10.7114C157.524 10.3914 156.997 10.1588 156.436 10.0323L156.394 7.91431L153.078 8.37793L153.518 10.3615C152.997 10.6104 152.535 10.9548 152.153 11.37L150.297 10.3469L149.041 13.4505L150.979 14.061C150.955 14.3785 150.963 14.7032 151.009 15.0313C151.043 15.278 151.098 15.5164 151.17 15.7467L149.356 16.8424L151.415 19.4827L152.914 18.109C153.38 18.429 153.907 18.6615 154.469 18.788L154.511 20.906L157.827 20.4424L157.387 18.4589C157.908 18.2099 158.369 17.8655 158.752 17.4503L160.607 18.4735L161.864 15.3699L159.925 14.7593C159.949 14.4422 159.941 14.1175 159.895 13.7891ZM155.816 17.0184C154.376 17.2196 153.045 16.2155 152.844 14.775C152.643 13.3346 153.647 12.0038 155.087 11.8023C156.528 11.6011 157.858 12.6056 158.06 14.0461C158.261 15.4861 157.257 16.8169 155.816 17.0184Z" fill="#FF6931"/>
<path d="M223.739 84.088C223.701 83.8182 223.641 83.5576 223.563 83.3058L225.546 82.1081L223.294 79.2221L222.876 79.081L221.657 80.7237C221.147 80.3738 220.571 80.1198 219.957 79.9817L219.911 77.6664L219.492 77.5254L216.286 78.1731L216.768 80.341C216.198 80.613 215.693 80.9895 215.276 81.4432L213.993 84.385C213.966 84.732 213.975 85.087 214.025 85.4457C214.062 85.715 214.122 85.976 214.2 86.2279L214.05 90.1705L214.469 90.3115L216.106 88.8099C216.616 89.1598 217.192 89.4138 217.806 89.552L217.433 91.7261L217.852 91.8672L221.477 91.3605L220.996 89.1926C221.565 88.9207 222.079 88.6094 222.497 88.1556L224.46 89.283L225.89 85.816L223.77 85.1486C223.798 84.8016 223.789 84.447 223.739 84.088ZM219.25 87.3993C217.796 87.6023 216.453 86.5887 216.249 85.1348C216.046 83.6808 217.06 82.3373 218.514 82.1343C219.968 81.9313 221.311 82.9449 221.514 84.3989C221.718 85.8528 220.704 87.1963 219.25 87.3993Z" fill="#06B7B7"/>
<path d="M223.32 83.9469C223.282 83.6772 223.222 83.4166 223.144 83.1647L225.127 81.967L222.876 79.081L221.238 80.5827C220.729 80.2328 220.153 79.9787 219.538 79.8406L219.492 77.5254L215.868 78.032L216.349 80.2C215.779 80.4719 215.275 80.8484 214.857 81.3022L212.829 80.184L211.455 83.5766L213.574 84.2439C213.548 84.5909 213.556 84.946 213.606 85.3046C213.644 85.5743 213.704 85.8349 213.782 86.0868L211.799 87.2845L214.051 90.1705L215.688 88.6688C216.198 89.0187 216.774 89.2728 217.388 89.4109L217.434 91.7261L221.059 91.2195L220.578 89.0515C221.148 88.7796 221.652 88.4031 222.07 87.9493L224.098 89.0676L225.472 85.6749L223.353 85.0075C223.379 84.6606 223.37 84.3059 223.32 83.9469ZM218.861 87.4766C217.287 87.6967 215.832 86.5985 215.612 85.0243C215.392 83.4497 216.49 81.9951 218.064 81.7749C219.639 81.5548 221.093 82.653 221.313 84.2272C221.534 85.8018 220.436 87.2568 218.861 87.4766Z" fill="#00CCD4"/>
<path d="M204.777 78.1901C204.748 77.9849 204.703 77.7859 204.643 77.5941L206.154 76.6818L204.439 74.4833L204.12 74.3757L203.191 75.627C202.803 75.3606 202.364 75.167 201.896 75.0617L201.861 73.298L201.543 73.1904L199.1 73.6839L199.467 75.3354C199.033 75.5425 198.649 75.8297 198.33 76.1752L197.353 78.4161C197.332 78.6803 197.339 78.9508 197.377 79.2241C197.406 79.4293 197.452 79.6283 197.511 79.8201L197.396 82.8234L197.715 82.9309L198.963 81.7872C199.351 82.0536 199.79 82.2472 200.258 82.3525L199.974 84.0087L200.293 84.1163L203.054 83.7303L202.688 82.0788C203.122 81.8718 203.513 81.6345 203.831 81.2889L205.327 82.1477L206.416 79.5066L204.801 78.9981C204.822 78.7339 204.815 78.4634 204.777 78.1901ZM201.357 80.7127C200.25 80.8676 199.227 80.0952 199.072 78.9876C198.917 77.8799 199.689 76.8568 200.797 76.7019C201.904 76.547 202.928 77.3193 203.082 78.427C203.237 79.5347 202.465 80.5578 201.357 80.7127Z" fill="#016868"/>
<path d="M204.458 78.0826C204.429 77.8773 204.384 77.6783 204.324 77.4866L205.835 76.5743L204.12 74.3757L202.872 75.5195C202.484 75.2531 202.045 75.0595 201.577 74.9542L201.542 73.1904L198.781 73.5764L199.147 75.2279C198.713 75.4349 198.329 75.7222 198.011 76.0677L196.466 75.2159L195.419 77.8004L197.033 78.3089C197.013 78.5732 197.02 78.8436 197.058 79.117C197.087 79.3222 197.132 79.5212 197.192 79.7129L195.681 80.6252L197.396 82.8238L198.644 81.68C199.032 81.9465 199.471 82.14 199.939 82.2454L199.974 84.0091L202.735 83.6231L202.368 81.9716C202.803 81.7646 203.187 81.4777 203.505 81.1318L205.05 81.9836L206.097 79.3991L204.482 78.8906C204.503 78.6264 204.496 78.3559 204.458 78.0826ZM201.062 80.7714C199.862 80.939 198.754 80.1025 198.587 78.9034C198.419 77.7039 199.255 76.5958 200.455 76.4282C201.654 76.2605 202.762 77.097 202.93 78.2965C203.097 79.4957 202.261 80.6041 201.062 80.7714Z" fill="#007577"/>
<path d="M222.359 63.2089C222.306 62.8302 222.222 62.4635 222.112 62.11L224.898 60.4272L221.735 56.3723L221.146 56.174L219.434 58.4819C218.718 57.9902 217.908 57.633 217.045 57.4391L216.981 54.1861L216.392 53.9878L211.887 54.8979L212.564 57.9439C211.763 58.3259 211.054 58.8551 210.467 59.4926L208.665 63.6259C208.627 64.1132 208.64 64.6118 208.71 65.1163C208.763 65.495 208.847 65.8616 208.957 66.2152L208.746 71.7546L209.334 71.9529L211.635 69.8433C212.351 70.335 213.161 70.6918 214.024 70.8861L213.5 73.9408L214.088 74.1391L219.182 73.4273L218.505 70.3813C219.305 69.9993 220.027 69.5615 220.614 68.924L223.372 70.5081L225.381 65.6368L222.404 64.6989C222.442 64.2116 222.429 63.713 222.359 63.2089ZM216.052 67.8616C214.009 68.147 212.121 66.7226 211.836 64.6796C211.551 62.637 212.975 60.7494 215.018 60.464C217.061 60.1786 218.948 61.603 219.234 63.6459C219.519 65.6885 218.095 67.5758 216.052 67.8616Z" fill="#F77B1E"/>
<path d="M221.77 63.0106C221.717 62.6319 221.633 62.2653 221.523 61.9117L224.309 60.2289L221.146 56.174L218.845 58.2836C218.129 57.7919 217.32 57.4347 216.457 57.2408L216.393 53.9878L211.3 54.6996L211.976 57.7456C211.175 58.1276 210.466 58.6569 209.88 59.2943L207.03 57.723L205.1 62.4898L208.077 63.4276C208.04 63.9149 208.052 64.4135 208.122 64.918C208.175 65.2967 208.259 65.6634 208.369 66.0169L205.583 67.6997L208.746 71.7546L211.047 69.645C211.763 70.1367 212.573 70.4935 213.435 70.6878L213.5 73.9408L218.593 73.229L217.917 70.183C218.717 69.801 219.426 69.2718 220.013 68.6343L222.863 70.2056L224.793 65.4388L221.815 64.501C221.853 64.0133 221.841 63.5147 221.77 63.0106ZM215.506 67.9698C213.294 68.2789 211.25 66.7364 210.941 64.5243C210.631 62.3123 212.174 60.2682 214.386 59.9588C216.598 59.6497 218.643 61.1922 218.952 63.4046C219.261 65.6167 217.718 67.6607 215.506 67.9698Z" fill="#FCBA00"/>
<path d="M26.8978 109.396C26.8559 109.097 26.7896 108.807 26.7028 108.528L28.9029 107.199L26.405 103.997L25.9403 103.84L24.5881 105.663C24.0228 105.275 23.3838 104.993 22.7022 104.84L22.6516 102.271L22.1868 102.114L18.6298 102.833L19.1638 105.238C18.5318 105.54 17.9719 105.958 17.5087 106.461L16.085 109.725C16.0555 110.11 16.0649 110.504 16.1207 110.902C16.1626 111.201 16.229 111.491 16.3157 111.77L16.1488 116.144L16.6135 116.3L18.4305 114.634C18.9958 115.023 19.6351 115.305 20.3163 115.458L19.9022 117.87L20.367 118.026L24.3887 117.464L23.8547 115.059C24.4867 114.757 25.0568 114.412 25.5201 113.908L27.6982 115.159L29.2845 111.313L26.9332 110.572C26.9634 110.187 26.9536 109.794 26.8978 109.396ZM21.9175 113.07C20.3043 113.295 18.8139 112.17 18.5886 110.557C18.363 108.944 19.4882 107.454 21.101 107.228C22.7139 107.003 24.2046 108.128 24.4299 109.741C24.6555 111.354 23.5307 112.844 21.9175 113.07Z" fill="#F77B1E"/>
<path d="M26.4331 109.239C26.3912 108.94 26.3249 108.651 26.2381 108.371L28.4382 107.042L25.9404 103.84L24.1234 105.507C23.5581 105.118 22.9191 104.836 22.2375 104.683L22.1865 102.114L18.1648 102.676L18.6988 105.082C18.0667 105.383 17.5069 105.801 17.0436 106.304L14.7929 105.064L13.269 108.828L15.6203 109.568C15.5908 109.953 15.6003 110.347 15.656 110.745C15.6979 111.045 15.7643 111.334 15.851 111.613L13.651 112.942L16.1488 116.144L17.9658 114.478C18.5311 114.866 19.1704 115.148 19.8516 115.301L19.9023 117.87L23.924 117.308L23.39 114.903C24.0221 114.601 24.5819 114.183 25.0452 113.68L27.2959 114.921L28.8202 111.157L26.4689 110.416C26.4988 110.031 26.4889 109.637 26.4331 109.239ZM21.4867 113.155C19.7397 113.399 18.1258 112.181 17.8816 110.434C17.6374 108.687 18.8555 107.073 20.6025 106.829C22.3494 106.585 23.9634 107.803 24.2076 109.55C24.4518 111.297 23.2333 112.911 21.4867 113.155Z" fill="#FCBA00"/>
<path d="M42.609 37.7372C42.5561 37.3585 42.4719 36.9919 42.3619 36.6383L45.148 34.9555L41.985 30.9006L41.3963 30.7023L39.684 33.0102C38.9681 32.5185 38.1586 32.1613 37.2955 31.9674L37.2314 28.7144L36.6427 28.5161L32.1384 29.4262L32.8145 32.4722C32.0141 32.8542 31.3052 33.3835 30.7184 34.0209L28.9156 38.1542C28.8781 38.6415 28.8905 39.1401 28.9608 39.6446C29.0137 40.0233 29.0979 40.39 29.2079 40.7435L28.9965 46.283L29.5852 46.4812L31.8862 44.3716C32.602 44.8633 33.4116 45.2205 34.2747 45.4144L33.7505 48.4692L34.3392 48.6674L39.4321 47.9556L38.756 44.9096C39.5564 44.5276 40.2781 44.0899 40.8649 43.4524L43.6234 45.0364L45.6324 40.1651L42.6549 39.2273C42.6917 38.7399 42.6797 38.2413 42.609 37.7372ZM36.3019 42.3895C34.2594 42.6749 32.3717 41.2505 32.0863 39.2076C31.8009 37.165 33.2253 35.2773 35.2682 34.9919C37.3112 34.7065 39.1985 36.1309 39.4839 38.1739C39.7693 40.2168 38.3445 42.1041 36.3019 42.3895Z" fill="#E5572C"/>
<path d="M42.0203 37.539C41.9675 37.1603 41.8833 36.7936 41.7732 36.44L44.5593 34.7572L41.3963 30.7023L39.0953 32.8119C38.3795 32.3202 37.57 31.9631 36.7069 31.7691L36.6423 28.5161L31.5494 29.228L32.2255 32.274C31.4251 32.6559 30.7162 33.1852 30.1294 33.8227L27.2791 32.2514L25.3491 37.0181L28.3266 37.9559C28.2891 38.4432 28.3011 38.9419 28.3718 39.4463C28.4247 39.825 28.5089 40.1917 28.6189 40.5452L25.8328 42.2281L28.9958 46.283L31.2968 44.1733C32.0127 44.665 32.8222 45.0218 33.6853 45.2161L33.7498 48.4692L38.8427 47.7573L38.1666 44.7113C38.967 44.3293 39.676 43.8001 40.2628 43.1626L43.1127 44.7339L45.0426 39.9672L42.0652 39.0293C42.1031 38.5417 42.091 38.043 42.0203 37.539ZM35.7563 42.4981C33.5442 42.8072 31.5002 41.2647 31.1907 39.0523C30.8817 36.8402 32.4242 34.7962 34.6366 34.4868C36.8486 34.1777 38.8927 35.7202 39.2021 37.9326C39.5112 40.145 37.9683 42.1891 35.7563 42.4981Z" fill="#FF6931"/>
</svg>
