<svg width="34" height="42" viewBox="0 0 34 42" fill="none" xmlns="http://www.w3.org/2000/svg">
<g clip-path="url(#clip0_1_3182)">
<path d="M1.29289 20.2929C0.902367 20.6834 0.902367 21.3166 1.29289 21.7071L7.65685 28.0711C8.04738 28.4616 8.68054 28.4616 9.07107 28.0711C9.46159 27.6805 9.46159 27.0474 9.07107 26.6569L3.41422 21L9.07107 15.3431C9.46159 14.9526 9.46159 14.3195 9.07107 13.9289C8.68054 13.5384 8.04738 13.5384 7.65685 13.9289L1.29289 20.2929ZM114 20L2 20V22L114 22V20Z" fill="url(#paint0_linear_1_3182)"/>
</g>
<defs>
<linearGradient id="paint0_linear_1_3182" x1="2" y1="20.5" x2="114" y2="20.5" gradientUnits="userSpaceOnUse">
<stop stop-color="#565B7D"/>
<stop offset="1" stop-color="#F4F6F9"/>
</linearGradient>
<clipPath id="clip0_1_3182">
<rect width="34" height="42" fill="white" transform="matrix(-1 0 0 -1 34 42)"/>
</clipPath>
</defs>
</svg>
