<svg width="110" height="90" viewBox="0 0 110 90" fill="none" xmlns="http://www.w3.org/2000/svg">
<rect width="110" height="90" rx="16" fill="#D9D9D9"/>
<path d="M30.625 67.5C30.1277 67.5 29.6508 67.3025 29.2992 66.9508C28.9475 66.5992 28.75 66.1223 28.75 65.625V24.375C28.75 23.8777 28.9475 23.4008 29.2992 23.0492C29.6508 22.6975 30.1277 22.5 30.625 22.5H79.375C79.8723 22.5 80.3492 22.6975 80.7008 23.0492C81.0525 23.4008 81.25 23.8777 81.25 24.375V65.625C81.25 66.1223 81.0525 66.5992 80.7008 66.9508C80.3492 67.3025 79.8723 67.5 79.375 67.5H30.625ZM49.1125 54.1125L45.0738 50.0737C44.7221 49.7222 44.2453 49.5248 43.7481 49.5248C43.2509 49.5248 42.7741 49.7222 42.4225 50.0737L32.5 60.0037H78.1263L63.94 42.9788C63.764 42.7671 63.5436 42.5967 63.2944 42.4798C63.0453 42.3629 62.7734 42.3023 62.4981 42.3023C62.2229 42.3023 61.951 42.3629 61.7018 42.4798C61.4526 42.5967 61.2322 42.7671 61.0562 42.9788L51.88 53.9888C51.7131 54.189 51.5062 54.3522 51.2727 54.468C51.0391 54.5838 50.784 54.6496 50.5236 54.6613C50.2631 54.6729 50.0031 54.6301 49.7602 54.5356C49.5172 54.4412 49.2966 54.297 49.1125 54.1125ZM40 37.5C40.0002 38.2389 40.146 38.9706 40.429 39.6532C40.712 40.3358 41.1267 40.9559 41.6494 41.4783C42.1721 42.0006 42.7925 42.4148 43.4753 42.6974C44.1581 42.9799 44.8898 43.1252 45.6287 43.125C46.3677 43.1248 47.0993 42.979 47.7819 42.696C48.4645 42.413 49.0847 41.9983 49.607 41.4756C50.1293 40.9529 50.5436 40.3325 50.8261 39.6497C51.1087 38.9669 51.254 38.2352 51.2537 37.4963C51.2533 36.0039 50.6599 34.5729 49.6044 33.518C48.5488 32.4631 47.1173 31.8708 45.625 31.8713C44.1327 31.8717 42.7016 32.4651 41.6467 33.5206C40.5919 34.5762 39.9995 36.0077 40 37.5Z" fill="white"/>
</svg>
