<svg width="22" height="22" viewBox="0 0 22 22" fill="none" xmlns="http://www.w3.org/2000/svg">
<path fill-rule="evenodd" clip-rule="evenodd" d="M5.3671 3.31644C6.59037 2.49907 8.02855 2.06281 9.49977 2.06281H9.49981C11.4726 2.06293 13.3646 2.84668 14.7595 4.24165C16.1545 5.63662 16.9383 7.52858 16.9384 9.50137V9.50142C16.9384 10.9726 16.5021 12.4108 15.6847 13.6341C15.5414 13.8486 15.3876 14.0547 15.2239 14.252L19.7384 18.7665C20.0074 19.0354 20.0074 19.4715 19.7384 19.7404C19.4695 20.0093 19.0335 20.0093 18.7645 19.7404L14.2499 15.2258C13.6796 15.6991 13.0386 16.0871 12.3464 16.3738C10.9872 16.9368 9.49152 17.0841 8.04857 16.7971C6.60562 16.5101 5.28019 15.8016 4.23988 14.7613C3.19957 13.721 2.49111 12.3956 2.20409 10.9526C1.91707 9.50967 2.06438 8.01401 2.62739 6.65478C3.1904 5.29555 4.14383 4.1338 5.3671 3.31644ZM9.49973 3.44011C8.30093 3.44011 7.12905 3.7956 6.13229 4.46162C5.13551 5.12765 4.35862 6.07429 3.89985 7.18185C3.44108 8.28941 3.32105 9.50814 3.55493 10.6839C3.7888 11.8597 4.36609 12.9397 5.21378 13.7874C6.06147 14.6351 7.14149 15.2124 8.31727 15.4463C9.49305 15.6801 10.7118 15.5601 11.8193 15.1013C12.9269 14.6426 13.8735 13.8657 14.5396 12.8689C15.2056 11.8721 15.5611 10.7003 15.5611 9.50146M9.49977 3.44011C11.1073 3.44022 12.6489 4.07886 13.7856 5.21555C14.9223 6.35224 15.561 7.89389 15.5611 9.50142" fill="#4F575E"/>
</svg>
