<svg width="25" height="25" viewBox="0 0 25 25" fill="none" xmlns="http://www.w3.org/2000/svg">
<g clip-path="url(#clip0_1_949)">
<rect width="25" height="25" rx="12.5" fill="white"/>
<path d="M12.5 0C5.59648 0 0 5.59648 0 12.5C0 19.4039 5.59648 25 12.5 25C19.4039 25 25 19.4039 25 12.5C25 5.59648 19.4039 0 12.5 0ZM12.5 23.4621C6.46914 23.4621 1.5625 18.5309 1.5625 12.5C1.5625 6.46909 6.46914 1.56245 12.5 1.56245C18.5309 1.56245 23.4375 6.46912 23.4375 12.5C23.4375 18.5308 18.5309 23.4621 12.5 23.4621ZM17.4887 7.92617L10.1547 15.3062L6.85193 12.0035C6.54685 11.6984 6.05232 11.6984 5.74685 12.0035C5.44177 12.3086 5.44177 12.8031 5.74685 13.1082L9.61365 16.9754C9.91873 17.2801 10.4133 17.2801 10.7187 16.9754C10.7539 16.9402 10.784 16.9019 10.8113 16.8621L18.5941 9.03123C18.8988 8.72615 18.8988 8.23162 18.5941 7.92617C18.2887 7.62109 17.7941 7.62109 17.4887 7.92617Z" fill="#494D66"/>
</g>
<defs>
<clipPath id="clip0_1_949">
<rect width="25" height="25" rx="12.5" fill="white"/>
</clipPath>
</defs>
</svg>
