<svg width="32" height="32" viewBox="0 0 32 32" fill="none" xmlns="http://www.w3.org/2000/svg">
<path d="M12 15.3333C12 16.2174 11.6489 17.0652 11.0237 17.6904C10.3986 18.3155 9.55076 18.6667 8.66671 18.6667C7.78265 18.6667 6.93481 18.3155 6.30968 17.6904C5.68456 17.0652 5.33337 16.2174 5.33337 15.3333C5.33337 14.4493 5.68456 13.6014 6.30968 12.9763C6.93481 12.3512 7.78265 12 8.66671 12C9.55076 12 10.3986 12.3512 11.0237 12.9763C11.6489 13.6014 12 14.4493 12 15.3333Z" stroke="#454C6A"/>
<path opacity="0.5" d="M19.0933 22.4027L12 17.72M19.2267 9.12L12.1333 13.8027" stroke="#454C6A" stroke-linecap="round"/>
<path d="M25.3334 24.6667C25.3334 25.5507 24.9822 26.3986 24.3571 27.0237C23.732 27.6488 22.8841 28 22.0001 28C21.116 28 20.2682 27.6488 19.6431 27.0237C19.0179 26.3986 18.6667 25.5507 18.6667 24.6667C18.6667 23.7826 19.0179 22.9348 19.6431 22.3096C20.2682 21.6845 21.116 21.3333 22.0001 21.3333C22.8841 21.3333 23.732 21.6845 24.3571 22.3096C24.9822 22.9348 25.3334 23.7826 25.3334 24.6667ZM25.3334 7.33333C25.3334 8.21739 24.9822 9.06523 24.3571 9.69036C23.732 10.3155 22.8841 10.6667 22.0001 10.6667C21.116 10.6667 20.2682 10.3155 19.6431 9.69036C19.0179 9.06523 18.6667 8.21739 18.6667 7.33333C18.6667 6.44928 19.0179 5.60143 19.6431 4.97631C20.2682 4.35119 21.116 4 22.0001 4C22.8841 4 23.732 4.35119 24.3571 4.97631C24.9822 5.60143 25.3334 6.44928 25.3334 7.33333Z" stroke="#454C6A"/>
</svg>
