<svg width="35" height="35" viewBox="0 0 35 35" fill="none" xmlns="http://www.w3.org/2000/svg">
<path d="M27.3437 14.1604V13.1323C27.3437 7.49002 22.9337 2.91669 17.5 2.91669C12.0662 2.91669 7.65622 7.49002 7.65622 13.1323V14.1604C7.65797 15.3877 7.30774 16.5897 6.64705 17.624L5.03122 20.1396C3.55684 22.4365 4.68268 25.5588 7.24788 26.285C13.9505 28.1852 21.0494 28.1852 27.7521 26.285C30.3173 25.5588 31.4431 22.4365 29.9687 20.1411L28.3529 17.6254C27.6917 16.5913 27.3409 15.3893 27.3423 14.1619L27.3437 14.1604Z" stroke="#494D66" stroke-width="1.5"/>
<path d="M10.9375 27.7084C11.8927 30.2575 14.4696 32.0834 17.5 32.0834C20.5304 32.0834 23.1073 30.2575 24.0625 27.7084" stroke="#494D66" stroke-width="1.5" stroke-linecap="round"/>
</svg>
