<svg width="430" height="104" viewBox="0 0 430 104" fill="none" xmlns="http://www.w3.org/2000/svg">
<g filter="url(#filter0_b_55_452)">
<rect width="430" height="73" transform="translate(0 31)" fill="url(#paint0_linear_55_452)" fill-opacity="0.01"/>
<g filter="url(#filter1_d_55_452)">
<path d="M0 54.4837C0 41.514 12.3211 31 27.52 31H166.936C178.038 31 187.754 38.4601 190.622 49.1854C192.733 57.0832 198.642 63.409 206.378 66.053L206.904 66.2329C212.152 68.0267 217.848 68.0267 223.096 66.2329L223.657 66.0411C231.352 63.4111 237.186 57.0554 239.149 49.164C241.803 38.4917 251.387 31 262.384 31H402.48C417.679 31 430 41.514 430 54.4837V104.387H0V54.4837Z" fill="white"/>
</g>
<rect x="50" y="47" width="50" height="26" rx="8" fill="#686D9A"/>
<g clip-path="url(#clip0_55_452)">
<path d="M76.1 51.4292C75.7827 51.1912 75.3967 51.0625 75 51.0625C74.6033 51.0625 74.2173 51.1912 73.9 51.4292L67.4833 56.2417C67.2556 56.4124 67.0708 56.6339 66.9436 56.8884C66.8163 57.143 66.75 57.4237 66.75 57.7083V66.4167C66.75 66.9029 66.9432 67.3692 67.287 67.713C67.6308 68.0568 68.0971 68.25 68.5833 68.25H72.1583C72.4258 68.25 72.6822 68.1438 72.8713 67.9547C73.0604 67.7656 73.1667 67.5091 73.1667 67.2417V62.75C73.1667 62.2638 73.3598 61.7975 73.7036 61.4536C74.0475 61.1098 74.5138 60.9167 75 60.9167C75.4862 60.9167 75.9525 61.1098 76.2964 61.4536C76.6402 61.7975 76.8333 62.2638 76.8333 62.75V67.2417C76.8333 67.5091 76.9396 67.7656 77.1287 67.9547C77.3178 68.1438 77.5742 68.25 77.8417 68.25H81.4167C81.9029 68.25 82.3692 68.0568 82.713 67.713C83.0568 67.3692 83.25 66.9029 83.25 66.4167V57.7083C83.25 57.4237 83.1837 57.143 83.0564 56.8884C82.9292 56.6339 82.7444 56.4124 82.5167 56.2417L76.1 51.4292Z" fill="white"/>
</g>
<path d="M65.4779 80.03V87H64.5679V83.84H61.0179V87H60.1079V80.03H61.0179V83.09H64.5679V80.03H65.4779ZM69.9217 87.09C69.4084 87.09 68.9417 86.9733 68.5217 86.74C68.1084 86.5067 67.7817 86.1767 67.5417 85.75C67.3084 85.3167 67.1917 84.8167 67.1917 84.25C67.1917 83.69 67.3117 83.1967 67.5517 82.77C67.7984 82.3367 68.1317 82.0067 68.5517 81.78C68.9717 81.5467 69.4417 81.43 69.9617 81.43C70.4817 81.43 70.9517 81.5467 71.3717 81.78C71.7917 82.0067 72.1217 82.3333 72.3617 82.76C72.6084 83.1867 72.7317 83.6833 72.7317 84.25C72.7317 84.8167 72.6051 85.3167 72.3517 85.75C72.1051 86.1767 71.7684 86.5067 71.3417 86.74C70.9151 86.9733 70.4417 87.09 69.9217 87.09ZM69.9217 86.29C70.2484 86.29 70.5551 86.2133 70.8417 86.06C71.1284 85.9067 71.3584 85.6767 71.5317 85.37C71.7117 85.0633 71.8017 84.69 71.8017 84.25C71.8017 83.81 71.7151 83.4367 71.5417 83.13C71.3684 82.8233 71.1417 82.5967 70.8617 82.45C70.5817 82.2967 70.2784 82.22 69.9517 82.22C69.6184 82.22 69.3117 82.2967 69.0317 82.45C68.7584 82.5967 68.5384 82.8233 68.3717 83.13C68.2051 83.4367 68.1217 83.81 68.1217 84.25C68.1217 84.6967 68.2017 85.0733 68.3617 85.38C68.5284 85.6867 68.7484 85.9167 69.0217 86.07C69.2951 86.2167 69.5951 86.29 69.9217 86.29ZM81.0182 81.42C81.4449 81.42 81.8249 81.51 82.1582 81.69C82.4915 81.8633 82.7549 82.1267 82.9482 82.48C83.1415 82.8333 83.2382 83.2633 83.2382 83.77V87H82.3382V83.9C82.3382 83.3533 82.2015 82.9367 81.9282 82.65C81.6615 82.3567 81.2982 82.21 80.8382 82.21C80.3649 82.21 79.9882 82.3633 79.7082 82.67C79.4282 82.97 79.2882 83.4067 79.2882 83.98V87H78.3882V83.9C78.3882 83.3533 78.2515 82.9367 77.9782 82.65C77.7115 82.3567 77.3482 82.21 76.8882 82.21C76.4149 82.21 76.0382 82.3633 75.7582 82.67C75.4782 82.97 75.3382 83.4067 75.3382 83.98V87H74.4282V81.52H75.3382V82.31C75.5182 82.0233 75.7582 81.8033 76.0582 81.65C76.3649 81.4967 76.7015 81.42 77.0682 81.42C77.5282 81.42 77.9349 81.5233 78.2882 81.73C78.6415 81.9367 78.9049 82.24 79.0782 82.64C79.2315 82.2533 79.4849 81.9533 79.8382 81.74C80.1915 81.5267 80.5849 81.42 81.0182 81.42ZM90.2309 84.05C90.2309 84.2233 90.2209 84.4067 90.2009 84.6H85.8209C85.8543 85.14 86.0376 85.5633 86.3709 85.87C86.7109 86.17 87.1209 86.32 87.6009 86.32C87.9943 86.32 88.3209 86.23 88.5809 86.05C88.8476 85.8633 89.0343 85.6167 89.1409 85.31H90.1209C89.9743 85.8367 89.6809 86.2667 89.2409 86.6C88.8009 86.9267 88.2543 87.09 87.6009 87.09C87.0809 87.09 86.6143 86.9733 86.2009 86.74C85.7943 86.5067 85.4743 86.1767 85.2409 85.75C85.0076 85.3167 84.8909 84.8167 84.8909 84.25C84.8909 83.6833 85.0043 83.1867 85.2309 82.76C85.4576 82.3333 85.7743 82.0067 86.1809 81.78C86.5943 81.5467 87.0676 81.43 87.6009 81.43C88.1209 81.43 88.5809 81.5433 88.9809 81.77C89.3809 81.9967 89.6876 82.31 89.9009 82.71C90.1209 83.1033 90.2309 83.55 90.2309 84.05ZM89.2909 83.86C89.2909 83.5133 89.2143 83.2167 89.0609 82.97C88.9076 82.7167 88.6976 82.5267 88.4309 82.4C88.1709 82.2667 87.8809 82.2 87.5609 82.2C87.1009 82.2 86.7076 82.3467 86.3809 82.64C86.0609 82.9333 85.8776 83.34 85.8309 83.86H89.2909Z" fill="#686D9A"/>
<path d="M187.036 84.45H183.996L183.436 86H182.476L184.996 79.07H186.046L188.556 86H187.596L187.036 84.45ZM186.776 83.71L185.516 80.19L184.256 83.71H186.776ZM189.814 83.24C189.814 82.68 189.927 82.19 190.154 81.77C190.38 81.3433 190.69 81.0133 191.084 80.78C191.484 80.5467 191.93 80.43 192.424 80.43C192.85 80.43 193.247 80.53 193.614 80.73C193.98 80.9233 194.26 81.18 194.454 81.5V78.6H195.374V86H194.454V84.97C194.274 85.2967 194.007 85.5667 193.654 85.78C193.3 85.9867 192.887 86.09 192.414 86.09C191.927 86.09 191.484 85.97 191.084 85.73C190.69 85.49 190.38 85.1533 190.154 84.72C189.927 84.2867 189.814 83.7933 189.814 83.24ZM194.454 83.25C194.454 82.8367 194.37 82.4767 194.204 82.17C194.037 81.8633 193.81 81.63 193.524 81.47C193.244 81.3033 192.934 81.22 192.594 81.22C192.254 81.22 191.944 81.3 191.664 81.46C191.384 81.62 191.16 81.8533 190.994 82.16C190.827 82.4667 190.744 82.8267 190.744 83.24C190.744 83.66 190.827 84.0267 190.994 84.34C191.16 84.6467 191.384 84.8833 191.664 85.05C191.944 85.21 192.254 85.29 192.594 85.29C192.934 85.29 193.244 85.21 193.524 85.05C193.81 84.8833 194.037 84.6467 194.204 84.34C194.37 84.0267 194.454 83.6633 194.454 83.25ZM197.072 83.24C197.072 82.68 197.185 82.19 197.412 81.77C197.638 81.3433 197.948 81.0133 198.342 80.78C198.742 80.5467 199.188 80.43 199.682 80.43C200.108 80.43 200.505 80.53 200.872 80.73C201.238 80.9233 201.518 81.18 201.712 81.5V78.6H202.632V86H201.712V84.97C201.532 85.2967 201.265 85.5667 200.912 85.78C200.558 85.9867 200.145 86.09 199.672 86.09C199.185 86.09 198.742 85.97 198.342 85.73C197.948 85.49 197.638 85.1533 197.412 84.72C197.185 84.2867 197.072 83.7933 197.072 83.24ZM201.712 83.25C201.712 82.8367 201.628 82.4767 201.462 82.17C201.295 81.8633 201.068 81.63 200.782 81.47C200.502 81.3033 200.192 81.22 199.852 81.22C199.512 81.22 199.202 81.3 198.922 81.46C198.642 81.62 198.418 81.8533 198.252 82.16C198.085 82.4667 198.002 82.8267 198.002 83.24C198.002 83.66 198.085 84.0267 198.252 84.34C198.418 84.6467 198.642 84.8833 198.922 85.05C199.202 85.21 199.512 85.29 199.852 85.29C200.192 85.29 200.502 85.21 200.782 85.05C201.068 84.8833 201.295 84.6467 201.462 84.34C201.628 84.0267 201.712 83.6633 201.712 83.25ZM212.495 81.07C212.495 81.65 212.295 82.1333 211.895 82.52C211.502 82.9 210.899 83.09 210.085 83.09H208.745V86H207.835V79.03H210.085C210.872 79.03 211.469 79.22 211.875 79.6C212.289 79.98 212.495 80.47 212.495 81.07ZM210.085 82.34C210.592 82.34 210.965 82.23 211.205 82.01C211.445 81.79 211.565 81.4767 211.565 81.07C211.565 80.21 211.072 79.78 210.085 79.78H208.745V82.34H210.085ZM215.036 81.41C215.196 81.0967 215.423 80.8533 215.716 80.68C216.016 80.5067 216.38 80.42 216.806 80.42V81.36H216.566C215.546 81.36 215.036 81.9133 215.036 83.02V86H214.126V80.52H215.036V81.41ZM220.747 86.09C220.234 86.09 219.767 85.9733 219.347 85.74C218.934 85.5067 218.607 85.1767 218.367 84.75C218.134 84.3167 218.017 83.8167 218.017 83.25C218.017 82.69 218.137 82.1967 218.377 81.77C218.624 81.3367 218.957 81.0067 219.377 80.78C219.797 80.5467 220.267 80.43 220.787 80.43C221.307 80.43 221.777 80.5467 222.197 80.78C222.617 81.0067 222.947 81.3333 223.187 81.76C223.434 82.1867 223.557 82.6833 223.557 83.25C223.557 83.8167 223.43 84.3167 223.177 84.75C222.93 85.1767 222.594 85.5067 222.167 85.74C221.74 85.9733 221.267 86.09 220.747 86.09ZM220.747 85.29C221.074 85.29 221.38 85.2133 221.667 85.06C221.954 84.9067 222.184 84.6767 222.357 84.37C222.537 84.0633 222.627 83.69 222.627 83.25C222.627 82.81 222.54 82.4367 222.367 82.13C222.194 81.8233 221.967 81.5967 221.687 81.45C221.407 81.2967 221.104 81.22 220.777 81.22C220.444 81.22 220.137 81.2967 219.857 81.45C219.584 81.5967 219.364 81.8233 219.197 82.13C219.03 82.4367 218.947 82.81 218.947 83.25C218.947 83.6967 219.027 84.0733 219.187 84.38C219.354 84.6867 219.574 84.9167 219.847 85.07C220.12 85.2167 220.42 85.29 220.747 85.29ZM224.913 83.24C224.913 82.68 225.027 82.19 225.253 81.77C225.48 81.3433 225.79 81.0133 226.183 80.78C226.583 80.5467 227.03 80.43 227.523 80.43C227.95 80.43 228.347 80.53 228.713 80.73C229.08 80.9233 229.36 81.18 229.553 81.5V78.6H230.473V86H229.553V84.97C229.373 85.2967 229.107 85.5667 228.753 85.78C228.4 85.9867 227.987 86.09 227.513 86.09C227.027 86.09 226.583 85.97 226.183 85.73C225.79 85.49 225.48 85.1533 225.253 84.72C225.027 84.2867 224.913 83.7933 224.913 83.24ZM229.553 83.25C229.553 82.8367 229.47 82.4767 229.303 82.17C229.137 81.8633 228.91 81.63 228.623 81.47C228.343 81.3033 228.033 81.22 227.693 81.22C227.353 81.22 227.043 81.3 226.763 81.46C226.483 81.62 226.26 81.8533 226.093 82.16C225.927 82.4667 225.843 82.8267 225.843 83.24C225.843 83.66 225.927 84.0267 226.093 84.34C226.26 84.6467 226.483 84.8833 226.763 85.05C227.043 85.21 227.353 85.29 227.693 85.29C228.033 85.29 228.343 85.21 228.623 85.05C228.91 84.8833 229.137 84.6467 229.303 84.34C229.47 84.0267 229.553 83.6633 229.553 83.25ZM237.371 80.52V86H236.461V85.19C236.288 85.47 236.045 85.69 235.731 85.85C235.425 86.0033 235.085 86.08 234.711 86.08C234.285 86.08 233.901 85.9933 233.561 85.82C233.221 85.64 232.951 85.3733 232.751 85.02C232.558 84.6667 232.461 84.2367 232.461 83.73V80.52H233.361V83.61C233.361 84.15 233.498 84.5667 233.771 84.86C234.045 85.1467 234.418 85.29 234.891 85.29C235.378 85.29 235.761 85.14 236.041 84.84C236.321 84.54 236.461 84.1033 236.461 83.53V80.52H237.371ZM239.068 83.25C239.068 82.6833 239.181 82.19 239.408 81.77C239.634 81.3433 239.948 81.0133 240.348 80.78C240.754 80.5467 241.218 80.43 241.738 80.43C242.411 80.43 242.964 80.5933 243.398 80.92C243.838 81.2467 244.128 81.7 244.268 82.28H243.288C243.194 81.9467 243.011 81.6833 242.738 81.49C242.471 81.2967 242.138 81.2 241.738 81.2C241.218 81.2 240.798 81.38 240.478 81.74C240.158 82.0933 239.998 82.5967 239.998 83.25C239.998 83.91 240.158 84.42 240.478 84.78C240.798 85.14 241.218 85.32 241.738 85.32C242.138 85.32 242.471 85.2267 242.738 85.04C243.004 84.8533 243.188 84.5867 243.288 84.24H244.268C244.121 84.8 243.828 85.25 243.388 85.59C242.948 85.9233 242.398 86.09 241.738 86.09C241.218 86.09 240.754 85.9733 240.348 85.74C239.948 85.5067 239.634 85.1767 239.408 84.75C239.181 84.3233 239.068 83.8233 239.068 83.25ZM247.092 81.27V84.5C247.092 84.7667 247.149 84.9567 247.262 85.07C247.375 85.1767 247.572 85.23 247.852 85.23H248.522V86H247.702C247.195 86 246.815 85.8833 246.562 85.65C246.309 85.4167 246.182 85.0333 246.182 84.5V81.27H245.472V80.52H246.182V79.14H247.092V80.52H248.522V81.27H247.092Z" fill="#686D9A"/>
<g clip-path="url(#clip1_55_452)">
<path fill-rule="evenodd" clip-rule="evenodd" d="M353.135 51.5749C352.952 51.4414 352.739 51.3546 352.516 51.3222C352.292 51.2897 352.063 51.3126 351.85 51.3888C350.854 51.7537 349.93 52.2887 349.117 52.9701C348.945 53.1163 348.811 53.3024 348.727 53.5122C348.643 53.722 348.612 53.9491 348.636 54.1737C348.705 54.8639 348.583 55.5303 348.251 56.1042C347.921 56.6789 347.404 57.118 346.771 57.4031C346.564 57.4947 346.383 57.6356 346.243 57.8135C346.103 57.9913 346.009 58.2007 345.969 58.4233C345.788 59.4667 345.788 60.5334 345.969 61.5767C346.054 62.0689 346.391 62.4255 346.771 62.5978C347.404 62.882 347.921 63.322 348.252 63.8958C348.583 64.4706 348.705 65.1361 348.636 65.8263C348.595 66.2407 348.735 66.71 349.117 67.0299C349.93 67.7113 350.854 68.2464 351.85 68.6112C352.063 68.6873 352.291 68.7101 352.515 68.6777C352.739 68.6453 352.951 68.5585 353.134 68.4251C353.697 68.0199 354.336 67.7917 355 67.7917C355.664 67.7917 356.302 68.0199 356.865 68.4251C357.205 68.6689 357.681 68.7826 358.15 68.6112C359.146 68.2464 360.07 67.7113 360.883 67.0299C361.265 66.71 361.406 66.2416 361.363 65.8263C361.295 65.1361 361.416 64.4697 361.748 63.8958C362.079 63.3211 362.596 62.8829 363.229 62.5978C363.608 62.4264 363.946 62.0689 364.031 61.5767C364.212 60.5334 364.212 59.4667 364.031 58.4233C363.991 58.2007 363.897 57.9913 363.757 57.8135C363.617 57.6356 363.436 57.4947 363.229 57.4031C362.596 57.118 362.079 56.6789 361.748 56.1042C361.416 55.5303 361.295 54.8639 361.363 54.1737C361.388 53.9491 361.356 53.722 361.273 53.5122C361.189 53.3025 361.055 53.1163 360.883 52.9701C360.07 52.2887 359.146 51.7537 358.15 51.3888C357.937 51.3128 357.709 51.29 357.485 51.3224C357.261 51.3549 357.049 51.4415 356.866 51.5749C356.302 51.9792 355.663 52.2083 355 52.2083C354.337 52.2083 353.698 51.9801 353.135 51.5749ZM352.25 60C352.25 59.2707 352.54 58.5712 353.055 58.0555C353.571 57.5397 354.271 57.25 355 57.25C355.729 57.25 356.429 57.5397 356.945 58.0555C357.46 58.5712 357.75 59.2707 357.75 60C357.75 60.7293 357.46 61.4288 356.945 61.9445C356.429 62.4603 355.729 62.75 355 62.75C354.271 62.75 353.571 62.4603 353.055 61.9445C352.54 61.4288 352.25 60.7293 352.25 60Z" fill="#686D9A"/>
</g>
<path d="M336.132 87.07C335.672 87.07 335.259 86.99 334.892 86.83C334.532 86.6633 334.249 86.4367 334.042 86.15C333.836 85.8567 333.729 85.52 333.722 85.14H334.692C334.726 85.4667 334.859 85.7433 335.092 85.97C335.332 86.19 335.679 86.3 336.132 86.3C336.566 86.3 336.906 86.1933 337.152 85.98C337.406 85.76 337.532 85.48 337.532 85.14C337.532 84.8733 337.459 84.6567 337.312 84.49C337.166 84.3233 336.982 84.1967 336.762 84.11C336.542 84.0233 336.246 83.93 335.872 83.83C335.412 83.71 335.042 83.59 334.762 83.47C334.489 83.35 334.252 83.1633 334.052 82.91C333.859 82.65 333.762 82.3033 333.762 81.87C333.762 81.49 333.859 81.1533 334.052 80.86C334.246 80.5667 334.516 80.34 334.862 80.18C335.216 80.02 335.619 79.94 336.072 79.94C336.726 79.94 337.259 80.1033 337.672 80.43C338.092 80.7567 338.329 81.19 338.382 81.73H337.382C337.349 81.4633 337.209 81.23 336.962 81.03C336.716 80.8233 336.389 80.72 335.982 80.72C335.602 80.72 335.292 80.82 335.052 81.02C334.812 81.2133 334.692 81.4867 334.692 81.84C334.692 82.0933 334.762 82.3 334.902 82.46C335.049 82.62 335.226 82.7433 335.432 82.83C335.646 82.91 335.942 83.0033 336.322 83.11C336.782 83.2367 337.152 83.3633 337.432 83.49C337.712 83.61 337.952 83.8 338.152 84.06C338.352 84.3133 338.452 84.66 338.452 85.1C338.452 85.44 338.362 85.76 338.182 86.06C338.002 86.36 337.736 86.6033 337.382 86.79C337.029 86.9767 336.612 87.07 336.132 87.07ZM345.291 84.05C345.291 84.2233 345.281 84.4067 345.261 84.6H340.881C340.915 85.14 341.098 85.5633 341.431 85.87C341.771 86.17 342.181 86.32 342.661 86.32C343.055 86.32 343.381 86.23 343.641 86.05C343.908 85.8633 344.095 85.6167 344.201 85.31H345.181C345.035 85.8367 344.741 86.2667 344.301 86.6C343.861 86.9267 343.315 87.09 342.661 87.09C342.141 87.09 341.675 86.9733 341.261 86.74C340.855 86.5067 340.535 86.1767 340.301 85.75C340.068 85.3167 339.951 84.8167 339.951 84.25C339.951 83.6833 340.065 83.1867 340.291 82.76C340.518 82.3333 340.835 82.0067 341.241 81.78C341.655 81.5467 342.128 81.43 342.661 81.43C343.181 81.43 343.641 81.5433 344.041 81.77C344.441 81.9967 344.748 82.31 344.961 82.71C345.181 83.1033 345.291 83.55 345.291 84.05ZM344.351 83.86C344.351 83.5133 344.275 83.2167 344.121 82.97C343.968 82.7167 343.758 82.5267 343.491 82.4C343.231 82.2667 342.941 82.2 342.621 82.2C342.161 82.2 341.768 82.3467 341.441 82.64C341.121 82.9333 340.938 83.34 340.891 83.86H344.351ZM348.103 82.27V85.5C348.103 85.7667 348.159 85.9567 348.273 86.07C348.386 86.1767 348.583 86.23 348.863 86.23H349.533V87H348.713C348.206 87 347.826 86.8833 347.573 86.65C347.319 86.4167 347.193 86.0333 347.193 85.5V82.27H346.483V81.52H347.193V80.14H348.103V81.52H349.533V82.27H348.103ZM352.245 82.27V85.5C352.245 85.7667 352.302 85.9567 352.415 86.07C352.529 86.1767 352.725 86.23 353.005 86.23H353.675V87H352.855C352.349 87 351.969 86.8833 351.715 86.65C351.462 86.4167 351.335 86.0333 351.335 85.5V82.27H350.625V81.52H351.335V80.14H352.245V81.52H353.675V82.27H352.245ZM355.748 80.63C355.574 80.63 355.428 80.57 355.308 80.45C355.188 80.33 355.128 80.1833 355.128 80.01C355.128 79.8367 355.188 79.69 355.308 79.57C355.428 79.45 355.574 79.39 355.748 79.39C355.914 79.39 356.054 79.45 356.168 79.57C356.288 79.69 356.348 79.8367 356.348 80.01C356.348 80.1833 356.288 80.33 356.168 80.45C356.054 80.57 355.914 80.63 355.748 80.63ZM356.188 81.52V87H355.278V81.52H356.188ZM360.909 81.42C361.575 81.42 362.115 81.6233 362.529 82.03C362.942 82.43 363.149 83.01 363.149 83.77V87H362.249V83.9C362.249 83.3533 362.112 82.9367 361.839 82.65C361.565 82.3567 361.192 82.21 360.719 82.21C360.239 82.21 359.855 82.36 359.569 82.66C359.289 82.96 359.149 83.3967 359.149 83.97V87H358.239V81.52H359.149V82.3C359.329 82.02 359.572 81.8033 359.879 81.65C360.192 81.4967 360.535 81.42 360.909 81.42ZM367.395 81.43C367.869 81.43 368.282 81.5333 368.635 81.74C368.995 81.9467 369.262 82.2067 369.435 82.52V81.52H370.355V87.12C370.355 87.62 370.249 88.0633 370.035 88.45C369.822 88.8433 369.515 89.15 369.115 89.37C368.722 89.59 368.262 89.7 367.735 89.7C367.015 89.7 366.415 89.53 365.935 89.19C365.455 88.85 365.172 88.3867 365.085 87.8H365.985C366.085 88.1333 366.292 88.4 366.605 88.6C366.919 88.8067 367.295 88.91 367.735 88.91C368.235 88.91 368.642 88.7533 368.955 88.44C369.275 88.1267 369.435 87.6867 369.435 87.12V85.97C369.255 86.29 368.989 86.5567 368.635 86.77C368.282 86.9833 367.869 87.09 367.395 87.09C366.909 87.09 366.465 86.97 366.065 86.73C365.672 86.49 365.362 86.1533 365.135 85.72C364.909 85.2867 364.795 84.7933 364.795 84.24C364.795 83.68 364.909 83.19 365.135 82.77C365.362 82.3433 365.672 82.0133 366.065 81.78C366.465 81.5467 366.909 81.43 367.395 81.43ZM369.435 84.25C369.435 83.8367 369.352 83.4767 369.185 83.17C369.019 82.8633 368.792 82.63 368.505 82.47C368.225 82.3033 367.915 82.22 367.575 82.22C367.235 82.22 366.925 82.3 366.645 82.46C366.365 82.62 366.142 82.8533 365.975 83.16C365.809 83.4667 365.725 83.8267 365.725 84.24C365.725 84.66 365.809 85.0267 365.975 85.34C366.142 85.6467 366.365 85.8833 366.645 86.05C366.925 86.21 367.235 86.29 367.575 86.29C367.915 86.29 368.225 86.21 368.505 86.05C368.792 85.8833 369.019 85.6467 369.185 85.34C369.352 85.0267 369.435 84.6633 369.435 84.25ZM374.333 87.09C373.913 87.09 373.536 87.02 373.203 86.88C372.87 86.7333 372.606 86.5333 372.413 86.28C372.22 86.02 372.113 85.7233 372.093 85.39H373.033C373.06 85.6633 373.186 85.8867 373.413 86.06C373.646 86.2333 373.95 86.32 374.323 86.32C374.67 86.32 374.943 86.2433 375.143 86.09C375.343 85.9367 375.443 85.7433 375.443 85.51C375.443 85.27 375.336 85.0933 375.123 84.98C374.91 84.86 374.58 84.7433 374.133 84.63C373.726 84.5233 373.393 84.4167 373.133 84.31C372.88 84.1967 372.66 84.0333 372.473 83.82C372.293 83.6 372.203 83.3133 372.203 82.96C372.203 82.68 372.286 82.4233 372.453 82.19C372.62 81.9567 372.856 81.7733 373.163 81.64C373.47 81.5 373.82 81.43 374.213 81.43C374.82 81.43 375.31 81.5833 375.683 81.89C376.056 82.1967 376.256 82.6167 376.283 83.15H375.373C375.353 82.8633 375.236 82.6333 375.023 82.46C374.816 82.2867 374.536 82.2 374.183 82.2C373.856 82.2 373.596 82.27 373.403 82.41C373.21 82.55 373.113 82.7333 373.113 82.96C373.113 83.14 373.17 83.29 373.283 83.41C373.403 83.5233 373.55 83.6167 373.723 83.69C373.903 83.7567 374.15 83.8333 374.463 83.92C374.856 84.0267 375.176 84.1333 375.423 84.24C375.67 84.34 375.88 84.4933 376.053 84.7C376.233 84.9067 376.326 85.1767 376.333 85.51C376.333 85.81 376.25 86.08 376.083 86.32C375.916 86.56 375.68 86.75 375.373 86.89C375.073 87.0233 374.726 87.09 374.333 87.09Z" fill="#565B7D"/>
</g>
<defs>
<filter id="filter0_b_55_452" x="-4" y="27" width="438" height="81.3867" filterUnits="userSpaceOnUse" color-interpolation-filters="sRGB">
<feFlood flood-opacity="0" result="BackgroundImageFix"/>
<feGaussianBlur in="BackgroundImageFix" stdDeviation="2"/>
<feComposite in2="SourceAlpha" operator="in" result="effect1_backgroundBlur_55_452"/>
<feBlend mode="normal" in="SourceGraphic" in2="effect1_backgroundBlur_55_452" result="shape"/>
</filter>
<filter id="filter1_d_55_452" x="-22.9333" y="0.0666676" width="475.867" height="119.253" filterUnits="userSpaceOnUse" color-interpolation-filters="sRGB">
<feFlood flood-opacity="0" result="BackgroundImageFix"/>
<feColorMatrix in="SourceAlpha" type="matrix" values="0 0 0 0 0 0 0 0 0 0 0 0 0 0 0 0 0 0 127 0" result="hardAlpha"/>
<feOffset dy="-8"/>
<feGaussianBlur stdDeviation="11.4667"/>
<feComposite in2="hardAlpha" operator="out"/>
<feColorMatrix type="matrix" values="0 0 0 0 0 0 0 0 0 0 0 0 0 0 0 0 0 0 0.2 0"/>
<feBlend mode="normal" in2="BackgroundImageFix" result="effect1_dropShadow_55_452"/>
<feBlend mode="normal" in="SourceGraphic" in2="effect1_dropShadow_55_452" result="shape"/>
</filter>
<linearGradient id="paint0_linear_55_452" x1="215" y1="-1" x2="215" y2="73" gradientUnits="userSpaceOnUse">
<stop stop-color="white" stop-opacity="0.5"/>
<stop offset="1" stop-color="white"/>
</linearGradient>
<clipPath id="clip0_55_452">
<rect width="22" height="22" fill="white" transform="translate(64 49)"/>
</clipPath>
<clipPath id="clip1_55_452">
<rect width="22" height="22" fill="white" transform="translate(344 49)"/>
</clipPath>
</defs>
</svg>
