<svg width="30" height="30" viewBox="0 0 30 30" fill="none" xmlns="http://www.w3.org/2000/svg">
<path d="M27.1338 14.1162L17.1337 4.11623C16.9589 3.94147 16.7362 3.82246 16.4938 3.77425C16.2513 3.72604 16.0001 3.75079 15.7717 3.84538C15.5433 3.93997 15.3481 4.10014 15.2107 4.30565C15.0734 4.51117 15.0001 4.75279 15 4.99998V9.43123C11.5854 9.74722 8.41153 11.3261 6.09961 13.8588C3.78769 16.3915 2.50409 19.6958 2.5 23.125V25C2.5002 25.2595 2.58114 25.5124 2.73159 25.7238C2.88205 25.9352 3.09456 26.0946 3.33966 26.1798C3.58475 26.2649 3.85028 26.2717 4.09941 26.1992C4.34854 26.1267 4.56893 25.9784 4.73 25.775C5.95462 24.3187 7.4572 23.121 9.14993 22.252C10.8427 21.383 12.6916 20.8601 14.5887 20.7137C14.6512 20.7062 14.8075 20.6937 15 20.6812V25C15.0001 25.2472 15.0734 25.4888 15.2107 25.6943C15.3481 25.8998 15.5433 26.06 15.7717 26.1546C16.0001 26.2492 16.2513 26.2739 16.4938 26.2257C16.7362 26.1775 16.9589 26.0585 17.1337 25.8837L27.1338 15.8837C27.3681 15.6493 27.4997 15.3314 27.4997 15C27.4997 14.6685 27.3681 14.3506 27.1338 14.1162ZM17.5 21.9825V19.375C17.5 19.0435 17.3683 18.7255 17.1339 18.4911C16.8995 18.2567 16.5815 18.125 16.25 18.125C15.9312 18.125 14.63 18.1875 14.2975 18.2312C10.9286 18.5416 7.72177 19.8216 5.065 21.9162C5.36655 19.1593 6.67442 16.6104 8.73819 14.7577C10.802 12.9049 13.4766 11.8785 16.25 11.875C16.5815 11.875 16.8995 11.7433 17.1339 11.5089C17.3683 11.2744 17.5 10.9565 17.5 10.625V8.01748L24.4825 15L17.5 21.9825Z" fill="#1B6DDF"/>
</svg>
