<svg width="9" height="22" viewBox="0 0 9 22" fill="none" xmlns="http://www.w3.org/2000/svg">
<path d="M7.00001 0.333252C6.46957 0.333252 5.96087 0.543965 5.58579 0.919038C5.21072 1.29411 5.00001 1.80282 5.00001 2.33325C5.00001 2.86368 5.21072 3.37239 5.58579 3.74747C5.96087 4.12254 6.46957 4.33325 7.00001 4.33325C7.53044 4.33325 8.03915 4.12254 8.41422 3.74747C8.78929 3.37239 9.00001 2.86368 9.00001 2.33325C9.00001 1.80282 8.78929 1.29411 8.41422 0.919038C8.03915 0.543965 7.53044 0.333252 7.00001 0.333252ZM6.52001 6.69325C4.93334 6.82659 0.600006 10.2799 0.600006 10.2799C0.333339 10.4799 0.41334 10.4666 0.626673 10.8399C0.840006 11.1999 0.81334 11.2266 1.06667 11.0533C1.33334 10.8799 1.77334 10.5999 2.50667 10.1466C5.33334 8.33325 2.96001 12.5199 1.74667 19.5733C1.26667 23.0666 4.41334 21.2666 5.22667 20.7333C6.02667 20.2133 8.17334 18.7333 8.38667 18.5866C8.68001 18.3866 8.46667 18.2266 8.24001 17.8933C8.08001 17.6666 7.92001 17.8266 7.92001 17.8266C7.05334 18.3999 5.46667 19.5999 5.25334 18.8399C5.00001 18.0799 6.62667 12.8666 7.52001 9.27992C7.66667 8.42659 8.06667 6.55992 6.52001 6.69325Z" fill="#454C6A"/>
</svg>
