<svg width="32" height="32" viewBox="0 0 32 32" fill="none" xmlns="http://www.w3.org/2000/svg">
<path d="M26.8067 27.8533C26.34 27.1946 26.412 26.4566 26.8174 25.8986C29.0027 23.3826 30.3334 20.1066 30.3334 16.5133C30.3334 8.59727 23.916 2.17993 16 2.17993C8.08402 2.17993 1.66669 8.59727 1.66669 16.5133C1.66669 24.4293 8.08402 30.8466 16 30.8466C18.8074 30.8466 21.4187 30.0273 23.6294 28.6326C24.608 29.0993 26.3627 29.6333 28.8427 29.2213C27.8327 28.9246 27.1287 28.3066 26.8067 27.8533Z" stroke="#454C6A" stroke-linecap="round" stroke-linejoin="round"/>
<path d="M16 23.832C16.2761 23.832 16.5 23.6082 16.5 23.332C16.5 23.0559 16.2761 22.832 16 22.832C15.7239 22.832 15.5 23.0559 15.5 23.332C15.5 23.6082 15.7239 23.832 16 23.832Z" fill="#454C6A"/>
<path d="M11.83 12.338C11.83 11.1866 12.2967 10.1446 13.0513 9.3893C13.806 8.63397 14.8487 8.16797 16 8.16797C18.3034 8.16797 20.17 10.0346 20.17 12.338C20.17 13.4893 19.7814 14.6186 18.9487 15.2866C18.086 15.9793 15.9854 17.1133 15.9854 18.8773" stroke="#454C6A" stroke-linecap="round" stroke-linejoin="round"/>
</svg>
