<svg width="32" height="32" viewBox="0 0 32 32" fill="none" xmlns="http://www.w3.org/2000/svg">
<path d="M3.37332 19.6934C3.08932 21.5521 4.35732 22.8414 5.90932 23.4841C11.86 25.9507 20.14 25.9507 26.0907 23.4841C27.6427 22.8414 28.9107 21.5507 28.6267 19.6934C28.4533 18.5507 27.5907 17.6001 26.952 16.6707C26.116 15.4387 26.0333 14.0961 26.032 12.6667C26.0333 7.14408 21.5427 2.66675 16 2.66675C10.4573 2.66675 5.96665 7.14408 5.96665 12.6667C5.96665 14.0961 5.88399 15.4401 5.04665 16.6707C4.40932 17.6001 3.54799 18.5507 3.37332 19.6934Z" stroke="#454C6A" stroke-width="1.5" stroke-linecap="round" stroke-linejoin="round"/>
<path d="M10.6666 25.3335C11.2773 27.6335 13.4346 29.3335 16 29.3335C18.5666 29.3335 20.7213 27.6335 21.3333 25.3335" stroke="#454C6A" stroke-width="1.5" stroke-linecap="round" stroke-linejoin="round"/>
</svg>
