<svg width="28" height="28" viewBox="0 0 28 28" fill="none" xmlns="http://www.w3.org/2000/svg">
<path d="M9.33337 19.9998C9.80629 19.1807 10.4866 18.5006 11.3058 18.0278C12.125 17.555 13.0542 17.3062 14 17.3065C15.9947 17.3065 17.7347 18.3892 18.6667 19.9998M16.6667 11.3332C16.6667 12.0404 16.3858 12.7187 15.8857 13.2188C15.3856 13.7189 14.7073 13.9998 14 13.9998C13.2928 13.9998 12.6145 13.7189 12.1144 13.2188C11.6143 12.7187 11.3334 12.0404 11.3334 11.3332C11.3334 10.6259 11.6143 9.94765 12.1144 9.44755C12.6145 8.94746 13.2928 8.6665 14 8.6665C14.7073 8.6665 15.3856 8.94746 15.8857 9.44755C16.3858 9.94765 16.6667 10.6259 16.6667 11.3332Z" stroke="#454C6A" stroke-linecap="round" stroke-linejoin="round"/>
<path d="M27.3334 16.6226V11.3773C23.524 11.3773 21.048 7.23992 22.976 3.95592L18.3574 1.33325C16.4054 4.65859 11.5974 4.65859 9.64535 1.33325L5.02669 3.95592C6.95469 7.23992 4.47602 11.3773 0.666687 11.3773V16.6226C4.47602 16.6226 6.95202 20.7599 5.02402 24.0439L9.64269 26.6666C11.596 23.3399 16.4067 23.3399 18.36 26.6666L22.9787 24.0439C21.0494 20.7599 23.5254 16.6226 27.3334 16.6226Z" stroke="#454C6A" stroke-linecap="round" stroke-linejoin="round"/>
</svg>
