<svg width="32" height="32" viewBox="0 0 32 32" fill="none" xmlns="http://www.w3.org/2000/svg">
<path d="M12 15.3333C12 16.2174 11.6488 17.0652 11.0237 17.6904C10.3985 18.3155 9.5507 18.6667 8.66665 18.6667C7.78259 18.6667 6.93475 18.3155 6.30962 17.6904C5.6845 17.0652 5.33331 16.2174 5.33331 15.3333C5.33331 14.4493 5.6845 13.6014 6.30962 12.9763C6.93475 12.3512 7.78259 12 8.66665 12C9.5507 12 10.3985 12.3512 11.0237 12.9763C11.6488 13.6014 12 14.4493 12 15.3333Z" stroke="#454C6A"/>
<path opacity="0.5" d="M19.0933 22.4028L12 17.7201M19.2267 9.12012L12.1333 13.8028" stroke="#454C6A" stroke-linecap="round"/>
<path d="M25.3333 24.6667C25.3333 25.5507 24.9821 26.3986 24.357 27.0237C23.7319 27.6488 22.884 28 22 28C21.1159 28 20.2681 27.6488 19.6429 27.0237C19.0178 26.3986 18.6666 25.5507 18.6666 24.6667C18.6666 23.7826 19.0178 22.9348 19.6429 22.3096C20.2681 21.6845 21.1159 21.3333 22 21.3333C22.884 21.3333 23.7319 21.6845 24.357 22.3096C24.9821 22.9348 25.3333 23.7826 25.3333 24.6667ZM25.3333 7.33333C25.3333 8.21739 24.9821 9.06523 24.357 9.69036C23.7319 10.3155 22.884 10.6667 22 10.6667C21.1159 10.6667 20.2681 10.3155 19.6429 9.69036C19.0178 9.06523 18.6666 8.21739 18.6666 7.33333C18.6666 6.44928 19.0178 5.60143 19.6429 4.97631C20.2681 4.35119 21.1159 4 22 4C22.884 4 23.7319 4.35119 24.357 4.97631C24.9821 5.60143 25.3333 6.44928 25.3333 7.33333Z" stroke="#454C6A"/>
</svg>
