<svg width="32" height="32" viewBox="0 0 32 32" fill="none" xmlns="http://www.w3.org/2000/svg">
<mask id="mask0_117_1048" style="mask-type:luminance" maskUnits="userSpaceOnUse" x="1" y="4" width="27" height="24">
<path d="M10.6667 16C10.6667 11.5817 14.2484 8 18.6667 8C23.085 8 26.6667 11.5817 26.6667 16C26.6667 20.4183 23.085 24 18.6667 24C14.2484 24 10.6667 20.4183 10.6667 16Z" fill="white" fill-opacity="0.25"/>
<path d="M10.2667 15.9999C10.2667 14.8968 10.4839 13.8044 10.9061 12.7853C11.3282 11.7662 11.947 10.8402 12.727 10.0602C13.507 9.28014 14.433 8.6614 15.4521 8.23927C16.4713 7.81713 17.5636 7.59985 18.6667 7.59985C19.7698 7.59985 20.8621 7.81713 21.8812 8.23927C22.9003 8.6614 23.8263 9.28014 24.6064 10.0602C25.3864 10.8402 26.0051 11.7662 26.4273 12.7853C26.8494 13.8044 27.0667 14.8968 27.0667 15.9999C27.0667 18.2277 26.1817 20.3642 24.6064 21.9396C23.0311 23.5149 20.8945 24.3999 18.6667 24.3999C16.4388 24.3999 14.3023 23.5149 12.727 21.9396C11.1517 20.3642 10.2667 18.2277 10.2667 15.9999Z" stroke="#C0C0C0" stroke-opacity="0.25" stroke-width="0.8"/>
<path d="M10.6667 25.2373C12.2882 26.1736 14.1276 26.6665 16.0001 26.6666C17.8725 26.6667 19.712 26.1738 21.3336 25.2377C22.9552 24.3015 24.3018 22.9549 25.238 21.3334C26.1743 19.7118 26.6672 17.8724 26.6672 15.9999C26.6672 14.1275 26.1743 12.288 25.238 10.6665C24.3018 9.0449 22.9552 7.69836 21.3336 6.76218C19.712 5.826 17.8725 5.33318 16.0001 5.33325C14.1276 5.33332 12.2882 5.82628 10.6667 6.76259" stroke="white"/>
<path d="M2.66669 15.9999L2.04136 15.4999L1.64136 15.9999L2.04136 16.4999L2.66669 15.9999ZM14.6667 16.7999C14.8789 16.7999 15.0823 16.7156 15.2324 16.5656C15.3824 16.4156 15.4667 16.2121 15.4667 15.9999C15.4667 15.7877 15.3824 15.5843 15.2324 15.4342C15.0823 15.2842 14.8789 15.1999 14.6667 15.1999V16.7999ZM7.37469 8.83325L2.04136 15.4999L3.29202 16.4999L8.62536 9.83325L7.37469 8.83325ZM2.04136 16.4999L7.37469 23.1666L8.62536 22.1666L3.29202 15.4999L2.04136 16.4999ZM2.66669 16.7999H14.6667V15.1999H2.66669V16.7999Z" fill="white"/>
</mask>
<g mask="url(#mask0_117_1048)">
<path d="M0 0H32V32H0V0Z" fill="url(#paint0_linear_117_1048)"/>
</g>
<defs>
<linearGradient id="paint0_linear_117_1048" x1="0" y1="0" x2="32.8333" y2="0.879173" gradientUnits="userSpaceOnUse">
<stop stop-color="#FF6868"/>
<stop offset="1" stop-color="#E30000"/>
</linearGradient>
</defs>
</svg>
