<svg width="32" height="32" viewBox="0 0 32 32" fill="none" xmlns="http://www.w3.org/2000/svg">
<path d="M12 17.3334H20M12 22.6667H16M5.33331 5.33341V26.6667C5.33331 27.374 5.61426 28.0523 6.11436 28.5524C6.61446 29.0525 7.29274 29.3334 7.99998 29.3334H24C24.7072 29.3334 25.3855 29.0525 25.8856 28.5524C26.3857 28.0523 26.6666 27.374 26.6666 26.6667V11.1227C26.6666 10.7675 26.5956 10.4158 26.4577 10.0884C26.3199 9.76098 26.118 9.4644 25.864 9.21608L19.944 3.42675C19.4458 2.93962 18.7767 2.66683 18.08 2.66675H7.99998C7.29274 2.66675 6.61446 2.9477 6.11436 3.4478C5.61426 3.94789 5.33331 4.62617 5.33331 5.33341Z" stroke="#454C6A" stroke-linecap="round" stroke-linejoin="round"/>
<path d="M18.6666 2.66675V8.00008C18.6666 8.70733 18.9476 9.3856 19.4477 9.8857C19.9478 10.3858 20.626 10.6667 21.3333 10.6667H26.6666" stroke="#454C6A" stroke-linejoin="round"/>
</svg>
